<?xml version="1.0" encoding="utf-8"?>
<!-- Generator: Adobe Illustrator 19.1.0, SVG Export Plug-In . SVG Version: 6.00 Build 0)  -->
<!DOCTYPE svg PUBLIC "-//W3C//DTD SVG 1.1//EN" "http://www.w3.org/Graphics/SVG/1.1/DTD/svg11.dtd">
<svg version="1.1" id="Layer_1" xmlns="http://www.w3.org/2000/svg" xmlns:xlink="http://www.w3.org/1999/xlink" x="0px" y="0px"
	 viewBox="0 0 56 56" enable-background="new 0 0 56 56" xml:space="preserve">
<g id="approved">
	<path fill="#D6EEED" d="M53.9,24.7c0-0.3,0.2-0.6,0.6-0.6c0.1,0,0.2,0,0.3,0.1c-1.2-8.3-6.1-15.3-13-19.4c0,0,0,0,0,0.1
		c0,0.3-0.2,0.6-0.6,0.6c-0.3,0-0.6-0.2-0.6-0.6c0-0.2,0.1-0.4,0.3-0.5C37.1,2.2,32.7,1,28,1s-9.1,1.2-13,3.3
		c0.2,0.1,0.3,0.3,0.3,0.5c0,0.3-0.2,0.6-0.6,0.6c-0.3,0-0.6-0.2-0.6-0.6c0,0,0,0,0-0.1C7.3,8.9,2.4,15.9,1.3,24.2
		c0.1,0,0.2-0.1,0.3-0.1c0.3,0,0.6,0.2,0.6,0.6c0,0.3-0.2,0.6-0.6,0.6c-0.1,0-0.3-0.1-0.4-0.1C1.1,26,1,27,1,28s0.1,2,0.2,2.9
		c0.1-0.1,0.2-0.1,0.4-0.1c0.3,0,0.6,0.2,0.6,0.6c0,0.3-0.2,0.6-0.6,0.6c-0.1,0-0.2,0-0.3-0.1c1.2,8.3,6.1,15.3,13,19.4
		c0,0,0,0,0-0.1c0-0.3,0.2-0.6,0.6-0.6c0.3,0,0.6,0.2,0.6,0.6c0,0.2-0.1,0.4-0.3,0.5c3.9,2.1,8.3,3.3,13,3.3s9.1-1.2,13-3.3
		c-0.2-0.1-0.3-0.3-0.3-0.5c0-0.3,0.2-0.6,0.6-0.6c0.3,0,0.6,0.2,0.6,0.6c0,0,0,0,0,0.1c6.9-4.1,11.8-11.2,13-19.4
		c-0.1,0-0.2,0.1-0.3,0.1c-0.3,0-0.6-0.2-0.6-0.6c0-0.3,0.2-0.6,0.6-0.6c0.1,0,0.3,0.1,0.4,0.1C54.9,30,55,29,55,28s-0.1-2-0.2-2.9
		c-0.1,0.1-0.2,0.1-0.4,0.1C54.2,25.2,53.9,25,53.9,24.7z M8.1,45.1c-0.3,0-0.6-0.2-0.6-0.6S7.8,44,8.1,44c0.3,0,0.6,0.2,0.6,0.6
		S8.5,45.1,8.1,45.1z M8.1,38.5c-0.3,0-0.6-0.2-0.6-0.6c0-0.3,0.2-0.6,0.6-0.6c0.3,0,0.6,0.2,0.6,0.6C8.7,38.2,8.5,38.5,8.1,38.5z
		 M8.1,31.9c-0.3,0-0.6-0.2-0.6-0.6c0-0.3,0.2-0.6,0.6-0.6c0.3,0,0.6,0.2,0.6,0.6C8.7,31.6,8.5,31.9,8.1,31.9z M8.1,25.2
		c-0.3,0-0.6-0.2-0.6-0.6c0-0.3,0.2-0.6,0.6-0.6c0.3,0,0.6,0.2,0.6,0.6C8.7,25,8.5,25.2,8.1,25.2z M8.1,18.6c-0.3,0-0.6-0.2-0.6-0.6
		c0-0.3,0.2-0.6,0.6-0.6c0.3,0,0.6,0.2,0.6,0.6C8.7,18.4,8.5,18.6,8.1,18.6z M8.1,12c-0.3,0-0.6-0.2-0.6-0.6c0-0.3,0.2-0.6,0.6-0.6
		c0.3,0,0.6,0.2,0.6,0.6C8.7,11.8,8.5,12,8.1,12z M14.8,45.1c-0.3,0-0.6-0.2-0.6-0.6s0.2-0.6,0.6-0.6c0.3,0,0.6,0.2,0.6,0.6
		S15.1,45.1,14.8,45.1z M14.8,38.5c-0.3,0-0.6-0.2-0.6-0.6c0-0.3,0.2-0.6,0.6-0.6c0.3,0,0.6,0.2,0.6,0.6
		C15.3,38.2,15.1,38.5,14.8,38.5z M14.8,31.9c-0.3,0-0.6-0.2-0.6-0.6c0-0.3,0.2-0.6,0.6-0.6c0.3,0,0.6,0.2,0.6,0.6
		C15.3,31.6,15.1,31.9,14.8,31.9z M14.8,25.2c-0.3,0-0.6-0.2-0.6-0.6c0-0.3,0.2-0.6,0.6-0.6c0.3,0,0.6,0.2,0.6,0.6
		C15.3,25,15.1,25.2,14.8,25.2z M14.8,18.6c-0.3,0-0.6-0.2-0.6-0.6c0-0.3,0.2-0.6,0.6-0.6c0.3,0,0.6,0.2,0.6,0.6
		C15.3,18.4,15.1,18.6,14.8,18.6z M14.8,12c-0.3,0-0.6-0.2-0.6-0.6c0-0.3,0.2-0.6,0.6-0.6c0.3,0,0.6,0.2,0.6,0.6
		C15.3,11.8,15.1,12,14.8,12z M21.4,51.7c-0.3,0-0.6-0.2-0.6-0.6c0-0.3,0.2-0.6,0.6-0.6c0.3,0,0.6,0.2,0.6,0.6
		C21.9,51.5,21.7,51.7,21.4,51.7z M21.4,45.1c-0.3,0-0.6-0.2-0.6-0.6s0.2-0.6,0.6-0.6c0.3,0,0.6,0.2,0.6,0.6S21.7,45.1,21.4,45.1z
		 M21.4,38.5c-0.3,0-0.6-0.2-0.6-0.6c0-0.3,0.2-0.6,0.6-0.6c0.3,0,0.6,0.2,0.6,0.6C21.9,38.2,21.7,38.5,21.4,38.5z M21.4,31.9
		c-0.3,0-0.6-0.2-0.6-0.6c0-0.3,0.2-0.6,0.6-0.6c0.3,0,0.6,0.2,0.6,0.6C21.9,31.6,21.7,31.9,21.4,31.9z M21.4,25.2
		c-0.3,0-0.6-0.2-0.6-0.6c0-0.3,0.2-0.6,0.6-0.6c0.3,0,0.6,0.2,0.6,0.6C21.9,25,21.7,25.2,21.4,25.2z M21.4,18.6
		c-0.3,0-0.6-0.2-0.6-0.6c0-0.3,0.2-0.6,0.6-0.6c0.3,0,0.6,0.2,0.6,0.6C21.9,18.4,21.7,18.6,21.4,18.6z M21.4,12
		c-0.3,0-0.6-0.2-0.6-0.6c0-0.3,0.2-0.6,0.6-0.6c0.3,0,0.6,0.2,0.6,0.6C21.9,11.8,21.7,12,21.4,12z M21.4,5.4
		c-0.3,0-0.6-0.2-0.6-0.6c0-0.3,0.2-0.6,0.6-0.6c0.3,0,0.6,0.2,0.6,0.6C21.9,5.1,21.7,5.4,21.4,5.4z M28,51.7
		c-0.3,0-0.6-0.2-0.6-0.6c0-0.3,0.2-0.6,0.6-0.6c0.3,0,0.6,0.2,0.6,0.6C28.6,51.5,28.3,51.7,28,51.7z M28,45.1
		c-0.3,0-0.6-0.2-0.6-0.6S27.7,44,28,44c0.3,0,0.6,0.2,0.6,0.6S28.3,45.1,28,45.1z M28,38.5c-0.3,0-0.6-0.2-0.6-0.6
		c0-0.3,0.2-0.6,0.6-0.6c0.3,0,0.6,0.2,0.6,0.6C28.6,38.2,28.3,38.5,28,38.5z M28,31.9c-0.3,0-0.6-0.2-0.6-0.6
		c0-0.3,0.2-0.6,0.6-0.6c0.3,0,0.6,0.2,0.6,0.6C28.6,31.6,28.3,31.9,28,31.9z M28,25.2c-0.3,0-0.6-0.2-0.6-0.6
		c0-0.3,0.2-0.6,0.6-0.6c0.3,0,0.6,0.2,0.6,0.6C28.6,25,28.3,25.2,28,25.2z M28,18.6c-0.3,0-0.6-0.2-0.6-0.6c0-0.3,0.2-0.6,0.6-0.6
		c0.3,0,0.6,0.2,0.6,0.6C28.6,18.4,28.3,18.6,28,18.6z M28,12c-0.3,0-0.6-0.2-0.6-0.6c0-0.3,0.2-0.6,0.6-0.6c0.3,0,0.6,0.2,0.6,0.6
		C28.6,11.8,28.3,12,28,12z M28,5.4c-0.3,0-0.6-0.2-0.6-0.6c0-0.3,0.2-0.6,0.6-0.6c0.3,0,0.6,0.2,0.6,0.6C28.6,5.1,28.3,5.4,28,5.4z
		 M34.6,51.7c-0.3,0-0.6-0.2-0.6-0.6c0-0.3,0.2-0.6,0.6-0.6c0.3,0,0.6,0.2,0.6,0.6C35.2,51.5,34.9,51.7,34.6,51.7z M34.6,45.1
		c-0.3,0-0.6-0.2-0.6-0.6s0.2-0.6,0.6-0.6c0.3,0,0.6,0.2,0.6,0.6S34.9,45.1,34.6,45.1z M34.6,38.5c-0.3,0-0.6-0.2-0.6-0.6
		c0-0.3,0.2-0.6,0.6-0.6c0.3,0,0.6,0.2,0.6,0.6C35.2,38.2,34.9,38.5,34.6,38.5z M34.6,31.9c-0.3,0-0.6-0.2-0.6-0.6
		c0-0.3,0.2-0.6,0.6-0.6c0.3,0,0.6,0.2,0.6,0.6C35.2,31.6,34.9,31.9,34.6,31.9z M34.6,25.2c-0.3,0-0.6-0.2-0.6-0.6
		c0-0.3,0.2-0.6,0.6-0.6c0.3,0,0.6,0.2,0.6,0.6C35.2,25,34.9,25.2,34.6,25.2z M34.6,18.6c-0.3,0-0.6-0.2-0.6-0.6
		c0-0.3,0.2-0.6,0.6-0.6c0.3,0,0.6,0.2,0.6,0.6C35.2,18.4,34.9,18.6,34.6,18.6z M34.6,12c-0.3,0-0.6-0.2-0.6-0.6
		c0-0.3,0.2-0.6,0.6-0.6c0.3,0,0.6,0.2,0.6,0.6C35.2,11.8,34.9,12,34.6,12z M34.6,5.4c-0.3,0-0.6-0.2-0.6-0.6c0-0.3,0.2-0.6,0.6-0.6
		c0.3,0,0.6,0.2,0.6,0.6C35.2,5.1,34.9,5.4,34.6,5.4z M41.2,45.1c-0.3,0-0.6-0.2-0.6-0.6s0.2-0.6,0.6-0.6c0.3,0,0.6,0.2,0.6,0.6
		S41.5,45.1,41.2,45.1z M41.2,38.5c-0.3,0-0.6-0.2-0.6-0.6c0-0.3,0.2-0.6,0.6-0.6c0.3,0,0.6,0.2,0.6,0.6
		C41.8,38.2,41.5,38.5,41.2,38.5z M41.2,31.9c-0.3,0-0.6-0.2-0.6-0.6c0-0.3,0.2-0.6,0.6-0.6c0.3,0,0.6,0.2,0.6,0.6
		C41.8,31.6,41.5,31.9,41.2,31.9z M41.2,25.2c-0.3,0-0.6-0.2-0.6-0.6c0-0.3,0.2-0.6,0.6-0.6c0.3,0,0.6,0.2,0.6,0.6
		C41.8,25,41.5,25.2,41.2,25.2z M41.2,18.6c-0.3,0-0.6-0.2-0.6-0.6c0-0.3,0.2-0.6,0.6-0.6c0.3,0,0.6,0.2,0.6,0.6
		C41.8,18.4,41.5,18.6,41.2,18.6z M41.2,12c-0.3,0-0.6-0.2-0.6-0.6c0-0.3,0.2-0.6,0.6-0.6c0.3,0,0.6,0.2,0.6,0.6
		C41.8,11.8,41.5,12,41.2,12z M47.9,45.1c-0.3,0-0.6-0.2-0.6-0.6s0.2-0.6,0.6-0.6c0.3,0,0.6,0.2,0.6,0.6S48.2,45.1,47.9,45.1z
		 M47.9,38.5c-0.3,0-0.6-0.2-0.6-0.6c0-0.3,0.2-0.6,0.6-0.6c0.3,0,0.6,0.2,0.6,0.6C48.4,38.2,48.2,38.5,47.9,38.5z M47.9,31.9
		c-0.3,0-0.6-0.2-0.6-0.6c0-0.3,0.2-0.6,0.6-0.6c0.3,0,0.6,0.2,0.6,0.6C48.4,31.6,48.2,31.9,47.9,31.9z M47.9,25.2
		c-0.3,0-0.6-0.2-0.6-0.6c0-0.3,0.2-0.6,0.6-0.6c0.3,0,0.6,0.2,0.6,0.6C48.4,25,48.2,25.2,47.9,25.2z M47.9,18.6
		c-0.3,0-0.6-0.2-0.6-0.6c0-0.3,0.2-0.6,0.6-0.6c0.3,0,0.6,0.2,0.6,0.6C48.4,18.4,48.2,18.6,47.9,18.6z M47.9,12
		c-0.3,0-0.6-0.2-0.6-0.6c0-0.3,0.2-0.6,0.6-0.6c0.3,0,0.6,0.2,0.6,0.6C48.4,11.8,48.2,12,47.9,12z"/>
	<g id="check">
		
			<circle fill="none" stroke="#3DC1CE" stroke-linecap="round" stroke-linejoin="round" stroke-miterlimit="10" cx="28" cy="28" r="27"/>
		
			<polygon id="check_3_" fill="#FFFFFF" stroke="#FFFFFF" stroke-width="0.5" stroke-linejoin="round" stroke-miterlimit="10" points="
			8,32.7 11.6,28.7 20.2,37.2 43,17.2 46.1,21.5 20.1,45.3 		"/>
		
			<polygon id="check_1_" fill="none" stroke="#3DC1CE" stroke-linecap="round" stroke-linejoin="round" stroke-miterlimit="10" points="
			8,30.7 11.6,26.7 20.2,35.2 43,15.2 46.1,19.5 20.1,43.3 		"/>
	</g>
</g>
</svg>
