<?xml version="1.0" encoding="utf-8"?>
<!-- Generator: Adobe Illustrator 19.1.0, SVG Export Plug-In . SVG Version: 6.00 Build 0)  -->
<!DOCTYPE svg PUBLIC "-//W3C//DTD SVG 1.1//EN" "http://www.w3.org/Graphics/SVG/1.1/DTD/svg11.dtd">
<svg version="1.1" id="Layer_1" xmlns="http://www.w3.org/2000/svg" xmlns:xlink="http://www.w3.org/1999/xlink" x="0px" y="0px"
	 viewBox="-53 325 504 146" style="enable-background:new -53 325 504 146;" xml:space="preserve">
<style type="text/css">
	.st0{fill:#87779D;}
	.st1{fill:#473960;}
</style>
<g>
	<path d="M-41.7,366.9c0-23.9,23.2-36.4,46.1-36.4c16.3,0,32.7,6.2,40.4,18.7l-4,2.9C34,340.9,18.7,334.9,4,334.9
		c-20.3,0-41,10.6-41,32v61c0,21.4,20.7,31.7,41,31.7c14.6,0,29.8-5.4,36.8-16.3l4,2.1c-7.7,12.4-24.4,18.9-41,18.9
		c-22.6,0-45.5-12.3-45.5-36.4C-41.7,427.9-41.7,366.9-41.7,366.9z"/>
	<path d="M68.3,462.3v-130h4.6v125.4h65v4.6H68.2v0H68.3z"/>
	<path d="M163.4,462.3h-4.6v-130h4.6V462.3z"/>
</g>
<g>
	<path d="M421.1,397c14.3,6.1,18.7,20.6,18.5,32.1c-0.6,26.8-17.8,34.6-40.4,34.6h-47.3V333.8h47.6c19,0,33.9,11,33.9,31.6
		c0,11-4,21-13.1,26.2l-5.7,3.2L421.1,397z M399.5,392.7c17.1,0,29.5-8.4,29.5-27.2c0-18.2-13.1-27.6-29.5-27.6h-42.9v54.7h42.9
		V392.7z M399.5,459.3c20.7,0.4,35.6-7.9,35.6-30.5c0-22.8-13.8-32-35.6-31.7h-42.9v62.2H399.5z"/>
</g>
<g>
	<polygon class="st0" points="240.6,330.3 266.8,396.8 293,463.2 240.6,463.2 188.2,463.2 214.4,396.8 	"/>
	<polygon class="st0" points="282.4,330.3 308.5,396.8 334.7,463.2 282.4,463.2 229.9,463.2 256.1,396.8 	"/>
	<polygon class="st1" points="261,384.3 276.5,423.8 292.1,463.2 261,463.2 229.9,463.2 245.5,423.8 	"/>
</g>
</svg>
