<?xml version="1.0" encoding="utf-8"?>
<!-- Generator: Adobe Illustrator 19.1.0, SVG Export Plug-In . SVG Version: 6.00 Build 0)  -->
<!DOCTYPE svg PUBLIC "-//W3C//DTD SVG 1.1//EN" "http://www.w3.org/Graphics/SVG/1.1/DTD/svg11.dtd">
<svg version="1.1" id="Layer_4" xmlns="http://www.w3.org/2000/svg" xmlns:xlink="http://www.w3.org/1999/xlink" x="0px" y="0px"
	 viewBox="0 0 360 180" enable-background="new 0 0 360 180" xml:space="preserve">
<g>
	<g>
		<path fill="#303030" d="M171,46v-6.6h-27.2V46h10v30.8h7.1V46H171L171,46z M203.1,70.1h-20.6v-9.5h17.3V54h-17.3v-8h20.2v-6.6
			h-27.3v37.4h27.7V70.1L203.1,70.1z M240.7,64.9h-7.7c-0.6,1.1-1.3,2.2-2.2,3.1c-0.9,0.9-2,1.6-3.2,2.2c-1.2,0.5-2.5,0.8-3.9,0.8
			c-1.5,0-3-0.4-4.3-1c-1.3-0.7-2.5-1.6-3.5-2.8c-1-1.2-1.8-2.6-2.3-4.1c-0.6-1.6-0.8-3.3-0.9-5c0-1.8,0.3-3.4,0.9-5
			c0.6-1.6,1.3-2.9,2.3-4.1c1-1.2,2.2-2.1,3.5-2.8c1.3-0.7,2.8-1,4.3-1c1.4,0,2.8,0.3,4,0.8c1.2,0.5,2.3,1.2,3.2,2.1
			c0.9,0.9,1.6,1.9,2.2,3h7.7c-0.8-2.6-2-4.8-3.6-6.6c-1.6-1.9-3.5-3.3-5.8-4.3c-2.3-1-4.8-1.5-7.7-1.5c-2,0-4,0.3-5.8,1
			c-1.8,0.6-3.5,1.6-5,2.7c-1.5,1.2-2.8,2.6-3.9,4.2c-1.1,1.6-1.9,3.4-2.5,5.4c-0.6,2-0.9,4-0.9,6.2c0,2.2,0.3,4.3,0.9,6.2
			c0.6,2,1.4,3.7,2.5,5.4c1.1,1.6,2.4,3,3.9,4.2c1.5,1.2,3.2,2.1,5,2.7c1.8,0.6,3.7,1,5.8,1c2.8,0,5.3-0.5,7.6-1.6
			c2.3-1,4.2-2.5,5.8-4.3C238.7,69.7,239.9,67.5,240.7,64.9L240.7,64.9z M275.7,39.4h-7.1v15h-16v-15h-7.2v37.4h7.2V61h16v15.8h7.1
			V39.4L275.7,39.4z M160.3,80.7c-2.2,0-4.2,0.3-5.9,0.8c-1.8,0.5-3.3,1.3-4.5,2.2c-1.3,1-2.2,2.1-2.9,3.4c-0.7,1.3-1,2.8-1,4.4
			c0,1.6,0.3,3,0.8,4.1c0.5,1.2,1.2,2.1,2.1,3c0.9,0.8,1.9,1.5,3.1,2c1.2,0.5,2.4,1,3.8,1.4c1.3,0.4,2.7,0.7,4.1,0.9
			c1.7,0.3,3.1,0.7,4.3,1c1.1,0.4,2,0.7,2.7,1.2c0.7,0.4,1.1,0.9,1.4,1.4c0.3,0.5,0.4,1,0.4,1.6c0,0.9-0.3,1.7-0.7,2.3
			c-0.5,0.6-1.1,1.2-1.9,1.6c-0.8,0.4-1.7,0.7-2.7,0.9c-1,0.2-2,0.3-3,0.3c-1,0-1.9-0.1-2.9-0.4c-1-0.3-1.8-0.7-2.6-1.2
			c-0.8-0.5-1.4-1.2-1.9-2c-0.5-0.8-0.7-1.8-0.7-2.9H145c0,1.8,0.3,3.4,0.9,4.8c0.6,1.4,1.4,2.6,2.4,3.7c1,1,2.2,1.9,3.5,2.6
			c1.3,0.7,2.7,1.2,4.1,1.5c1.5,0.3,2.9,0.5,4.4,0.5c2.4,0,4.5-0.3,6.4-0.8c1.9-0.5,3.5-1.3,4.9-2.4c1.3-1,2.4-2.3,3.1-3.7
			c0.7-1.4,1.1-3.1,1.1-4.9c0-1.9-0.3-3.5-1-4.8c-0.7-1.3-1.6-2.4-2.9-3.2c-1.3-0.9-2.8-1.6-4.6-2.1c-1.8-0.6-3.8-1.1-6-1.5
			c-1.9-0.4-3.5-0.8-4.7-1.2c-1.2-0.4-2.1-0.9-2.7-1.4c-0.6-0.5-0.9-1.2-0.9-2.1c0-0.7,0.2-1.3,0.6-1.9c0.4-0.5,0.9-1,1.6-1.4
			c0.7-0.4,1.5-0.6,2.3-0.8c0.9-0.2,1.8-0.3,2.7-0.3c1.5,0,2.8,0.3,3.9,0.7c1.1,0.5,1.9,1.2,2.5,2c0.6,0.8,0.9,1.8,0.9,2.9h7.1
			c0-1.2-0.2-2.4-0.5-3.6c-0.4-1.2-0.9-2.3-1.7-3.3c-0.7-1-1.7-2-2.8-2.8c-1.1-0.8-2.5-1.4-4-1.9C164,81,162.3,80.7,160.3,80.7
			L160.3,80.7z M208,119.7h8.1l-5.3-5.6c1.1-1.2,2-2.5,2.8-3.9c0.8-1.5,1.4-3,1.8-4.7c0.4-1.7,0.6-3.4,0.6-5.3
			c0-2.2-0.3-4.2-0.9-6.2c-0.6-1.9-1.4-3.7-2.5-5.3c-1.1-1.6-2.4-3-3.9-4.2c-1.5-1.2-3.2-2.1-5-2.8c-1.8-0.6-3.8-1-6-1
			c-2.1,0-4.1,0.3-6,1c-1.9,0.7-3.5,1.6-5.1,2.8c-1.5,1.2-2.8,2.6-3.9,4.2c-1.1,1.6-1.9,3.4-2.5,5.3c-0.6,1.9-0.9,4-0.9,6.2
			c0,2.2,0.3,4.3,0.9,6.2c0.6,2,1.4,3.7,2.5,5.4c1.1,1.6,2.4,3,3.9,4.2c1.5,1.2,3.2,2.1,5.1,2.7c1.9,0.7,3.9,1,6,1
			c1.5,0,3-0.2,4.4-0.5c1.4-0.3,2.7-0.8,4-1.5L208,119.7L208,119.7z M201.1,112.4c-0.5,0.2-1.1,0.3-1.7,0.4
			c-0.6,0.1-1.1,0.1-1.7,0.1c-1.6,0-3-0.4-4.4-1c-1.4-0.7-2.5-1.6-3.6-2.8c-1-1.2-1.8-2.5-2.4-4.1c-0.6-1.5-0.9-3.2-0.9-4.9
			c0-1.8,0.3-3.4,0.9-4.9c0.6-1.5,1.4-2.9,2.4-4c1-1.2,2.2-2.1,3.6-2.8c1.4-0.7,2.8-1,4.4-1c1.5,0,3,0.3,4.3,1
			c1.3,0.7,2.5,1.6,3.5,2.8c1,1.2,1.8,2.5,2.4,4c0.6,1.5,0.9,3.2,0.9,4.9c0,1.7-0.3,3.3-0.8,4.7c-0.5,1.5-1.3,2.8-2.2,3.9l-2.2-2.4
			h-8.1L201.1,112.4L201.1,112.4z M249.7,81.7h-7.2v22.8c0,2.8-0.6,4.9-1.8,6.3c-1.2,1.4-3,2.1-5.5,2.1c-2.4,0-4.2-0.7-5.5-2.1
			c-1.2-1.4-1.8-3.5-1.8-6.3V81.7h-7.1v22.6c0,3.2,0.5,5.9,1.6,8.2c1.1,2.3,2.7,4.1,4.8,5.3c2.1,1.2,4.8,1.9,7.9,1.9
			c3.1,0,5.8-0.6,7.9-1.9c2.1-1.2,3.8-3,4.9-5.3c1.1-2.3,1.7-5,1.7-8.2V81.7L249.7,81.7z M276.5,111.6l2.5,7.5h7.5l-13-37.4h-9
			l-13,37.4h7.5l2.5-7.5H276.5L276.5,111.6z M274.2,105h-10.5l5.2-15.4L274.2,105L274.2,105z M319.3,114.6v-5.2c0-2-0.4-3.6-1.1-4.9
			c-0.7-1.3-1.7-2.3-3-3.1c1.1-0.5,2-1.2,2.8-1.9c0.8-0.8,1.4-1.7,1.8-2.8c0.4-1.1,0.6-2.3,0.6-3.8c0-2.3-0.5-4.3-1.6-6
			c-1-1.7-2.5-2.9-4.4-3.8c-1.9-0.9-4.2-1.3-6.8-1.3h-17.1v37.4h7.1v-14.4h9.7c1.7,0,2.9,0.4,3.7,1.1c0.8,0.8,1.2,1.9,1.2,3.5v5.7
			c0,0.9,0.1,1.6,0.2,2.3c0.1,0.7,0.3,1.3,0.5,1.8h7.2c-0.1-0.4-0.3-0.8-0.4-1.4c-0.1-0.5-0.2-1.1-0.3-1.6
			C319.4,115.5,319.3,115,319.3,114.6L319.3,114.6z M297.7,98.2v-9.9h10c1.1,0,2.1,0.1,2.8,0.4c0.7,0.2,1.3,0.6,1.7,1
			c0.4,0.4,0.7,0.8,0.9,1.3c0.2,0.4,0.3,0.9,0.3,1.3c0,0.4,0.1,0.7,0,1c0,0.9-0.2,1.7-0.5,2.3c-0.3,0.6-0.7,1.1-1.2,1.5
			c-0.5,0.4-1,0.6-1.5,0.8c-0.5,0.2-1,0.3-1.4,0.4c-0.4,0.1-0.7,0.1-0.9,0.1H297.7L297.7,98.2z M354.2,112.5h-20.6v-9.5h17.2v-6.6
			h-17.2v-8h20.2v-6.6h-27.3v37.4h27.7V112.5L354.2,112.5z M161.8,147.4H149v-22h-3.1v24.9h15.9V147.4L161.8,147.4z M179.7,143.1
			l2.6,7.3h3.4l-9.2-24.9h-3.4l-9.4,24.9h3.3l2.7-7.3H179.7L179.7,143.1z M178.7,140.2h-8l4.1-11.1L178.7,140.2L178.7,140.2z
			 M207.4,143c0-0.9-0.1-1.7-0.4-2.5c-0.3-0.8-0.7-1.4-1.2-2c-0.6-0.6-1.3-1-2.2-1.4c0.7-0.4,1.3-0.8,1.8-1.4c0.5-0.5,0.8-1.1,1-1.8
			c0.2-0.6,0.3-1.3,0.3-1.9c0-1.4-0.3-2.5-0.9-3.5c-0.6-1-1.4-1.8-2.5-2.3c-1.1-0.6-2.3-0.8-3.8-0.8h-10.7v24.9h10.8
			c1.2,0,2.3-0.2,3.2-0.6c1-0.4,1.8-0.9,2.4-1.6c0.7-0.7,1.2-1.4,1.6-2.3C207.3,145,207.4,144.1,207.4,143L207.4,143z M191.9,128.3
			h7.7c0.8,0,1.5,0.1,2.2,0.4c0.6,0.3,1.1,0.7,1.4,1.2c0.3,0.6,0.5,1.3,0.5,2.2c0,0.7-0.1,1.3-0.4,1.8c-0.2,0.5-0.5,0.9-0.9,1.2
			c-0.4,0.3-0.8,0.5-1.3,0.7c-0.5,0.1-0.9,0.2-1.4,0.2h-7.8V128.3L191.9,128.3z M204.4,143.1c0,0.9-0.2,1.7-0.6,2.3
			c-0.4,0.6-0.9,1.1-1.6,1.5c-0.7,0.3-1.5,0.5-2.4,0.5c0,0-0.2,0-0.4,0c-0.3,0-0.7,0-1.1,0c-0.5,0-1,0-1.6,0c-0.6,0-1.2,0-1.8,0
			c-0.6,0-1.1,0-1.7,0c-0.5,0-1,0-1.3,0v-8.6h7.8c0.9,0,1.7,0.1,2.4,0.4c0.7,0.3,1.2,0.8,1.6,1.4C204.2,141.2,204.4,142,204.4,143.1
			L204.4,143.1z M229.1,143.2c0-1.2-0.2-2.2-0.6-3c-0.4-0.8-1-1.5-1.8-2.1c-0.8-0.6-1.7-1-2.8-1.4c-1.1-0.4-2.3-0.7-3.7-0.9
			c-1.3-0.2-2.3-0.5-3.1-0.7c-0.8-0.3-1.4-0.6-1.9-0.9c-0.5-0.3-0.8-0.7-1-1.1c-0.2-0.4-0.3-0.9-0.3-1.4c0-0.8,0.2-1.5,0.6-2.1
			c0.4-0.6,1-1.1,1.9-1.4c0.8-0.3,1.9-0.5,3.2-0.5c1.2,0,2.3,0.2,3.1,0.6c0.8,0.4,1.5,1,1.9,1.7c0.4,0.7,0.7,1.6,0.7,2.5h3.1
			c0-1.6-0.4-3-1.1-4.1c-0.7-1.2-1.7-2-3-2.7c-1.3-0.6-2.9-0.9-4.7-0.9c-1.8,0-3.3,0.3-4.6,0.9c-1.3,0.6-2.3,1.4-3,2.4
			c-0.7,1-1.1,2.3-1.1,3.7c0,1.1,0.2,2,0.6,2.8c0.4,0.8,0.9,1.4,1.7,2c0.7,0.5,1.7,1,2.7,1.3c1.1,0.4,2.3,0.7,3.7,0.9
			c1.4,0.2,2.5,0.5,3.3,0.8c0.9,0.3,1.5,0.6,2,1c0.5,0.4,0.8,0.8,0.9,1.2c0.2,0.4,0.2,0.9,0.2,1.4c0,0.9-0.2,1.8-0.7,2.4
			c-0.5,0.7-1.2,1.2-2.1,1.6c-0.9,0.4-2.1,0.6-3.6,0.6c-1.3,0-2.4-0.2-3.3-0.7c-1-0.4-1.7-1.1-2.2-1.9c-0.5-0.8-0.8-1.8-0.8-2.9
			h-3.2c0,1.2,0.2,2.4,0.7,3.4c0.4,1,1.1,1.9,1.9,2.6c0.8,0.7,1.8,1.3,3,1.7c1.2,0.4,2.5,0.6,3.9,0.6c1.4,0,2.7-0.2,3.8-0.5
			c1.1-0.3,2.1-0.8,3-1.4c0.8-0.6,1.5-1.4,1.9-2.4C228.8,145.5,229.1,144.5,229.1,143.2L229.1,143.2z"/>
		<path fill="#0AA498" d="M29.8,39.4H123h5.9v5.9v99.2v5.9H123H23.9H18v-5.9V51.2h11.8v87.3h87.3V51.2H29.8V39.4L29.8,39.4z
			 M18,39.4H6.1V27.5H18V39.4L18,39.4z"/>
	</g>
</g>
</svg>
