<?xml version="1.0" encoding="utf-8"?>
<!-- Generator: Adobe Illustrator 19.1.0, SVG Export Plug-In . SVG Version: 6.00 Build 0)  -->
<!DOCTYPE svg PUBLIC "-//W3C//DTD SVG 1.1//EN" "http://www.w3.org/Graphics/SVG/1.1/DTD/svg11.dtd">
<svg version="1.1" id="Layer_1" xmlns="http://www.w3.org/2000/svg" xmlns:xlink="http://www.w3.org/1999/xlink" x="0px" y="0px"
	 viewBox="185 -11 537 94" style="enable-background:new 185 -11 537 94;" xml:space="preserve">
<style type="text/css">
	.st0{fill:#1E428A;}
	.st1{fill:#FFFFFF;}
	.st2{fill:#6D6E71;}
</style>
<g>
	<rect x="210.8" y="8" class="st0" width="148.1" height="56.4"/>
	<g>
		<g>
			<g>
				<path class="st1" d="M286.4,40.1v13h-7.9v-13l-12.4-21.2h7c0.7,0,1.2,0.2,1.6,0.5c0.4,0.3,0.7,0.7,1,1.2l4.8,9.9
					c0.4,0.8,0.8,1.5,1.1,2.2c0.3,0.7,0.6,1.3,0.9,2c0.2-0.7,0.5-1.3,0.8-2c0.3-0.7,0.7-1.4,1.1-2.2l4.8-9.9
					c0.1-0.2,0.2-0.4,0.4-0.6c0.2-0.2,0.4-0.4,0.6-0.6c0.2-0.2,0.5-0.3,0.7-0.4c0.3-0.1,0.6-0.2,0.9-0.2h7L286.4,40.1z"/>
				<path class="st1" d="M323.2,18.9V25h-14v8h10.7v5.9h-10.7V47h14v6.1h-22V18.9H323.2z"/>
				<path class="st1" d="M347.7,25.9c-0.2,0.4-0.5,0.7-0.7,0.8c-0.3,0.2-0.6,0.3-1,0.3s-0.7-0.1-1.2-0.3c-0.4-0.2-0.9-0.5-1.4-0.8
					s-1.1-0.5-1.8-0.8c-0.7-0.2-1.4-0.3-2.3-0.3c-1.5,0-2.6,0.3-3.3,1c-0.7,0.6-1.1,1.5-1.1,2.6c0,0.7,0.2,1.3,0.7,1.7
					c0.4,0.5,1,0.8,1.7,1.2c0.7,0.3,1.5,0.6,2.4,0.9c0.9,0.3,1.8,0.6,2.8,0.9s1.9,0.7,2.8,1.2c0.9,0.5,1.7,1,2.4,1.7
					c0.7,0.7,1.3,1.6,1.7,2.6s0.7,2.2,0.7,3.6c0,1.6-0.3,3.1-0.8,4.4c-0.5,1.4-1.3,2.6-2.4,3.6c-1,1-2.3,1.8-3.8,2.4
					c-1.5,0.6-3.3,0.9-5.2,0.9c-1.1,0-2.1-0.1-3.2-0.3c-1.1-0.2-2.2-0.5-3.2-0.9s-2-0.9-2.9-1.4s-1.7-1.2-2.4-1.8l2.3-3.7
					c0.2-0.3,0.4-0.5,0.7-0.7c0.3-0.2,0.6-0.3,1-0.3c0.5,0,0.9,0.1,1.4,0.4c0.5,0.3,1,0.6,1.6,1c0.6,0.4,1.3,0.7,2.1,1
					c0.8,0.3,1.7,0.4,2.8,0.4c1.4,0,2.6-0.3,3.4-0.9c0.8-0.6,1.2-1.6,1.2-3c0-0.8-0.2-1.4-0.7-1.9c-0.4-0.5-1-0.9-1.7-1.2
					s-1.5-0.6-2.4-0.9c-0.9-0.2-1.8-0.5-2.8-0.8s-1.9-0.7-2.8-1.1c-0.9-0.4-1.7-1-2.4-1.8c-0.7-0.7-1.3-1.6-1.7-2.7
					c-0.4-1.1-0.7-2.4-0.7-4c0-1.3,0.3-2.5,0.8-3.8c0.5-1.2,1.3-2.3,2.3-3.3s2.2-1.7,3.7-2.3s3.1-0.9,5-0.9c1,0,2.1,0.1,3.1,0.2
					c1,0.2,1.9,0.4,2.8,0.7c0.9,0.3,1.7,0.7,2.5,1.1c0.8,0.4,1.5,0.9,2.1,1.5L347.7,25.9z"/>
				<path class="st2" d="M368.8,18.9h6.7c0.7,0,1.3,0.2,1.7,0.5c0.5,0.3,0.8,0.7,0.9,1.2l4.7,17.8c0.2,0.6,0.3,1.2,0.5,1.9
					s0.3,1.3,0.4,2.1c0.2-0.7,0.3-1.4,0.5-2.1c0.2-0.6,0.4-1.3,0.5-1.8l5.5-17.8c0.1-0.4,0.4-0.8,0.9-1.2c0.5-0.4,1-0.5,1.7-0.5h2.3
					c0.7,0,1.3,0.2,1.7,0.5c0.4,0.3,0.8,0.7,0.9,1.3l5.5,17.8c0.2,0.5,0.4,1.1,0.5,1.7c0.2,0.6,0.4,1.3,0.5,2c0.1-0.7,0.3-1.3,0.4-2
					c0.1-0.6,0.3-1.2,0.4-1.8l4.7-17.8c0.1-0.5,0.4-0.9,0.9-1.2c0.5-0.3,1-0.5,1.7-0.5h6.2L408,53.1h-7.2l-6.4-21.2
					c-0.1-0.3-0.2-0.7-0.3-1.1s-0.2-0.8-0.3-1.2c-0.1,0.4-0.2,0.9-0.3,1.2c-0.1,0.4-0.2,0.8-0.3,1.1l-6.5,21.2h-7.2L368.8,18.9z"/>
				<path class="st2" d="M443.7,18.9V25h-14v8h10.7v5.9h-10.7V47h14v6.1h-22V18.9H443.7z"/>
				<path class="st2" d="M480.3,44.3c0.2,0,0.4,0,0.6,0.1s0.4,0.2,0.5,0.4l3.1,3.3c-1.4,1.8-3.1,3.2-5.2,4.1
					c-2.1,0.9-4.5,1.4-7.4,1.4c-2.6,0-4.9-0.4-7-1.3c-2.1-0.9-3.8-2.1-5.2-3.7c-1.4-1.6-2.5-3.4-3.3-5.5s-1.2-4.5-1.2-7
					s0.4-4.9,1.3-7c0.9-2.1,2.1-4,3.7-5.5c1.6-1.5,3.5-2.8,5.6-3.6c2.2-0.9,4.6-1.3,7.2-1.3c1.3,0,2.5,0.1,3.6,0.3s2.2,0.5,3.2,0.9
					s1.9,0.9,2.7,1.4c0.8,0.6,1.6,1.2,2.2,1.8l-2.7,3.6c-0.2,0.2-0.4,0.4-0.6,0.6s-0.6,0.3-1,0.3c-0.3,0-0.5-0.1-0.8-0.2
					c-0.2-0.1-0.5-0.3-0.8-0.5s-0.6-0.4-0.9-0.6s-0.7-0.4-1.2-0.6s-1-0.3-1.6-0.5c-0.6-0.1-1.3-0.2-2.2-0.2c-1.4,0-2.8,0.3-3.9,0.8
					c-1.2,0.5-2.2,1.2-3.1,2.2c-0.9,0.9-1.5,2.1-2,3.4s-0.7,2.9-0.7,4.5c0,1.8,0.2,3.3,0.7,4.7s1.1,2.5,1.9,3.4s1.8,1.6,2.9,2.1
					s2.3,0.7,3.5,0.7c0.7,0,1.4,0,2-0.1s1.1-0.2,1.7-0.4c0.5-0.2,1-0.4,1.5-0.7s0.9-0.6,1.4-1c0.2-0.2,0.4-0.3,0.6-0.4
					C479.8,44.3,480.1,44.3,480.3,44.3z"/>
				<path class="st2" d="M521.9,36c0,2.5-0.4,4.8-1.3,6.9c-0.9,2.1-2.1,4-3.6,5.5c-1.5,1.6-3.4,2.8-5.6,3.7
					c-2.2,0.9-4.6,1.3-7.3,1.3s-5.1-0.4-7.3-1.3c-2.2-0.9-4.1-2.1-5.6-3.7c-1.6-1.6-2.8-3.4-3.6-5.5c-0.9-2.1-1.3-4.4-1.3-6.9
					s0.4-4.8,1.3-6.9s2.1-4,3.6-5.5c1.6-1.6,3.4-2.8,5.6-3.7c2.2-0.9,4.6-1.3,7.3-1.3s5.1,0.4,7.3,1.3c2.2,0.9,4,2.1,5.6,3.7
					c1.5,1.6,2.7,3.4,3.6,5.5C521.5,31.3,521.9,33.6,521.9,36z M513.8,36c0-1.7-0.2-3.2-0.7-4.6c-0.4-1.4-1.1-2.5-1.9-3.4
					s-1.8-1.7-3-2.2s-2.5-0.8-4.1-0.8c-1.5,0-2.9,0.2-4.1,0.8c-1.2,0.5-2.2,1.2-3,2.2c-0.8,0.9-1.4,2.1-1.9,3.4
					c-0.4,1.4-0.7,2.9-0.7,4.6s0.2,3.2,0.7,4.6c0.4,1.4,1.1,2.5,1.9,3.4s1.8,1.7,3,2.1c1.2,0.5,2.6,0.7,4.1,0.7s2.9-0.2,4.1-0.7
					s2.2-1.2,3-2.1c0.8-0.9,1.4-2.1,1.9-3.4C513.6,39.2,513.8,37.7,513.8,36z"/>
				<path class="st2" d="M556.8,36c0,2.5-0.4,4.7-1.3,6.8s-2.1,3.9-3.6,5.4s-3.4,2.7-5.6,3.6c-2.2,0.9-4.6,1.3-7.3,1.3h-13.3V18.9
					H539c2.7,0,5.1,0.4,7.3,1.3c2.2,0.9,4,2,5.6,3.6c1.5,1.5,2.7,3.3,3.6,5.4C556.3,31.3,556.8,33.6,556.8,36z M548.7,36
					c0-1.7-0.2-3.2-0.7-4.6c-0.4-1.4-1.1-2.5-1.9-3.5c-0.8-0.9-1.8-1.7-3-2.2c-1.2-0.5-2.5-0.8-4.1-0.8h-5.3v22h5.3
					c1.5,0,2.9-0.3,4.1-0.8c1.2-0.5,2.2-1.2,3-2.2c0.8-0.9,1.5-2.1,1.9-3.5C548.4,39.3,548.7,37.7,548.7,36z"/>
				<path class="st2" d="M582.6,18.9V25h-14v8h10.7v5.9h-10.7V47h14v6.1h-22V18.9H582.6z"/>
			</g>
		</g>
	</g>
	<g>
		<g>
			<polygon class="st0" points="239.9,28.9 237.9,33.9 232.6,34.2 236.7,37.6 235.4,42.8 239.9,39.9 244.4,42.8 243.1,37.6 
				247.2,34.2 241.9,33.9 			"/>
			<path class="st1" d="M256.1,32.4c0.5,0,1-0.4,1-1v-4.3c0-0.5-0.4-1-1-1H250V20c0-0.5-0.4-1-1-1h-4.3c-0.5,0-1,0.4-1,1v6.2H236V20
				c0-0.5-0.4-1-1-1h-4.3c-0.5,0-1,0.4-1,1v6.2h-6.2c-0.5,0-1,0.4-1,1v4.3c0,0.5,0.4,1,1,1h6.2v7.7h-6.2c-0.5,0-1,0.4-1,1v4.3
				c0,0.5,0.4,1,1,1h6.2v6.2c0,0.5,0.4,1,1,1h4.3c0.5,0,1-0.4,1-1v-6.2h7.7v6.2c0,0.5,0.4,1,1,1h4.3c0.5,0,1-0.4,1-1v-6.2h6.2
				c0.5,0,1-0.4,1-1v-4.3c0-0.5-0.4-1-1-1H250v-7.7L256.1,32.4L256.1,32.4z M243.1,37.6l1.4,5.2l-4.5-2.9l-4.5,2.9l1.4-5.2l-4.2-3.4
				l5.4-0.3l2-5l2,5l5.4,0.3L243.1,37.6z"/>
		</g>
	</g>
</g>
<g>
	<path class="st0" d="M602.1,55.9l3-25.2h-2.8l0.4-2.1l3.1-1.4l0.3-1.7c0.2-1.4,0.6-2.7,1.2-3.8c0.6-1.2,1.3-2.2,2.2-3.1
		s1.9-1.6,3-2.1c1.1-0.5,2.4-0.8,3.8-0.8c0.6,0,1.3,0,1.9,0.1c0.7,0.1,1.3,0.2,1.9,0.5l-1.3,3.9c-0.3-0.2-0.7-0.4-1.2-0.7
		c-0.5-0.3-1.1-0.4-1.8-0.4c-0.6,0-1,0.1-1.4,0.4c-0.4,0.2-0.7,0.6-0.9,1c-0.2,0.4-0.4,1-0.5,1.6c-0.1,0.6-0.2,1.3-0.3,2l-0.5,3h4.7
		l-0.6,3.6h-4.6l-2.3,19.5c-0.2,1.7-0.6,3.4-1.1,5.1c-0.5,1.7-1.2,3.1-2.1,4.4c-0.9,1.3-1.9,2.3-3.2,3.1c-1.2,0.8-2.6,1.2-4.2,1.2
		c-0.4,0-0.8,0-1.2-0.1c-0.4-0.1-0.8-0.1-1.2-0.1s-0.7-0.1-1-0.2c-0.3-0.1-0.5-0.1-0.7-0.2l1.3-4.1c0.1,0,0.2,0.1,0.5,0.2
		c0.3,0.1,0.6,0.2,0.9,0.4c0.3,0.1,0.7,0.2,1.1,0.3c0.4,0.1,0.7,0.1,1,0.1C600.8,60.4,601.7,58.9,602.1,55.9z"/>
	<path class="st0" d="M619,47.3c0-0.5,0-1.1,0.1-1.7c0.1-0.6,0.1-1.3,0.2-2c0.1-0.7,0.2-1.4,0.3-2.1c0.1-0.7,0.2-1.4,0.3-2.1
		l1.2-8.1l-2.7-1.7l0.4-2l8.1-0.8l1.1,0.5l-1.5,12.2c-0.1,0.6-0.2,1.3-0.3,1.9c-0.1,0.6-0.2,1.3-0.2,1.9c-0.1,0.6-0.1,1.1-0.2,1.6
		s-0.1,0.9-0.1,1.3c0,1.2,0.2,2,0.6,2.4c0.4,0.5,1,0.7,1.7,0.7c0.5,0,0.9-0.1,1.3-0.2s0.8-0.3,1.2-0.6c0.4-0.2,0.8-0.5,1.1-0.8
		c0.3-0.3,0.7-0.6,0.9-0.9l2.7-19.9h6.5l-2.8,20.7c-0.1,0.6,0,1,0.1,1.3c0.1,0.3,0.4,0.4,0.7,0.4c0.1,0,0.3,0,0.4,0s0.3-0.1,0.4-0.2
		c0.2-0.1,0.3-0.2,0.6-0.3c0.2-0.1,0.5-0.3,0.8-0.6l0.6,1.5c-0.1,0.2-0.3,0.4-0.7,0.8c-0.3,0.4-0.8,0.7-1.3,1.1s-1.1,0.7-1.8,0.9
		c-0.7,0.2-1.5,0.4-2.3,0.4c-1.4,0-2.5-0.3-3.1-1s-0.8-1.5-0.6-2.6l-0.1-0.1c-0.4,0.4-0.8,0.9-1.3,1.3c-0.5,0.4-1,0.8-1.7,1.2
		c-0.6,0.4-1.3,0.6-2.1,0.9c-0.8,0.2-1.6,0.3-2.6,0.3c-0.7,0-1.4-0.1-2.2-0.3c-0.7-0.2-1.4-0.5-2-1c-0.6-0.4-1.1-1-1.5-1.8
		C619.2,49.3,619,48.4,619,47.3z"/>
	<path class="st0" d="M645.8,52.6l2.9-21.3l-2.3-1.3l0.4-2l7.6-1.2l1.1,0.5l-0.4,4.6c0.5-0.8,1.1-1.4,1.7-2.1c0.6-0.6,1.3-1.2,2-1.6
		c0.7-0.5,1.5-0.8,2.3-1.1c0.8-0.3,1.6-0.4,2.5-0.4c0.8,0,1.6,0.1,2.3,0.3c0.7,0.2,1.3,0.6,1.8,1.1s0.9,1.2,1.2,2.1
		c0.3,0.8,0.4,1.9,0.4,3.1c0,0.4,0,0.9-0.1,1.5c-0.1,0.6-0.2,1.3-0.3,2.1c-0.1,0.7-0.2,1.5-0.4,2.2c-0.1,0.8-0.3,1.4-0.4,2.1
		c-0.1,0.6-0.2,1.1-0.3,1.7c-0.1,0.6-0.2,1.2-0.3,1.8s-0.2,1.1-0.2,1.7c-0.1,0.5-0.1,1-0.1,1.5s0.1,0.9,0.2,1.1
		c0.2,0.2,0.3,0.3,0.5,0.3s0.5-0.1,0.8-0.2c0.3-0.1,0.7-0.4,1.2-0.8l0.6,1.5c-0.1,0.2-0.3,0.4-0.6,0.8c-0.3,0.3-0.8,0.7-1.3,1
		s-1.2,0.7-1.9,0.9c-0.7,0.2-1.5,0.4-2.5,0.4c-0.9,0-1.6-0.1-2.1-0.3s-1-0.5-1.3-0.8s-0.5-0.7-0.6-1.2c-0.1-0.5-0.1-0.9-0.1-1.3
		c0-0.4,0-0.8,0.1-1.3c0.1-0.5,0.1-1.1,0.2-1.6c0.1-0.6,0.2-1.2,0.3-1.8s0.2-1.3,0.4-1.9c0.1-0.6,0.2-1.3,0.4-2
		c0.1-0.7,0.2-1.5,0.3-2.2c0.1-0.8,0.2-1.5,0.3-2.3s0.1-1.5,0.1-2.1c0-0.6-0.1-1.2-0.1-1.6c-0.1-0.4-0.2-0.7-0.4-1
		c-0.2-0.2-0.4-0.4-0.6-0.5c-0.2-0.1-0.5-0.1-0.8-0.1c-0.5,0-0.9,0.1-1.5,0.4c-0.5,0.3-1,0.7-1.6,1.1c-0.5,0.5-1,1-1.5,1.7
		c-0.5,0.6-0.9,1.3-1.3,2l-2.2,16.3h-6.4V52.6z"/>
	<path class="st0" d="M680.7,53c-1.3,0-2.5-0.2-3.5-0.7s-1.7-1.2-2.3-2s-1-1.8-1.3-3s-0.4-2.4-0.4-3.7c0-1.4,0.1-2.7,0.4-4.1
		c0.3-1.4,0.7-2.7,1.2-3.9c0.5-1.2,1.2-2.4,2-3.5c0.8-1.1,1.8-2,2.9-2.8c1.1-0.8,2.3-1.4,3.7-1.9c1.4-0.4,2.9-0.7,4.6-0.7
		c0.4,0,0.8,0,1.2,0.1c0.4,0,0.8,0.1,1.2,0.2l1.1-7.3l-3.3-1l0.4-1.8l8.7-0.9l1.2,0.6l-4.5,31c-0.1,0.5-0.1,1,0.1,1.3
		c0.1,0.3,0.3,0.5,0.7,0.5c0.2,0,0.5-0.1,0.8-0.2c0.3-0.1,0.7-0.4,1.3-0.8l0.6,1.5c-0.1,0.1-0.3,0.4-0.7,0.7c-0.3,0.3-0.7,0.7-1.2,1
		c-0.5,0.4-1.1,0.7-1.8,0.9c-0.7,0.3-1.4,0.4-2.3,0.4c-1.3,0-2.2-0.3-2.7-0.9c-0.6-0.6-0.9-1.5-0.9-2.7c-0.3,0.4-0.7,0.9-1.2,1.3
		c-0.5,0.4-1,0.8-1.6,1.2c-0.6,0.3-1.3,0.6-2,0.9C682.4,52.9,681.6,53,680.7,53z M687.5,46.6l2.4-16.3c-0.7-0.3-1.6-0.4-2.5-0.4
		c-0.9,0-1.8,0.2-2.5,0.6c-0.7,0.4-1.4,0.9-1.9,1.6c-0.5,0.7-1,1.5-1.4,2.4c-0.4,0.9-0.7,1.9-0.9,2.9s-0.4,2-0.5,3.1
		c-0.1,1-0.2,2-0.2,3c0,1.9,0.3,3.4,0.9,4.4c0.6,1,1.4,1.5,2.4,1.5c0.4,0,0.9-0.1,1.3-0.2c0.4-0.2,0.8-0.4,1.2-0.6
		c0.4-0.2,0.7-0.5,1-0.9S687.3,47,687.5,46.6z"/>
</g>
</svg>
