<?xml version="1.0" encoding="utf-8"?>
<!-- Generator: Adobe Illustrator 19.1.0, SVG Export Plug-In . SVG Version: 6.00 Build 0)  -->
<!DOCTYPE svg PUBLIC "-//W3C//DTD SVG 1.1//EN" "http://www.w3.org/Graphics/SVG/1.1/DTD/svg11.dtd">
<svg version="1.1" id="Layer_1" xmlns="http://www.w3.org/2000/svg" xmlns:xlink="http://www.w3.org/1999/xlink" x="0px" y="0px"
	 viewBox="-174 392.9 489.3 57.1" enable-background="new -174 392.9 489.3 57.1" xml:space="preserve">
<g>
	<g>
		<g>
			<path fill="#2D366F" d="M-15.2,403.9h6.7c0.7,0,1.3,0.2,1.7,0.5c0.5,0.3,0.8,0.7,0.9,1.2l4.7,17.8c0.2,0.6,0.3,1.2,0.5,1.9
				c0.2,0.7,0.3,1.3,0.4,2.1c0.2-0.7,0.3-1.4,0.5-2.1c0.2-0.6,0.4-1.3,0.5-1.8l5.5-17.8c0.1-0.4,0.4-0.8,0.9-1.2s1-0.5,1.7-0.5h2.3
				c0.7,0,1.3,0.2,1.7,0.5s0.8,0.7,0.9,1.3l5.5,17.8c0.2,0.5,0.4,1.1,0.5,1.7c0.2,0.6,0.4,1.3,0.5,2c0.1-0.7,0.3-1.3,0.4-2
				c0.1-0.6,0.3-1.2,0.4-1.8l4.7-17.8c0.1-0.5,0.4-0.9,0.9-1.2s1-0.5,1.7-0.5h6.2L24,438.1h-7.2l-6.4-21.2c-0.1-0.3-0.2-0.7-0.3-1.1
				s-0.2-0.8-0.3-1.2c-0.1,0.4-0.2,0.9-0.3,1.2c-0.1,0.4-0.2,0.8-0.3,1.1l-6.5,21.2h-7.2L-15.2,403.9z"/>
			<path fill="#2D366F" d="M59.7,403.9v6.1h-14v8h10.7v5.9H45.7v8.1h14v6.1h-22v-34.2H59.7z"/>
			<path fill="#2D366F" d="M96.3,429.2c0.2,0,0.4,0,0.6,0.1s0.4,0.2,0.5,0.4l3.1,3.3c-1.4,1.8-3.1,3.2-5.2,4.1
				c-2.1,0.9-4.5,1.4-7.4,1.4c-2.6,0-4.9-0.4-7-1.3s-3.8-2.1-5.2-3.7s-2.5-3.4-3.3-5.5c-0.8-2.1-1.2-4.5-1.2-7s0.4-4.9,1.3-7
				c0.9-2.1,2.1-4,3.7-5.5c1.6-1.5,3.5-2.8,5.6-3.6c2.2-0.9,4.6-1.3,7.2-1.3c1.3,0,2.5,0.1,3.6,0.3s2.2,0.5,3.2,0.9s1.9,0.9,2.7,1.4
				c0.8,0.6,1.6,1.2,2.2,1.8l-2.7,3.6c-0.2,0.2-0.4,0.4-0.6,0.6c-0.2,0.2-0.6,0.3-1,0.3c-0.3,0-0.5-0.1-0.8-0.2
				c-0.2-0.1-0.5-0.3-0.8-0.5s-0.6-0.4-0.9-0.6c-0.3-0.2-0.7-0.4-1.2-0.6c-0.5-0.2-1-0.3-1.6-0.5c-0.6-0.1-1.3-0.2-2.2-0.2
				c-1.4,0-2.8,0.3-3.9,0.8c-1.2,0.5-2.2,1.2-3.1,2.2c-0.9,0.9-1.5,2.1-2,3.4s-0.7,2.9-0.7,4.5c0,1.8,0.2,3.3,0.7,4.7
				c0.5,1.4,1.1,2.5,1.9,3.4s1.8,1.6,2.9,2.1s2.3,0.7,3.5,0.7c0.7,0,1.4,0,2-0.1c0.6-0.1,1.1-0.2,1.7-0.4c0.5-0.2,1-0.4,1.5-0.7
				c0.5-0.3,0.9-0.6,1.4-1c0.2-0.2,0.4-0.3,0.6-0.4C95.8,429.3,96.1,429.2,96.3,429.2z"/>
			<path fill="#2D366F" d="M137.9,421c0,2.5-0.4,4.8-1.3,6.9s-2.1,4-3.6,5.5c-1.5,1.6-3.4,2.8-5.6,3.7c-2.2,0.9-4.6,1.3-7.3,1.3
				s-5.1-0.4-7.3-1.3c-2.2-0.9-4.1-2.1-5.6-3.7c-1.6-1.6-2.8-3.4-3.6-5.5c-0.9-2.1-1.3-4.4-1.3-6.9s0.4-4.8,1.3-6.9
				c0.9-2.1,2.1-4,3.6-5.5c1.6-1.6,3.4-2.8,5.6-3.7s4.6-1.3,7.3-1.3s5.1,0.4,7.3,1.3c2.2,0.9,4,2.1,5.6,3.7c1.5,1.6,2.7,3.4,3.6,5.5
				C137.5,416.2,137.9,418.5,137.9,421z M129.8,421c0-1.7-0.2-3.2-0.7-4.6c-0.4-1.4-1.1-2.5-1.9-3.4s-1.8-1.7-3-2.2
				s-2.5-0.8-4.1-0.8c-1.5,0-2.9,0.2-4.1,0.8c-1.2,0.5-2.2,1.2-3,2.2c-0.8,0.9-1.4,2.1-1.9,3.4c-0.4,1.4-0.7,2.9-0.7,4.6
				c0,1.7,0.2,3.2,0.7,4.6c0.4,1.4,1.1,2.5,1.9,3.4s1.8,1.7,3,2.1c1.2,0.5,2.6,0.7,4.1,0.7s2.9-0.2,4.1-0.7s2.2-1.2,3-2.1
				s1.4-2.1,1.9-3.4C129.6,424.2,129.8,422.7,129.8,421z"/>
			<path fill="#2D366F" d="M172.8,421c0,2.5-0.4,4.7-1.3,6.8s-2.1,3.9-3.6,5.4s-3.4,2.7-5.6,3.6c-2.2,0.9-4.6,1.3-7.3,1.3h-13.3
				v-34.2H155c2.7,0,5.1,0.4,7.3,1.3c2.2,0.9,4,2,5.6,3.6c1.5,1.5,2.7,3.3,3.6,5.4C172.3,416.2,172.8,418.5,172.8,421z M164.7,421
				c0-1.7-0.2-3.2-0.7-4.6c-0.4-1.4-1.1-2.5-1.9-3.5c-0.8-0.9-1.8-1.7-3-2.2s-2.5-0.8-4.1-0.8h-5.3v22h5.3c1.5,0,2.9-0.3,4.1-0.8
				s2.2-1.2,3-2.2c0.8-0.9,1.5-2.1,1.9-3.5C164.4,424.2,164.7,422.7,164.7,421z"/>
			<path fill="#2D366F" d="M198.6,403.9v6.1h-14v8h10.7v5.9h-10.7v8.1h14v6.1h-22v-34.2H198.6z"/>
		</g>
	</g>
</g>
<g>
	<path fill="#2D366F" d="M-173.2,393v56.4h148.1V393H-173.2z M-126.9,416.4c0,0.5-0.4,1-1,1h-6.1v7.7h6.2c0.5,0,1,0.4,1,1v4.3
		c0,0.5-0.4,1-1,1h-6.2v6.2c0,0.5-0.4,1-1,1h-4.3c-0.5,0-1-0.4-1-1v-6.2h-7.7v6.2c0,0.5-0.4,1-1,1h-4.3c-0.5,0-1-0.4-1-1v-6.2h-6.2
		c-0.5,0-1-0.4-1-1v-4.3c0-0.5,0.4-1,1-1h6.2v-7.7h-6.2c-0.5,0-1-0.4-1-1v-4.3c0-0.5,0.4-1,1-1h6.2v-6.2c0-0.5,0.4-1,1-1h4.3
		c0.5,0,1,0.4,1,1v6.2h7.7v-6.2c0-0.5,0.4-1,1-1h4.3c0.5,0,1,0.4,1,1v6.2h6.2c0.5,0,1,0.4,1,1L-126.9,416.4L-126.9,416.4z
		 M-97.6,425.1v13h-7.9v-13l-12.4-21.2h7c0.7,0,1.2,0.2,1.6,0.5s0.7,0.7,1,1.2l4.8,9.9c0.4,0.8,0.8,1.5,1.1,2.2
		c0.3,0.7,0.6,1.3,0.9,2c0.2-0.7,0.5-1.3,0.8-2c0.3-0.7,0.7-1.4,1.1-2.2l4.8-9.9c0.1-0.2,0.2-0.4,0.4-0.6c0.2-0.2,0.4-0.4,0.6-0.6
		s0.5-0.3,0.7-0.4c0.3-0.1,0.6-0.2,0.9-0.2h7L-97.6,425.1z M-60.8,410h-14v8h10.7v5.9h-10.7v8.1h14v6.1h-22v-34.2h22V410z
		 M-34.7,431.6c-0.5,1.4-1.3,2.6-2.4,3.6c-1,1-2.3,1.8-3.8,2.4c-1.5,0.6-3.3,0.9-5.2,0.9c-1.1,0-2.1-0.1-3.2-0.3
		c-1.1-0.2-2.2-0.5-3.2-0.9c-1-0.4-2-0.9-2.9-1.4s-1.7-1.2-2.4-1.8l2.3-3.7c0.2-0.3,0.4-0.5,0.7-0.7c0.3-0.2,0.6-0.3,1-0.3
		c0.5,0,0.9,0.1,1.4,0.4c0.5,0.3,1,0.6,1.6,1c0.6,0.4,1.3,0.7,2.1,1c0.8,0.3,1.7,0.4,2.8,0.4c1.4,0,2.6-0.3,3.4-0.9
		c0.8-0.6,1.2-1.6,1.2-3c0-0.8-0.2-1.4-0.7-1.9c-0.4-0.5-1-0.9-1.7-1.2c-0.7-0.3-1.5-0.6-2.4-0.9c-0.9-0.2-1.8-0.5-2.8-0.8
		c-1-0.3-1.9-0.7-2.8-1.1s-1.7-1-2.4-1.8c-0.7-0.7-1.3-1.6-1.7-2.7c-0.4-1.1-0.7-2.4-0.7-4c0-1.3,0.3-2.5,0.8-3.8
		c0.5-1.3,1.3-2.3,2.3-3.3s2.2-1.7,3.7-2.3s3.1-0.9,5-0.9c1,0,2.1,0.1,3.1,0.2c1,0.2,1.9,0.4,2.8,0.7c0.9,0.3,1.7,0.7,2.5,1.1
		c0.8,0.4,1.5,0.9,2.1,1.5l-2,3.7c-0.2,0.4-0.5,0.7-0.7,0.8c-0.3,0.2-0.6,0.3-1,0.3s-0.7-0.1-1.2-0.3c-0.4-0.2-0.9-0.5-1.4-0.8
		c-0.5-0.3-1.1-0.5-1.8-0.8c-0.7-0.2-1.4-0.3-2.3-0.3c-1.5,0-2.6,0.3-3.3,1c-0.7,0.6-1.1,1.5-1.1,2.6c0,0.7,0.2,1.3,0.7,1.7
		c0.4,0.5,1,0.8,1.7,1.2c0.7,0.3,1.5,0.6,2.4,0.9c0.9,0.3,1.8,0.6,2.8,0.9s1.9,0.7,2.8,1.2c0.9,0.5,1.7,1,2.4,1.7
		c0.7,0.7,1.3,1.6,1.7,2.6s0.7,2.2,0.7,3.6C-33.9,428.7-34.2,430.2-34.7,431.6z"/>
	<polygon fill="#2D366F" points="-144.1,413.8 -146.1,418.9 -151.4,419.2 -147.3,422.6 -148.6,427.8 -144.1,424.9 -139.6,427.8 
		-140.9,422.6 -136.8,419.2 -142.1,418.9 	"/>
</g>
<g>
	<path fill="#2D366F" d="M218.1,440.9l3-25.2h-2.8l0.4-2.1l3.1-1.4l0.3-1.7c0.2-1.4,0.6-2.7,1.2-3.8c0.6-1.2,1.3-2.2,2.2-3.1
		c0.9-0.9,1.9-1.6,3-2.1s2.4-0.8,3.8-0.8c0.6,0,1.3,0,1.9,0.1c0.7,0.1,1.3,0.2,1.9,0.5l-1.3,3.9c-0.3-0.2-0.7-0.4-1.2-0.7
		c-0.5-0.3-1.1-0.4-1.8-0.4c-0.6,0-1,0.1-1.4,0.4c-0.4,0.2-0.7,0.6-0.9,1c-0.2,0.4-0.4,1-0.5,1.6c-0.1,0.6-0.2,1.3-0.3,2l-0.5,3h4.7
		l-0.6,3.6h-4.6l-2.3,19.5c-0.2,1.7-0.6,3.4-1.1,5.1s-1.2,3.1-2.1,4.4c-0.9,1.3-1.9,2.3-3.2,3.1c-1.2,0.8-2.6,1.2-4.2,1.2
		c-0.4,0-0.8,0-1.2-0.1s-0.8-0.1-1.2-0.1c-0.4,0-0.7-0.1-1-0.2c-0.3-0.1-0.5-0.1-0.7-0.2l1.3-4.1c0.1,0,0.2,0.1,0.5,0.2
		c0.3,0.1,0.6,0.2,0.9,0.4c0.3,0.1,0.7,0.2,1.1,0.3c0.4,0.1,0.7,0.1,1,0.1C216.8,445.4,217.7,443.9,218.1,440.9z"/>
	<path fill="#2D366F" d="M235,432.3c0-0.5,0-1.1,0.1-1.7s0.1-1.3,0.2-2c0.1-0.7,0.2-1.4,0.3-2.1c0.1-0.7,0.2-1.4,0.3-2.1l1.2-8.1
		l-2.7-1.7l0.4-2l8.1-0.8l1.1,0.5l-1.5,12.2c-0.1,0.6-0.2,1.3-0.3,1.9c-0.1,0.6-0.2,1.3-0.2,1.9c-0.1,0.6-0.1,1.1-0.2,1.6
		s-0.1,0.9-0.1,1.3c0,1.2,0.2,2,0.6,2.4c0.4,0.5,1,0.7,1.7,0.7c0.5,0,0.9-0.1,1.3-0.2s0.8-0.3,1.2-0.6c0.4-0.2,0.8-0.5,1.1-0.8
		c0.3-0.3,0.7-0.6,0.9-0.9l2.7-19.9h6.5l-2.8,20.7c-0.1,0.6,0,1,0.1,1.3c0.1,0.3,0.4,0.4,0.7,0.4c0.1,0,0.3,0,0.4,0s0.3-0.1,0.4-0.2
		c0.2-0.1,0.3-0.2,0.6-0.3c0.2-0.1,0.5-0.3,0.8-0.6l0.6,1.5c-0.1,0.2-0.3,0.4-0.7,0.8c-0.3,0.4-0.8,0.7-1.3,1.1s-1.1,0.7-1.8,0.9
		s-1.5,0.4-2.3,0.4c-1.4,0-2.5-0.3-3.1-1c-0.6-0.7-0.8-1.5-0.6-2.6l-0.1-0.1c-0.4,0.4-0.8,0.9-1.3,1.3s-1,0.8-1.7,1.2
		c-0.6,0.4-1.3,0.6-2.1,0.9c-0.8,0.2-1.6,0.3-2.6,0.3c-0.7,0-1.4-0.1-2.2-0.3c-0.7-0.2-1.4-0.5-2-1c-0.6-0.4-1.1-1-1.5-1.8
		C235.2,434.2,235,433.3,235,432.3z"/>
	<path fill="#2D366F" d="M261.8,437.5l2.9-21.3l-2.3-1.3l0.4-2l7.6-1.2l1.1,0.5l-0.4,4.6c0.5-0.8,1.1-1.4,1.7-2.1
		c0.6-0.6,1.3-1.2,2-1.6c0.7-0.5,1.5-0.8,2.3-1.1c0.8-0.3,1.6-0.4,2.5-0.4c0.8,0,1.6,0.1,2.3,0.3c0.7,0.2,1.3,0.6,1.8,1.1
		s0.9,1.2,1.2,2.1c0.3,0.8,0.4,1.9,0.4,3.1c0,0.4,0,0.9-0.1,1.5c-0.1,0.6-0.2,1.3-0.3,2.1c-0.1,0.7-0.2,1.5-0.4,2.2
		c-0.2,0.7-0.3,1.4-0.4,2.1c-0.1,0.6-0.2,1.1-0.3,1.7c-0.1,0.6-0.2,1.2-0.3,1.8c-0.1,0.6-0.2,1.1-0.2,1.7c-0.1,0.5-0.1,1-0.1,1.5
		s0.1,0.9,0.2,1.1c0.2,0.2,0.3,0.3,0.5,0.3s0.5-0.1,0.8-0.2s0.7-0.4,1.2-0.8l0.6,1.5c-0.1,0.2-0.3,0.4-0.6,0.8
		c-0.3,0.3-0.8,0.7-1.3,1c-0.5,0.3-1.2,0.7-1.9,0.9s-1.5,0.4-2.5,0.4c-0.9,0-1.6-0.1-2.1-0.3s-1-0.5-1.3-0.8
		c-0.3-0.3-0.5-0.7-0.6-1.2s-0.1-0.9-0.1-1.3c0-0.4,0-0.8,0.1-1.3s0.1-1.1,0.2-1.6c0.1-0.6,0.2-1.2,0.3-1.8s0.2-1.3,0.4-1.9
		c0.1-0.6,0.2-1.3,0.4-2c0.1-0.7,0.2-1.5,0.3-2.2c0.1-0.8,0.2-1.5,0.3-2.3c0.1-0.8,0.1-1.5,0.1-2.1s-0.1-1.2-0.1-1.6
		c-0.1-0.4-0.2-0.7-0.4-1c-0.2-0.2-0.4-0.4-0.6-0.5s-0.5-0.1-0.8-0.1c-0.5,0-0.9,0.1-1.5,0.4c-0.5,0.3-1,0.7-1.6,1.1
		c-0.5,0.5-1,1-1.5,1.7c-0.5,0.6-0.9,1.3-1.3,2l-2.2,16.3h-6.4V437.5z"/>
	<path fill="#2D366F" d="M296.7,438c-1.3,0-2.5-0.2-3.5-0.7s-1.7-1.2-2.3-2s-1-1.8-1.3-3s-0.4-2.4-0.4-3.7c0-1.4,0.1-2.7,0.4-4.1
		c0.3-1.4,0.7-2.7,1.2-3.9c0.5-1.2,1.2-2.4,2-3.5c0.8-1.1,1.8-2,2.9-2.8s2.3-1.4,3.7-1.9c1.4-0.4,2.9-0.7,4.6-0.7
		c0.4,0,0.8,0,1.2,0.1c0.4,0,0.8,0.1,1.2,0.2l1.1-7.3l-3.3-1l0.4-1.8l8.7-0.9l1.2,0.6l-4.5,31c-0.1,0.5-0.1,1,0.1,1.3
		c0.1,0.3,0.3,0.5,0.7,0.5c0.2,0,0.5-0.1,0.8-0.2s0.7-0.4,1.3-0.8l0.6,1.5c-0.1,0.1-0.3,0.4-0.7,0.7c-0.3,0.3-0.7,0.7-1.2,1
		c-0.5,0.4-1.1,0.7-1.8,0.9c-0.7,0.3-1.4,0.4-2.3,0.4c-1.3,0-2.2-0.3-2.7-0.9c-0.6-0.6-0.9-1.5-0.9-2.7c-0.3,0.4-0.7,0.9-1.2,1.3
		c-0.5,0.4-1,0.8-1.6,1.2c-0.6,0.3-1.3,0.6-2,0.9C298.4,437.9,297.6,438,296.7,438z M303.5,431.6l2.4-16.3c-0.7-0.3-1.6-0.4-2.5-0.4
		s-1.8,0.2-2.5,0.6s-1.4,0.9-1.9,1.6c-0.5,0.7-1,1.5-1.4,2.4s-0.7,1.9-0.9,2.9c-0.2,1-0.4,2-0.5,3.1c-0.1,1-0.2,2-0.2,3
		c0,1.9,0.3,3.4,0.9,4.4s1.4,1.5,2.4,1.5c0.4,0,0.9-0.1,1.3-0.2c0.4-0.2,0.8-0.4,1.2-0.6c0.4-0.2,0.7-0.5,1-0.9
		C303.1,432.3,303.3,431.9,303.5,431.6z"/>
</g>
</svg>
