<?xml version="1.0" encoding="utf-8"?>
<!-- Generator: Adobe Illustrator 19.1.0, SVG Export Plug-In . SVG Version: 6.00 Build 0)  -->
<!DOCTYPE svg PUBLIC "-//W3C//DTD SVG 1.1//EN" "http://www.w3.org/Graphics/SVG/1.1/DTD/svg11.dtd">
<svg version="1.1" id="Layer_1" xmlns="http://www.w3.org/2000/svg" xmlns:xlink="http://www.w3.org/1999/xlink" x="0px" y="0px"
	 viewBox="0 0 383 72" enable-background="new 0 0 383 72" xml:space="preserve">
<g>
	<rect x="4.1" y="6.4" width="148.1" height="56.4"/>
	<g>
		<g>
			<g>
				<path fill="#FFFFFF" d="M79.7,38.5v13h-7.9v-13L59.4,17.3h7c0.7,0,1.2,0.2,1.6,0.5c0.4,0.3,0.7,0.7,1,1.2l4.8,9.9
					c0.4,0.8,0.8,1.5,1.1,2.2c0.3,0.7,0.6,1.3,0.9,2c0.2-0.7,0.5-1.3,0.8-2c0.3-0.7,0.7-1.4,1.1-2.2l4.8-9.9
					c0.1-0.2,0.2-0.4,0.4-0.6c0.2-0.2,0.4-0.4,0.6-0.6c0.2-0.2,0.5-0.3,0.7-0.4c0.3-0.1,0.6-0.2,0.9-0.2h7L79.7,38.5z"/>
				<path fill="#FFFFFF" d="M116.5,17.3v6.1h-14v8h10.7v5.9h-10.7v8.1h14v6.1h-22V17.3H116.5z"/>
				<path fill="#FFFFFF" d="M141,24.2c-0.2,0.4-0.5,0.7-0.7,0.8c-0.3,0.2-0.6,0.3-1,0.3c-0.4,0-0.7-0.1-1.2-0.3
					c-0.4-0.2-0.9-0.5-1.4-0.8c-0.5-0.3-1.1-0.5-1.8-0.8c-0.7-0.2-1.4-0.3-2.3-0.3c-1.5,0-2.6,0.3-3.3,1c-0.7,0.6-1.1,1.5-1.1,2.6
					c0,0.7,0.2,1.3,0.7,1.7c0.4,0.5,1,0.8,1.7,1.2c0.7,0.3,1.5,0.6,2.4,0.9c0.9,0.3,1.8,0.6,2.8,0.9c1,0.3,1.9,0.7,2.8,1.2
					c0.9,0.5,1.7,1,2.4,1.7c0.7,0.7,1.3,1.6,1.7,2.6c0.4,1,0.7,2.2,0.7,3.6c0,1.6-0.3,3.1-0.8,4.4c-0.5,1.4-1.3,2.6-2.4,3.6
					c-1,1-2.3,1.8-3.8,2.4c-1.5,0.6-3.3,0.9-5.2,0.9c-1.1,0-2.1-0.1-3.2-0.3c-1.1-0.2-2.2-0.5-3.2-0.9c-1-0.4-2-0.9-2.9-1.4
					c-0.9-0.5-1.7-1.2-2.4-1.8l2.3-3.7c0.2-0.3,0.4-0.5,0.7-0.7c0.3-0.2,0.6-0.3,1-0.3c0.5,0,0.9,0.1,1.4,0.4c0.5,0.3,1,0.6,1.6,1
					c0.6,0.4,1.3,0.7,2.1,1c0.8,0.3,1.7,0.4,2.8,0.4c1.4,0,2.6-0.3,3.4-0.9c0.8-0.6,1.2-1.6,1.2-3c0-0.8-0.2-1.4-0.7-1.9
					c-0.4-0.5-1-0.9-1.7-1.2c-0.7-0.3-1.5-0.6-2.4-0.9c-0.9-0.2-1.8-0.5-2.8-0.8c-1-0.3-1.9-0.7-2.8-1.1c-0.9-0.4-1.7-1-2.4-1.8
					c-0.7-0.7-1.3-1.6-1.7-2.7c-0.4-1.1-0.7-2.4-0.7-4c0-1.3,0.3-2.5,0.8-3.8c0.5-1.2,1.3-2.3,2.3-3.3c1-1,2.2-1.7,3.7-2.3
					c1.5-0.6,3.1-0.9,5-0.9c1,0,2.1,0.1,3.1,0.2c1,0.2,1.9,0.4,2.8,0.7c0.9,0.3,1.7,0.7,2.5,1.1c0.8,0.4,1.5,0.9,2.1,1.5L141,24.2z"
					/>
				<path fill="#6D6E71" d="M162.2,17.3h6.7c0.7,0,1.3,0.2,1.7,0.5c0.5,0.3,0.8,0.7,0.9,1.2l4.7,17.8c0.2,0.6,0.3,1.2,0.5,1.9
					c0.2,0.7,0.3,1.3,0.4,2.1c0.2-0.7,0.3-1.4,0.5-2.1c0.2-0.6,0.4-1.3,0.5-1.8l5.5-17.8c0.1-0.4,0.4-0.8,0.9-1.2
					c0.5-0.4,1-0.5,1.7-0.5h2.3c0.7,0,1.3,0.2,1.7,0.5c0.4,0.3,0.8,0.7,0.9,1.3l5.5,17.8c0.2,0.5,0.4,1.1,0.5,1.7s0.4,1.3,0.5,2
					c0.1-0.7,0.3-1.3,0.4-2c0.1-0.6,0.3-1.2,0.4-1.8l4.7-17.8c0.1-0.5,0.4-0.9,0.9-1.2c0.5-0.3,1-0.5,1.7-0.5h6.2l-10.6,34.2h-7.2
					l-6.4-21.2c-0.1-0.3-0.2-0.7-0.3-1.1c-0.1-0.4-0.2-0.8-0.3-1.2c-0.1,0.4-0.2,0.9-0.3,1.2c-0.1,0.4-0.2,0.8-0.3,1.1l-6.5,21.2
					h-7.2L162.2,17.3z"/>
				<path fill="#6D6E71" d="M237,17.3v6.1h-14v8h10.7v5.9H223v8.1h14v6.1h-22V17.3H237z"/>
				<path fill="#6D6E71" d="M273.6,42.6c0.2,0,0.4,0,0.6,0.1c0.2,0.1,0.4,0.2,0.5,0.4l3.1,3.3c-1.4,1.8-3.1,3.2-5.2,4.1
					c-2.1,0.9-4.5,1.4-7.4,1.4c-2.6,0-4.9-0.4-7-1.3c-2.1-0.9-3.8-2.1-5.2-3.7c-1.4-1.6-2.5-3.4-3.3-5.5c-0.8-2.1-1.2-4.5-1.2-7
					c0-2.5,0.4-4.9,1.3-7c0.9-2.1,2.1-4,3.7-5.5c1.6-1.5,3.5-2.8,5.6-3.6c2.2-0.9,4.6-1.3,7.2-1.3c1.3,0,2.5,0.1,3.6,0.3
					c1.1,0.2,2.2,0.5,3.2,0.9c1,0.4,1.9,0.9,2.7,1.4c0.8,0.6,1.6,1.2,2.2,1.8l-2.7,3.6c-0.2,0.2-0.4,0.4-0.6,0.6
					c-0.2,0.2-0.6,0.3-1,0.3c-0.3,0-0.5-0.1-0.8-0.2c-0.2-0.1-0.5-0.3-0.8-0.5c-0.3-0.2-0.6-0.4-0.9-0.6c-0.3-0.2-0.7-0.4-1.2-0.6
					c-0.5-0.2-1-0.3-1.6-0.5c-0.6-0.1-1.3-0.2-2.2-0.2c-1.4,0-2.8,0.3-3.9,0.8c-1.2,0.5-2.2,1.2-3.1,2.2c-0.9,0.9-1.5,2.1-2,3.4
					c-0.5,1.3-0.7,2.9-0.7,4.5c0,1.8,0.2,3.3,0.7,4.7c0.5,1.4,1.1,2.5,1.9,3.4c0.8,0.9,1.8,1.6,2.9,2.1c1.1,0.5,2.3,0.7,3.5,0.7
					c0.7,0,1.4,0,2-0.1c0.6-0.1,1.1-0.2,1.7-0.4c0.5-0.2,1-0.4,1.5-0.7c0.5-0.3,0.9-0.6,1.4-1c0.2-0.2,0.4-0.3,0.6-0.4
					C273.2,42.7,273.4,42.6,273.6,42.6z"/>
				<path fill="#6D6E71" d="M315.3,34.4c0,2.5-0.4,4.8-1.3,6.9c-0.9,2.1-2.1,4-3.6,5.5c-1.5,1.6-3.4,2.8-5.6,3.7
					c-2.2,0.9-4.6,1.3-7.3,1.3s-5.1-0.4-7.3-1.3c-2.2-0.9-4.1-2.1-5.6-3.7c-1.6-1.6-2.8-3.4-3.6-5.5c-0.9-2.1-1.3-4.4-1.3-6.9
					s0.4-4.8,1.3-6.9c0.9-2.1,2.1-4,3.6-5.5c1.6-1.6,3.4-2.8,5.6-3.7c2.2-0.9,4.6-1.3,7.3-1.3s5.1,0.4,7.3,1.3
					c2.2,0.9,4,2.1,5.6,3.7c1.5,1.6,2.7,3.4,3.6,5.5C314.8,29.6,315.3,31.9,315.3,34.4z M307.1,34.4c0-1.7-0.2-3.2-0.7-4.6
					c-0.4-1.4-1.1-2.5-1.9-3.4c-0.8-0.9-1.8-1.7-3-2.2c-1.2-0.5-2.5-0.8-4.1-0.8c-1.5,0-2.9,0.2-4.1,0.8c-1.2,0.5-2.2,1.2-3,2.2
					c-0.8,0.9-1.4,2.1-1.9,3.4c-0.4,1.4-0.7,2.9-0.7,4.6c0,1.7,0.2,3.2,0.7,4.6c0.4,1.4,1.1,2.5,1.9,3.4c0.8,0.9,1.8,1.7,3,2.1
					c1.2,0.5,2.6,0.7,4.1,0.7c1.5,0,2.9-0.2,4.1-0.7c1.2-0.5,2.2-1.2,3-2.1c0.8-0.9,1.4-2.1,1.9-3.4
					C306.9,37.6,307.1,36.1,307.1,34.4z"/>
				<path fill="#6D6E71" d="M350.1,34.4c0,2.5-0.4,4.7-1.3,6.8c-0.9,2.1-2.1,3.9-3.6,5.4c-1.5,1.5-3.4,2.7-5.6,3.6
					c-2.2,0.9-4.6,1.3-7.3,1.3h-13.3V17.3h13.3c2.7,0,5.1,0.4,7.3,1.3c2.2,0.9,4,2,5.6,3.6c1.5,1.5,2.7,3.3,3.6,5.4
					C349.7,29.6,350.1,31.9,350.1,34.4z M342,34.4c0-1.7-0.2-3.2-0.7-4.6c-0.4-1.4-1.1-2.5-1.9-3.5c-0.8-0.9-1.8-1.7-3-2.2
					c-1.2-0.5-2.5-0.8-4.1-0.8h-5.3v22h5.3c1.5,0,2.9-0.3,4.1-0.8c1.2-0.5,2.2-1.2,3-2.2c0.8-0.9,1.5-2.1,1.9-3.5
					C341.8,37.6,342,36.1,342,34.4z"/>
				<path fill="#6D6E71" d="M375.9,17.3v6.1h-14v8h10.7v5.9h-10.7v8.1h14v6.1h-22V17.3H375.9z"/>
			</g>
		</g>
	</g>
	<g>
		<g>
			<polygon points="33.2,27.2 31.3,32.2 25.9,32.5 30.1,36 28.7,41.2 33.2,38.3 37.8,41.2 36.4,36 40.6,32.5 35.2,32.2 			"/>
			<path fill="#FFFFFF" d="M49.5,30.7c0.5,0,1-0.4,1-1v-4.3c0-0.5-0.4-1-1-1h-6.2v-6.2c0-0.5-0.4-1-1-1h-4.3c-0.5,0-1,0.4-1,1v6.2
				h-7.7v-6.2c0-0.5-0.4-1-1-1h-4.3c-0.5,0-1,0.4-1,1v6.2H17c-0.5,0-1,0.4-1,1v4.3c0,0.5,0.4,1,1,1h6.2v7.7H17c-0.5,0-1,0.4-1,1v4.3
				c0,0.5,0.4,1,1,1h6.2v6.2c0,0.5,0.4,1,1,1h4.3c0.5,0,1-0.4,1-1v-6.2h7.7v6.2c0,0.5,0.4,1,1,1h4.3c0.5,0,1-0.4,1-1v-6.2h6.2
				c0.5,0,1-0.4,1-1v-4.3c0-0.5-0.4-1-1-1h-6.2v-7.7H49.5z M36.4,36l1.4,5.2l-4.5-2.9l-4.5,2.9l1.4-5.2l-4.2-3.4l5.4-0.3l2-5l2,5
				l5.4,0.3L36.4,36z"/>
		</g>
	</g>
</g>
<g>
</g>
<g>
</g>
<g>
</g>
<g>
</g>
<g>
</g>
<g>
</g>
</svg>
