<?xml version="1.0" encoding="utf-8"?>
<!-- Generator: Adobe Illustrator 19.1.0, SVG Export Plug-In . SVG Version: 6.00 Build 0)  -->
<!DOCTYPE svg PUBLIC "-//W3C//DTD SVG 1.1//EN" "http://www.w3.org/Graphics/SVG/1.1/DTD/svg11.dtd">
<svg version="1.1" id="Layer_1" xmlns="http://www.w3.org/2000/svg" xmlns:xlink="http://www.w3.org/1999/xlink" x="0px" y="0px"
	 viewBox="-284 372 42.8 50" style="enable-background:new -284 372 42.8 50;" xml:space="preserve">
<style type="text/css">
	.st0{display:none;}
	.st1{display:inline;}
	.st2{fill:none;stroke:#000000;stroke-width:2.789;stroke-linecap:round;stroke-linejoin:round;stroke-miterlimit:10;}
	.st3{fill:none;stroke:#000000;stroke-width:2.8578;stroke-linecap:round;stroke-linejoin:round;stroke-miterlimit:10;}
	.st4{fill:none;stroke:#000000;stroke-width:2.8895;stroke-linecap:round;stroke-linejoin:round;stroke-miterlimit:10;}
	.st5{fill:none;stroke:#000000;stroke-width:2.6669;stroke-linecap:round;stroke-linejoin:round;stroke-miterlimit:10;}
	.st6{fill:none;stroke:#000000;stroke-width:3;stroke-linecap:round;stroke-linejoin:round;stroke-miterlimit:10;}
	.st7{fill:none;stroke:#000000;stroke-width:2.7581;stroke-linecap:round;stroke-linejoin:round;stroke-miterlimit:10;}
	.st8{fill:none;stroke:#000000;stroke-width:2.5;stroke-linecap:round;stroke-linejoin:round;stroke-miterlimit:10;}
	.st9{fill:#FEBD18;}
	.st10{stroke:#FFFFFF;stroke-width:2;stroke-miterlimit:10;}
	.st11{fill:none;stroke:#FFFFFF;stroke-width:2;stroke-linecap:round;stroke-linejoin:round;stroke-miterlimit:10;}
	.st12{fill:none;stroke:#231F20;stroke-width:2;stroke-linecap:round;stroke-linejoin:round;stroke-miterlimit:10;}
	.st13{fill:none;stroke:#231F20;stroke-width:2.0813;stroke-linecap:round;stroke-linejoin:round;stroke-miterlimit:10;}
	.st14{fill:#529FD7;}
	.st15{fill:#00B4D5;}
	.st16{fill:none;stroke:#FFFFFF;stroke-width:1.5786;stroke-linecap:round;stroke-linejoin:round;stroke-miterlimit:10;}
	.st17{fill:#03A5C3;}
	.st18{fill:none;stroke:#231F20;stroke-width:1.9022;stroke-linecap:round;stroke-linejoin:round;stroke-miterlimit:10;}
	.st19{fill:#53C5D0;}
	.st20{fill:#FEDD83;}
	.st21{fill:#FFFFFF;}
	.st22{fill:none;stroke:#DFC224;stroke-miterlimit:10;}
	.st23{fill:#00B4D5;stroke:#FEBD18;stroke-width:2;stroke-miterlimit:10;}
	.st24{fill:#FAED14;}
	.st25{fill:none;}
</style>
<g id="Layer_6" class="st0">
	<g class="st1">
		<path class="st2" d="M-526,522.5c-8.8,8.9-21.1,15.2-47,15.2c-26,0-41.6-6.3-47-15.2c5.5-7.6,21.1-15.2,47-15.2
			S-534.8,513.6-526,522.5z"/>
		<circle class="st3" cx="-572.1" cy="522.4" r="15.1"/>
		<path class="st4" d="M-598,495c0,9.9-5,18-11.1,18"/>
		<path class="st4" d="M-582.8,490.7c0,9.9-5,18-11.1,18"/>
		<path class="st4" d="M-564.3,489c0,9.9-5,18-11.1,18"/>
		<path class="st4" d="M-548.2,490.2c0,9.9-5,18-11.1,18"/>
		<path class="st5" d="M-532.2,495.5c0,8.5-5,15.3-11.1,15.3"/>
		<path class="st5" d="M-580,515.7c-1,2-1.4,9,0.5,8.1c-1.5-2.4,1.2-8,1.2-8"/>
	</g>
	<g class="st1">
		<path id="dollar" class="st6" d="M-370.9,453c-18.7,0-34,4.7-34,14.7s20.9,6,28.7,6c9.3,0,22.7,0,20.7,14
			c-2,13.9-49.3,13.3-51.3,6.7"/>
		<path class="st7" d="M-386.9,446.7c0,31.5,5.3,52,10,57"/>
	</g>
</g>
<g id="Layer_5">
	<g>
		<polygon class="st8" points="-232.8,405.6 -234,376.6 -185.7,375.4 -185.1,403.8 -167,418.3 -220.1,420.1 		"/>
		<polygon class="st8" points="-227.4,400.8 -228.6,382.7 -191.1,381.5 -191.1,402 		"/>
		<polyline class="st8" points="-222.2,389.6 -219.8,392 -222.2,394.4 		"/>
		<line class="st8" x1="-223.2" y1="408.4" x2="-188.8" y2="407.7"/>
		<line class="st8" x1="-220.2" y1="413.4" x2="-183" y2="412.9"/>
	</g>
</g>
<g id="Layer_4">
	<g id="award">
		<polyline class="st8" points="-148.9,399.3 -154.8,418.1 -150.6,416.7 -148,420.2 -141.6,401.3 		"/>
		<polyline class="st8" points="-140.2,401.3 -134.1,420.2 -131.2,416.8 -127.2,418.4 -132.7,399.3 		"/>
		<path class="st8" d="M-140.2,375.2l1.6-0.8c0.8-0.4,1.9-0.2,2.4,0.6l1,1.5c0.3,0.5,0.9,0.8,1.5,0.8l1.8,0.1c1,0,1.7,0.8,1.8,1.8
			l0.1,1.8c0,0.6,0.3,1.1,0.8,1.5l1.5,1c0.8,0.5,1.1,1.6,0.6,2.4l-0.8,1.6c-0.3,0.5-0.3,1.2,0,1.7l0.8,1.6c0.4,0.8,0.2,1.9-0.6,2.4
			l-1.5,1c-0.5,0.3-0.8,0.9-0.8,1.5l-0.1,1.8c0,1-0.8,1.7-1.8,1.8l-1.8,0.1c-0.6,0-1.1,0.3-1.5,0.8l-1,1.5c-0.5,0.8-1.6,1.1-2.4,0.6
			l-1.6-0.8c-0.5-0.3-1.2-0.3-1.7,0l-1.6,0.8c-0.8,0.4-1.9,0.2-2.4-0.6l-1-1.5c-0.3-0.5-0.9-0.8-1.5-0.8l-1.8-0.1
			c-1,0-1.7-0.8-1.8-1.8l-0.1-1.8c0-0.6-0.3-1.1-0.8-1.5l-1.5-1c-0.8-0.5-1.1-1.6-0.6-2.4l0.8-1.6c0.3-0.5,0.3-1.2,0-1.7l-0.8-1.6
			c-0.4-0.8-0.2-1.9,0.6-2.4l1.5-1c0.5-0.3,0.8-0.9,0.8-1.5l0.1-1.8c0-1,0.8-1.7,1.8-1.8l1.8-0.1c0.6,0,1.1-0.3,1.5-0.8l1-1.5
			c0.5-0.8,1.6-1.1,2.4-0.6l1.6,0.8C-141.4,375.5-140.8,375.5-140.2,375.2z"/>
	</g>
</g>
<g id="Layer_3">
	<polygon id="check" class="st8" points="-411,400.6 -405.4,393.1 -391.3,408.1 -354.5,374.2 -350.7,381.5 -391.8,419.3 	"/>
</g>
<g id="Layer_2">
	<g id="apply">
		<polygon class="st8" points="-279.5,376.3 -245,375.2 -243.5,418.3 -282,419.5 		"/>
		<line class="st8" x1="-275.6" y1="383.9" x2="-251.1" y2="383.9"/>
		<line class="st8" x1="-276.2" y1="389.8" x2="-251.1" y2="389.8"/>
		<line class="st8" x1="-276.2" y1="396.2" x2="-251.1" y2="396.2"/>
		<line class="st8" x1="-276.2" y1="402.6" x2="-251.1" y2="402.6"/>
		<line class="st8" x1="-276.2" y1="409" x2="-262.8" y2="409"/>
		<polyline class="st8" points="-258.7,409.6 -256.9,413.1 -248.8,406.7 		"/>
	</g>
</g>
<g id="Layer_1_1_">
	<g>
		<circle class="st8" cx="-320.6" cy="389.4" r="15.8"/>
		<path class="st8" d="M-307.1,399.1l15,15c1.5,1.5,1.9,3.7,0.7,4.9l0,0c-1.1,1.1-3.3,0.8-4.9-0.7l-15-15"/>
		<circle class="st8" cx="-320.6" cy="389.4" r="9.6"/>
	</g>
</g>
<g id="Layer_7">
	<g>
		<path class="st9" d="M-312.7-61.8c-14.3,0-26,11.7-26,26s11.7,26,26,26c14.3,0,26-11.7,26-26S-298.3-61.8-312.7-61.8z"/>
	</g>
	<g>
		<circle class="st10" cx="-195.5" cy="326.2" r="27"/>
		<g>
			<polygon class="st11" points="-213.6,331.4 -213.6,312.3 -185.9,312.3 -185.5,331.4 -176.8,337.6 -208.1,337.6 			"/>
			<rect x="-209.7" y="316.5" class="st11" width="20.1" height="11.7"/>
			<polyline class="st11" points="-205.5,320.9 -203.8,322.5 -205.5,324.1 			"/>
			<line class="st11" x1="-206" y1="334.4" x2="-187.1" y2="334.4"/>
			<line class="st11" x1="-208" y1="331.4" x2="-189.2" y2="331.4"/>
		</g>
	</g>
	<g>
		<circle class="st10" cx="-381.8" cy="326.2" r="27"/>
		<polygon id="check_1_" class="st11" points="-401.7,328.9 -398.2,324.9 -389.5,333.4 -366.8,313.4 -363.7,317.7 -389.6,341.5 		
			"/>
	</g>
	<g>
		<circle class="st10" cx="-319.7" cy="326.2" r="27"/>
		<g>
			<g>
				<circle class="st11" cx="-324.6" cy="320.1" r="10.7"/>
				<path class="st11" d="M-315.6,326.7l10,10.2c1,1,1.2,2.5,0.4,3.3l0,0c-0.8,0.8-2.2,0.5-3.3-0.5l-10-10.2"/>
			</g>
			<circle class="st11" cx="-324.6" cy="320.1" r="6.5"/>
		</g>
	</g>
	<g>
		<circle class="st10" cx="-257.6" cy="326.2" r="27"/>
		<g id="apply_1_">
			<rect x="-272.1" y="310.1" class="st11" width="28.4" height="31.9"/>
			<line class="st11" x1="-267.3" y1="316.5" x2="-249.2" y2="316.5"/>
			<line class="st11" x1="-267.8" y1="320.9" x2="-249.2" y2="320.9"/>
			<line class="st11" x1="-267.8" y1="325.6" x2="-249.2" y2="325.6"/>
			<line class="st11" x1="-267.8" y1="330.3" x2="-249.2" y2="330.3"/>
			<line class="st11" x1="-267.8" y1="335.1" x2="-257.8" y2="335.1"/>
			<polyline class="st11" points="-254.8,335.5 -253.5,338.1 -247.5,333.4 			"/>
		</g>
	</g>
	<g>
		<circle class="st10" cx="-133.4" cy="326.2" r="27"/>
		<g id="award_1_">
			<polyline class="st11" points="-139.3,327 -143.8,341.3 -140.6,340.3 -138.7,342.9 -133.7,328.5 			"/>
			<polyline class="st11" points="-132.7,328.5 -128,342.9 -125.9,340.3 -122.8,341.5 -127,327 			"/>
			<path class="st11" d="M-132.7,308.7l1.2-0.6c0.6-0.3,1.4-0.1,1.8,0.5l0.7,1.2c0.2,0.4,0.7,0.6,1.1,0.6l1.4,0.1
				c0.7,0,1.3,0.6,1.3,1.3l0.1,1.4c0,0.5,0.3,0.9,0.6,1.1l1.2,0.7c0.6,0.4,0.8,1.2,0.5,1.8l-0.6,1.2c-0.2,0.4-0.2,0.9,0,1.3l0.6,1.2
				c0.3,0.6,0.1,1.4-0.5,1.8l-1.2,0.7c-0.4,0.2-0.6,0.7-0.6,1.1l-0.1,1.4c0,0.7-0.6,1.3-1.3,1.3l-1.4,0.1c-0.5,0-0.9,0.3-1.1,0.6
				l-0.7,1.2c-0.4,0.6-1.2,0.8-1.8,0.5l-1.2-0.6c-0.4-0.2-0.9-0.2-1.3,0l-1.2,0.6c-0.6,0.3-1.4,0.1-1.8-0.5l-0.7-1.2
				c-0.2-0.4-0.7-0.6-1.1-0.6l-1.4-0.1c-0.7,0-1.3-0.6-1.3-1.3l-0.1-1.4c0-0.5-0.3-0.9-0.6-1.1l-1.2-0.7c-0.6-0.4-0.8-1.2-0.5-1.8
				l0.6-1.2c0.2-0.4,0.2-0.9,0-1.3l-0.6-1.2c-0.3-0.6-0.1-1.4,0.5-1.8l1.2-0.7c0.4-0.2,0.6-0.7,0.6-1.1l0.1-1.4
				c0-0.7,0.6-1.3,1.3-1.3l1.4-0.1c0.5,0,0.9-0.3,1.1-0.6l0.7-1.2c0.4-0.6,1.2-0.8,1.8-0.5l1.2,0.6
				C-133.6,308.9-133.1,308.9-132.7,308.7z"/>
		</g>
	</g>
	<g>
		<circle class="st12" cx="-192.2" cy="256.2" r="27"/>
		<g>
			<polygon class="st13" points="-210.2,261.4 -210.2,242.3 -182.6,242.3 -182.2,261.4 -173.5,267.6 -204.7,267.6 			"/>
			<rect x="-206.3" y="246.5" class="st13" width="20.1" height="11.7"/>
			<polyline class="st13" points="-202.1,250.9 -200.5,252.5 -202.1,254.1 			"/>
			<line class="st13" x1="-202.6" y1="264.4" x2="-183.8" y2="264.4"/>
			<line class="st13" x1="-204.7" y1="261.4" x2="-185.9" y2="261.4"/>
		</g>
	</g>
	<g>
		<circle class="st12" cx="-378.4" cy="256.2" r="27"/>
		<polygon id="check_2_" class="st12" points="-398.4,258.9 -394.8,254.9 -386.2,263.4 -363.4,243.4 -360.3,247.7 -386.3,271.5 		
			"/>
	</g>
	<circle class="st14" cx="-375.7" cy="184.9" r="27"/>
	<g>
		<path class="st15" d="M-234.7,94.9c-15.4,0-28-12.6-28-28s12.6-28,28-28s28,12.6,28,28S-219.3,94.9-234.7,94.9z"/>
		<path class="st9" d="M-234.7,39.9c14.9,0,27,12.1,27,27s-12.1,27-27,27s-27-12.1-27-27S-249.6,39.9-234.7,39.9 M-234.7,37.9
			c-16,0-29,13-29,29s13,29,29,29s29-13,29-29S-218.7,37.9-234.7,37.9L-234.7,37.9z"/>
	</g>
	<polygon id="check_3_" class="st16" points="-363.1,125.2 -359.5,121.3 -350.8,129.8 -328.1,109.8 -325,114 -350.9,137.9 	"/>
	<g>
		<circle class="st12" cx="-316.3" cy="256.2" r="27"/>
		<g>
			<g>
				<circle class="st12" cx="-321.3" cy="250.1" r="10.7"/>
				<path class="st12" d="M-312.2,256.7l10,10.2c1,1,1.2,2.5,0.4,3.3l0,0c-0.8,0.8-2.2,0.5-3.3-0.5l-10-10.2"/>
			</g>
			<circle class="st12" cx="-321.3" cy="250.1" r="6.5"/>
		</g>
	</g>
	<g>
		<path class="st15" d="M-175.9,99.4c-15.4,0-28-12.6-28-28s12.6-28,28-28s28,12.6,28,28S-160.4,99.4-175.9,99.4z"/>
		<path class="st9" d="M-175.9,44.4c14.9,0,27,12.1,27,27s-12.1,27-27,27s-27-12.1-27-27S-190.8,44.4-175.9,44.4 M-175.9,42.4
			c-16,0-29,13-29,29s13,29,29,29s29-13,29-29S-159.9,42.4-175.9,42.4L-175.9,42.4z"/>
	</g>
	<path class="st17" d="M-156.6,90.5c-10.5,10.5-27.6,10.5-38.2,0s-10.5-27.6,0-38.2"/>
	<g>
		<circle class="st12" cx="-254.2" cy="256.2" r="27"/>
		<g id="apply_2_">
			<rect x="-268.7" y="240.1" class="st12" width="28.4" height="31.9"/>
			<line class="st12" x1="-264" y1="246.5" x2="-245.9" y2="246.5"/>
			<line class="st12" x1="-264.4" y1="250.9" x2="-245.9" y2="250.9"/>
			<line class="st12" x1="-264.4" y1="255.6" x2="-245.9" y2="255.6"/>
			<line class="st12" x1="-264.4" y1="260.3" x2="-245.9" y2="260.3"/>
			<line class="st12" x1="-264.4" y1="265.1" x2="-254.5" y2="265.1"/>
			<polyline class="st12" points="-251.5,265.5 -250.2,268.1 -244.2,263.4 			"/>
		</g>
	</g>
	<g>
		<circle class="st12" cx="-130.1" cy="256.2" r="27"/>
		<g id="award_2_">
			<polyline class="st18" points="-136,257 -140.5,271.3 -137.3,270.3 -135.3,272.9 -130.4,258.5 			"/>
			<polyline class="st18" points="-129.4,258.5 -124.7,272.9 -122.5,270.3 -119.5,271.5 -123.7,257 			"/>
			<path class="st18" d="M-129.4,238.7l1.2-0.6c0.6-0.3,1.4-0.1,1.8,0.5l0.7,1.2c0.2,0.4,0.7,0.6,1.1,0.6l1.4,0.1
				c0.7,0,1.3,0.6,1.3,1.3l0.1,1.4c0,0.5,0.3,0.9,0.6,1.1l1.2,0.7c0.6,0.4,0.8,1.2,0.5,1.8l-0.6,1.2c-0.2,0.4-0.2,0.9,0,1.3l0.6,1.2
				c0.3,0.6,0.1,1.4-0.5,1.8l-1.2,0.7c-0.4,0.2-0.6,0.7-0.6,1.1l-0.1,1.4c0,0.7-0.6,1.3-1.3,1.3l-1.4,0.1c-0.5,0-0.9,0.3-1.1,0.6
				l-0.7,1.2c-0.4,0.6-1.2,0.8-1.8,0.5l-1.2-0.6c-0.4-0.2-0.9-0.2-1.3,0l-1.2,0.6c-0.6,0.3-1.4,0.1-1.8-0.5l-0.7-1.2
				c-0.2-0.4-0.7-0.6-1.1-0.6l-1.4-0.1c-0.7,0-1.3-0.6-1.3-1.3l-0.1-1.4c0-0.5-0.3-0.9-0.6-1.1l-1.2-0.7c-0.6-0.4-0.8-1.2-0.5-1.8
				l0.6-1.2c0.2-0.4,0.2-0.9,0-1.3l-0.6-1.2c-0.3-0.6-0.1-1.4,0.5-1.8l1.2-0.7c0.4-0.2,0.6-0.7,0.6-1.1l0.1-1.4
				c0-0.7,0.6-1.3,1.3-1.3l1.4-0.1c0.5,0,0.9-0.3,1.1-0.6l0.7-1.2c0.4-0.6,1.2-0.8,1.8-0.5l1.2,0.6
				C-130.3,238.9-129.8,238.9-129.4,238.7z"/>
		</g>
	</g>
	<g>
		<path class="st19" d="M-371.1,156.9h-0.4v4.7h-8.9v-4.7h-0.4v4.7h-4.6l0,0h-4.7v-4.7h-0.4v4.7h-8.9v-4.7h-0.4v4.7h-4.6v0.4h4.6
			v8.9h-4.6v0.4h4.6v3.9v0.7v4h-4.6v0.4h4.6v8.9h-4.6v0.4h4.6v4.3v0.3v4.4h-4.6v0.4h4.6v8.9h-4.6v0.4h4.6v4.6h0.4v-4.6h8.9v4.6h0.4
			v-4.6h4.7l0,0h4.6v4.6h0.4v-4.6h8.9v4.6h0.4v-4.6h4.7v-0.4h-4.7V199h4.7v-0.4h-4.7v-4.4v-0.3v-4.3h4.7v-0.4h-4.7v-8.9h4.7v-0.4
			h-4.7v-4v-0.7v-3.9h4.7v-0.4h-4.7V162h4.7v-0.4h-4.7V156.9z M-380.4,162h8.9v8.9h-8.9V162z M-390.1,162h4.7l0,0h4.6v8.9h-4.6l0,0
			h-4.7V162z M-390.1,171.3h4.7l0,0h4.6v3.9v0.7v4h-4.6l0,0h-4.7v-4v-0.7V171.3z M-380.4,180.4h8.9v8.9h-8.9V180.4z M-390.1,180.4
			h4.7l0,0h4.6v8.9h-4.6l0,0h-4.7V180.4z M-399.4,162h8.9v8.9h-8.9V162z M-399.4,175.3v-3.9h8.9v3.9v0.7v4h-8.9v-4V175.3z
			 M-390.5,189.3h-8.9v-8.9h8.9V189.3z M-390.5,207.9h-8.9V199h8.9V207.9z M-390.5,198.6h-8.9v-4.4v-0.3v-4.3h8.9v4.3v0.3V198.6z
			 M-380.8,207.9h-4.6l0,0h-4.7V199h4.7l0,0h4.6V207.9z M-380.8,198.6h-4.6l0,0h-4.7v-4.4v-0.3v-4.3h4.7l0,0h4.6v4.3v0.3V198.6z
			 M-371.5,207.9h-8.9V199h8.9V207.9z M-371.5,194.3v4.4h-8.9v-4.4V194v-4.3h8.9v4.3V194.3z M-371.5,175.9v4h-8.9v-4v-0.7v-3.9h8.9
			v3.9V175.9z"/>
		<path class="st19" d="M-347,162v-0.4h-4.7v-4.7h-0.4v4.7h-8.9v-4.7h-0.4v4.7h-4.6v0.4h4.6v8.9h-4.6v0.4h4.6v3.9v0.7v4h-4.6v0.4
			h4.6v8.9h-4.6v0.4h4.6v4.3v0.3v4.4h-4.6v0.4h4.6v8.9h-4.6v0.4h4.6v4.6h0.4v-4.6h8.9v4.6h0.4v-4.6h4.7v-0.4h-4.7V199h4.7v-0.4h-4.7
			v-4.4v-0.3v-4.3h4.7v-0.4h-4.7v-8.9h4.7v-0.4h-4.7v-4v-0.7v-3.9h4.7v-0.4h-4.7V162H-347z M-361,162h8.9v8.9h-8.9V162z M-361,180.4
			h8.9v8.9h-8.9V180.4z M-352.1,207.9h-8.9V199h8.9V207.9z M-352.1,194.3v4.4h-8.9v-4.4V194v-4.3h8.9v4.3V194.3z M-352.1,175.9v4
			h-8.9v-4v-0.7v-3.9h8.9v3.9V175.9z"/>
	</g>
	<g>
		<rect x="-262.9" y="188.5" class="st14" width="7.9" height="8"/>
		<path class="st14" d="M-264.3,172c-0.8,1.8-1.5,3.8-1.9,5.8h1.9V172z"/>
		<rect x="-262.9" y="179.2" class="st14" width="7.9" height="7.9"/>
		<rect x="-262.9" y="170.2" class="st14" width="7.9" height="7.6"/>
		<rect x="-243.9" y="179.2" class="st14" width="7.9" height="7.9"/>
		<path class="st14" d="M-245.3,207.2h-7c2.2,1.1,4.5,2,7,2.5V207.2z"/>
		<rect x="-243.9" y="188.5" class="st14" width="7.9" height="8"/>
		<path class="st14" d="M-252.5,159.5h7.2v-2.6C-247.8,157.4-250.3,158.3-252.5,159.5z"/>
		<rect x="-253.6" y="179.2" class="st14" width="8.3" height="7.9"/>
		<path class="st14" d="M-264.3,179.2h-2.2c-0.2,1.3-0.3,2.7-0.3,4.1c0,1.3,0.1,2.6,0.3,3.8h2.2V179.2z"/>
		<path class="st14" d="M-266.2,188.5c0.4,2.1,1.1,4.1,1.9,6v-6H-266.2z"/>
		<path class="st14" d="M-255,161c-3,2.1-5.6,4.7-7.5,7.8h7.5V161z"/>
		<rect x="-253.6" y="188.5" class="st14" width="8.3" height="8"/>
		<path class="st14" d="M-215.2,187.1h2.2c0.2-1.3,0.3-2.5,0.3-3.8c0-1.4-0.1-2.7-0.3-4.1h-2.2V187.1z"/>
		<rect x="-253.6" y="170.2" class="st14" width="8.3" height="7.6"/>
		<rect x="-253.6" y="160.9" class="st14" width="8.3" height="7.9"/>
		<rect x="-243.9" y="170.2" class="st14" width="7.9" height="7.6"/>
		<rect x="-253.6" y="197.9" class="st14" width="8.3" height="7.9"/>
		<path class="st14" d="M-262.4,197.9c2,3,4.5,5.6,7.5,7.7v-7.7H-262.4z"/>
		<path class="st14" d="M-234.6,159.5h4h0.7h2.9c-2.4-1.3-4.9-2.2-7.6-2.7C-234.6,156.8-234.6,159.5-234.6,159.5z"/>
		<path class="st14" d="M-227.2,207.2h-2.7h-0.7h-4v2.6C-231.9,209.2-229.5,208.4-227.2,207.2z"/>
		<path class="st14" d="M-224.5,205.6c3-2,5.5-4.7,7.5-7.7h-7.5V205.6z"/>
		<polygon class="st14" points="-225.9,160.9 -229.9,160.9 -230.6,160.9 -234.6,160.9 -234.6,168.8 -230.6,168.8 -229.9,168.8 
			-225.9,168.8 		"/>
		<path class="st14" d="M-215.2,177.8h2c-0.4-2.1-1.1-4-2-5.9V177.8z"/>
		<rect x="-243.9" y="160.9" class="st14" width="7.9" height="7.9"/>
		<path class="st14" d="M-215.2,188.5v6.1c0.9-1.9,1.6-4,2-6.1H-215.2z"/>
		<path class="st14" d="M-243.9,159.5h7.9v-2.9c-1.2-0.2-2.5-0.3-3.8-0.3c-1.4,0-2.8,0.1-4.1,0.3
			C-243.9,156.6-243.9,159.5-243.9,159.5z"/>
		<polygon class="st14" points="-225.9,170.2 -229.9,170.2 -230.6,170.2 -234.6,170.2 -234.6,177.8 -230.6,177.8 -229.9,177.8 
			-225.9,177.8 		"/>
		<path class="st14" d="M-236,207.2h-7.9v2.8c1.4,0.2,2.7,0.3,4.1,0.3c1.3,0,2.5-0.1,3.8-0.3C-236,210-236,207.2-236,207.2z"/>
		<polygon class="st14" points="-225.9,179.2 -229.9,179.2 -230.6,179.2 -234.6,179.2 -234.6,187.1 -230.6,187.1 -229.9,187.1 
			-225.9,187.1 		"/>
		<rect x="-224.5" y="170.2" class="st14" width="7.9" height="7.6"/>
		<rect x="-224.5" y="188.5" class="st14" width="7.9" height="8"/>
		<rect x="-243.9" y="197.9" class="st14" width="7.9" height="7.9"/>
		<rect x="-224.5" y="179.2" class="st14" width="7.9" height="7.9"/>
		<polygon class="st14" points="-230.6,197.9 -234.6,197.9 -234.6,205.8 -230.6,205.8 -229.9,205.8 -225.9,205.8 -225.9,197.9 
			-229.9,197.9 		"/>
		<path class="st14" d="M-216.9,168.8c-2-3.1-4.6-5.8-7.6-7.8v7.8H-216.9z"/>
		<polygon class="st14" points="-225.9,188.5 -229.9,188.5 -230.6,188.5 -234.6,188.5 -234.6,196.5 -230.6,196.5 -229.9,196.5 
			-225.9,196.5 		"/>
	</g>
	<g>
		<rect x="-186" y="175.4" class="st14" width="8.9" height="8.9"/>
		<path class="st14" d="M-186.4,170.9v-0.7v-2.6c-1.2,2.3-2,4.7-2.5,7.3h2.5V170.9z"/>
		<path class="st14" d="M-177.1,157.3c-3.4,2.2-6.3,5.2-8.4,8.6h8.4V157.3z"/>
		<path class="st14" d="M-186,170.9v4h8.9v-4v-0.7v-3.9h-8.6c-0.1,0.2-0.2,0.4-0.3,0.5v3.4V170.9z"/>
		<path class="st14" d="M-177.1,193.6v-4.4v-0.3v-4.3h-8.9v4.3v0.3v3.7c0.1,0.2,0.3,0.4,0.4,0.7H-177.1z"/>
		<path class="st14" d="M-172.1,202.9L-172.1,202.9h4.6V194h-4.5l0,0h-4.7v8.8c0.1,0,0.1,0.1,0.2,0.1L-172.1,202.9L-172.1,202.9z"/>
		<path class="st14" d="M-185.4,194c2.1,3.4,4.9,6.3,8.3,8.5V194H-185.4z"/>
		<path class="st14" d="M-152.7,194v-0.4h4.6v-4.4v-0.3v-4.3h-4.6v-0.4h4.6v-8.9h-4.6v-0.4h4.6v-4v-0.7v-3.9h-4.6v-0.4h4.6V157h-4.6
			v-0.4h4c-2.7-1.6-5.8-2.7-9-3.3v3.3h4.7v0.4h-4.7v8.9h4.7v0.4h-4.7v3.9v0.7v4h4.7v0.4h-4.7v8.9h4.7v0.4h-4.7v4.3v0.3v4.4h4.7v0.4
			h-4.7v8.9h4.7v0.4h-4.7v3.2c3.1-0.5,6.1-1.6,8.8-3.2h-3.8v-0.4h4.5c0.1,0,0.1-0.1,0.2-0.1V194L-152.7,194L-152.7,194z"/>
		<path class="st14" d="M-186.4,188.9v-4.3h-2.6c0.5,2.7,1.3,5.2,2.5,7.5v-2.9v-0.3H-186.4z"/>
		<path class="st14" d="M-138.4,184.3h2.7c0.2-1.4,0.4-2.9,0.4-4.3c0-1.6-0.1-3.1-0.4-4.6h-2.6L-138.4,184.3L-138.4,184.3z"/>
		<path class="st14" d="M-186.4,175.4h-2.6c-0.3,1.5-0.4,3-0.4,4.6c0,1.5,0.1,2.9,0.4,4.3h2.6V175.4z"/>
		<polygon class="st14" points="-172.1,184.7 -176.7,184.7 -176.7,188.9 -176.7,189.3 -176.7,193.6 -172.1,193.6 -172,193.6 
			-167.4,193.6 -167.4,189.3 -167.4,188.9 -167.4,184.7 -172,184.7 		"/>
		<path class="st14" d="M-172.1,165.9L-172.1,165.9h4.6V157h-4.5l0,0h-4.6l0,0v8.9H-172.1z"/>
		<polygon class="st14" points="-167.4,170.9 -167.4,170.3 -167.4,166.3 -172,166.3 -172.1,166.3 -176.7,166.3 -176.7,170.3 
			-176.7,170.9 -176.7,175 -172.1,175 -172,175 -167.4,175 		"/>
		<polygon class="st14" points="-167.4,175.4 -172,175.4 -172.1,175.4 -176.7,175.4 -176.7,184.3 -172.1,184.3 -172,184.3 
			-167.4,184.3 		"/>
		<path class="st14" d="M-167.4,203.3h-4.6l0,0h-3.8c2.6,1.5,5.4,2.5,8.4,3.1V203.3z"/>
		<path class="st14" d="M-138.4,184.7v4.3v0.3v3c1.2-2.4,2.1-4.9,2.6-7.6H-138.4z"/>
		<path class="st14" d="M-138.8,188.9v-4.3h-8.9v4.3v0.3v4.4h8.6c0.1-0.2,0.2-0.4,0.3-0.6v-3.8L-138.8,188.9L-138.8,188.9z"/>
		<path class="st14" d="M-139.4,194h-8.3v8.5C-144.3,200.4-141.5,197.5-139.4,194z"/>
		<path class="st14" d="M-139.3,165.9c-2.1-3.5-5-6.4-8.4-8.7v8.7H-139.3z"/>
		<path class="st14" d="M-158.1,203.3h-8.9v3.2c1.5,0.3,3.1,0.4,4.6,0.4c1.4,0,2.9-0.1,4.3-0.3V203.3z"/>
		<path class="st14" d="M-167,156.6h8.9v-3.4c-1.4-0.2-2.8-0.3-4.3-0.3c-1.6,0-3.1,0.1-4.6,0.4V156.6z"/>
		<path class="st14" d="M-176,156.6h4l0,0h4.6v-3.2C-170.5,154-173.4,155.1-176,156.6z"/>
		<path class="st14" d="M-138.4,170.3v0.7v4h2.5c-0.5-2.6-1.4-5.1-2.5-7.4V170.3z"/>
		<rect x="-147.7" y="175.4" class="st14" width="8.9" height="8.9"/>
		<polygon class="st14" points="-158.1,170.9 -158.1,170.3 -158.1,166.3 -167,166.3 -167,170.3 -167,170.9 -167,175 -158.1,175 		
			"/>
		<rect x="-167" y="175.4" class="st14" width="8.9" height="8.9"/>
		<polygon class="st14" points="-167,188.9 -167,189.3 -167,193.6 -158.1,193.6 -158.1,189.3 -158.1,188.9 -158.1,184.7 -167,184.7 
					"/>
		<path class="st14" d="M-138.8,170.9v-0.7v-3.5c-0.1-0.2-0.2-0.3-0.3-0.5h-8.6v3.9v0.7v4h8.9L-138.8,170.9L-138.8,170.9z"/>
		<rect x="-167" y="194" class="st14" width="8.9" height="8.9"/>
		<rect x="-167" y="157" class="st14" width="8.9" height="8.9"/>
	</g>
	<g>
		<g>
			<polygon class="st9" points="-288.8,130 -299.2,119.2 -301.1,121.2 -288.9,133.9 -263,110 -264.6,107.8 			"/>
		</g>
		<g>
			<polygon class="st20" points="-264.6,107.8 -266.1,105.7 -288.8,125.7 -297.5,117.3 -299.2,119.2 -288.8,130 			"/>
		</g>
	</g>
	<rect x="-307.1" y="109" class="st21" width="18.3" height="32"/>
	<g>
		<g>
			<polygon class="st9" points="-238.1,132.2 -212.3,108.5 -213.9,106.3 -238.1,128.5 			"/>
		</g>
		<g>
			<polygon class="st20" points="-213.9,106.3 -215.4,104.2 -238.1,124.2 -238.1,128.5 			"/>
		</g>
		<g>
			<polygon class="st9" points="-238.1,128.5 -248.5,117.7 -250.4,119.7 -238.3,132.4 -238.1,132.2 			"/>
		</g>
		<polygon class="st21" points="-238.1,128.5 -248.5,117.7 -250.4,119.7 -238.3,132.4 -238.1,132.2 		"/>
		<g>
			<polygon class="st20" points="-246.8,115.8 -248.5,117.7 -238.1,128.5 -238.1,128.5 -238.1,124.2 -238.2,124.2 			"/>
		</g>
		<polygon class="st21" points="-246.8,115.8 -248.5,117.7 -238.1,128.5 -238.1,128.5 -238.1,124.2 -238.2,124.2 		"/>
	</g>
	<g>
		<g>
			<polygon class="st9" points="-240.7,80.9 -215,57.2 -216.6,54.9 -240.7,77.2 			"/>
		</g>
		<g>
			<polygon class="st20" points="-216.6,54.9 -218.1,52.9 -240.7,72.8 -240.7,77.2 			"/>
		</g>
		<g>
			<polygon class="st9" points="-240.8,77.2 -251.2,66.3 -253.1,68.4 -240.9,81 -240.7,80.9 -240.7,77.2 			"/>
		</g>
		<polygon class="st21" points="-240.8,77.2 -251.2,66.3 -253.1,68.4 -240.9,81 -240.7,80.9 -240.7,77.2 		"/>
		<g>
			<polygon class="st20" points="-249.5,64.4 -251.2,66.3 -240.8,77.2 -240.7,77.2 -240.7,72.8 -240.8,72.9 			"/>
		</g>
		<polygon class="st21" points="-249.5,64.4 -251.2,66.3 -240.8,77.2 -240.7,77.2 -240.7,72.8 -240.8,72.9 		"/>
	</g>
	<polygon id="check_4_" class="st22" points="-252.7,68.6 -249.2,64.6 -240.5,73.1 -217.8,53.1 -214.7,57.3 -240.6,81.2 	"/>
	<g>
		<g>
			<path class="st15" d="M-181,77c-3.1,0-6-1.3-8.2-3.5s-3.3-5.2-3.3-8.3c0.1-6.3,5.3-11.5,11.7-11.5h0.2c3.1,0,6,1.3,8.2,3.5
				s3.3,5.2,3.3,8.3c-0.1,6.3-5.3,11.5-11.7,11.5H-181z"/>
			<path class="st9" d="M-180.8,54.6L-180.8,54.6c6,0.1,10.7,4.9,10.6,10.8c-0.1,5.8-4.8,10.5-10.7,10.5h-0.1
				c-5.9-0.1-10.6-4.9-10.5-10.8C-191.4,59.3-186.6,54.6-180.8,54.6 M-180.8,52.6L-180.8,52.6c-6.9,0-12.6,5.6-12.7,12.5
				c0,3.4,1.2,6.6,3.6,9c2.4,2.4,5.5,3.8,8.9,3.8h0.2c6.9,0,12.6-5.6,12.7-12.5c0-3.4-1.2-6.6-3.6-9c-2.4-2.4-5.5-3.8-8.9-3.8
				H-180.8L-180.8,52.6z"/>
		</g>
		<path class="st23" d="M-172,71.7l10,10.2c1,1,1.2,2.5,0.4,3.3l0,0c-0.8,0.8-2.2,0.5-3.3-0.5l-10-10.2"/>
	</g>
	<g>
		<path class="st24" d="M-173.5,73c1.9-1.9,3.1-4.5,3.2-7.5c0.1-5.9-4.6-10.7-10.5-10.8c-3,0-5.8,1.2-7.7,3.2"/>
		<g>
			<path class="st20" d="M-180.9,76.1c3,0,5.7-1.1,7.6-3.1l-15.1-15.1c-1.9,1.9-3,4.5-3.1,7.3C-191.5,71.2-186.8,76-180.9,76.1z"/>
		</g>
	</g>
	<g>
		<path class="st15" d="M-180.9,72.8c-4.1-0.1-7.4-3.4-7.4-7.6c0.1-4.1,3.4-7.4,7.5-7.4h0.1c4.1,0.1,7.4,3.4,7.4,7.6
			C-173.4,69.5-176.7,72.8-180.9,72.8L-180.9,72.8z"/>
		<path class="st9" d="M-180.8,58.9C-180.8,58.9-180.7,58.9-180.8,58.9c3.7,0,6.5,3,6.5,6.5s-2.9,6.4-6.5,6.4h-0.1
			c-3.6,0-6.4-3-6.4-6.5C-187.2,61.7-184.3,58.9-180.8,58.9 M-180.8,56.9L-180.8,56.9c-4.6,0-8.4,3.7-8.5,8.3
			c-0.1,4.7,3.7,8.5,8.3,8.6h0.1c4.6,0,8.4-3.7,8.5-8.3c0-2.3-0.8-4.4-2.4-6S-178.5,57-180.8,56.9L-180.8,56.9L-180.8,56.9z"/>
	</g>
	<g>
		<path class="st15" d="M-188.5-61.8c-14.3,0-26,11.7-26,26s11.7,26,26,26s26-11.7,26-26S-174.2-61.8-188.5-61.8z M-169.8-23.4
			h-31.3c-0.3,0-0.6-0.1-0.8-0.3l-5.5-6.2c-0.2-0.2-0.2-0.4-0.2-0.7v-19.1c0-0.6,0.4-1,1-1h27.6c0.5,0,1,0.4,1,1l0.4,18.6l8.3,5.9
			c0.4,0.3,0.5,0.7,0.4,1.1S-169.4-23.4-169.8-23.4z"/>
		<path class="st15" d="M-201.7-34.8h18.1v-9.7h-18.1V-34.8z M-199.2-40.4c-0.4-0.4-0.4-1,0-1.4s1-0.4,1.4,0l1.6,1.6
			c0.4,0.4,0.4,1,0,1.4l-1.6,1.6c-0.2,0.2-0.5,0.3-0.7,0.3c-0.2,0-0.5-0.1-0.7-0.3c-0.4-0.4-0.4-1,0-1.4l0.9-0.9L-199.2-40.4z"/>
		<path class="st15" d="M-179.5-30.6l-0.4-18.1h-25.7V-31l5,5.6h27.7l-6.2-4.4C-179.4-30-179.5-30.3-179.5-30.6z M-203.7-33.8v-11.7
			c0-0.6,0.4-1,1-1h20.1c0.6,0,1,0.4,1,1v11.7c0,0.6-0.4,1-1,1h-20.1C-203.2-32.8-203.7-33.3-203.7-33.8z M-201-29.6L-201-29.6
			c-0.6,0-1-0.4-1-1s0.4-1,1-1l18.8-0.1l0,0c0.6,0,1,0.4,1,1s-0.4,1-1,1L-201-29.6z M-180.1-26.6H-199l0,0c-0.6,0-1-0.4-1-1
			s0.4-1,1-1l18.8-0.1l0,0c0.6,0,1,0.4,1,1C-179.1-27.1-179.6-26.6-180.1-26.6z"/>
	</g>
	<g>
		<path class="st15" d="M-313.7-45.7c-1-1-2.4-1.6-3.8-1.6h-0.1c-3,0-5.4,2.4-5.5,5.4c0,1.5,0.5,2.8,1.5,3.9s2.4,1.6,3.8,1.6
			c1.5,0,2.8-0.5,3.9-1.5c1-1,1.6-2.4,1.6-3.8l0,0C-312.1-43.3-312.7-44.7-313.7-45.7z"/>
		<path class="st15" d="M-308.9-34.2c-0.2,0.2-0.4,0.4-0.6,0.6c-0.3,0.2-0.5,0.5-0.8,0.7l9.6,9.8c0.7,0.7,1.5,0.8,1.8,0.5
			c0.3-0.3,0.2-1.2-0.5-1.9L-308.9-34.2z"/>
		<path class="st15" d="M-308-41.8c0-2.6-0.9-5-2.7-6.9c-1.8-1.8-4.2-2.9-6.8-2.9h-0.1c-2.5,0-4.9,1-6.7,2.7
			c-1.8,1.8-2.9,4.2-2.9,6.8c0,2.6,0.9,5,2.7,6.9c1.8,1.8,4.2,2.9,6.8,2.9C-312.4-32.2-308-36.4-308-41.8z M-317.6-34.5h-0.1
			c-4.1-0.1-7.4-3.4-7.4-7.6c0.1-4.1,3.4-7.4,7.6-7.4c2,0,3.9,0.8,5.2,2.3c1.3,1.5,2.1,3.3,2.1,5.3s-0.8,3.9-2.3,5.2
			C-313.8-35.2-315.7-34.5-317.6-34.5z"/>
		<path class="st15" d="M-312.7-61.8c-14.3,0-26,11.7-26,26s11.7,26,26,26c14.3,0,26-11.7,26-26S-298.3-61.8-312.7-61.8z
			 M-297.5-21.1c-0.5,0.5-1.2,0.7-1.9,0.7c-1,0-2-0.4-2.8-1.3l-9.8-10.1c-1.7,1-3.6,1.5-5.6,1.5c-0.1,0-0.1,0-0.2,0
			c-3.1,0-6-1.3-8.2-3.5s-3.3-5.2-3.3-8.3c0-3.1,1.3-6,3.5-8.2c2.2-2.2,5.2-3.3,8.3-3.3s6,1.3,8.2,3.5c2.2,2.2,3.3,5.2,3.3,8.3
			c0,2.1-0.6,4.2-1.7,5.9l9.8,10.1C-296.5-24.3-296.3-22.2-297.5-21.1z"/>
	</g>
	<g>
		<path class="st15" d="M-313.7-45.7c-1-1-2.4-1.6-3.8-1.6h-0.1c-3,0-5.4,2.4-5.5,5.4c0,1.5,0.5,2.8,1.5,3.9s2.4,1.6,3.8,1.6
			c1.5,0,2.8-0.5,3.9-1.5c1-1,1.6-2.4,1.6-3.8l0,0C-312.1-43.3-312.7-44.7-313.7-45.7z"/>
		<path class="st15" d="M-308.9-34.2c-0.2,0.2-0.4,0.4-0.6,0.6c-0.3,0.2-0.5,0.5-0.8,0.7l9.6,9.8c0.7,0.7,1.5,0.8,1.8,0.5
			c0.3-0.3,0.2-1.2-0.5-1.9L-308.9-34.2z"/>
		<path class="st15" d="M-308-41.8c0-2.6-0.9-5-2.7-6.9c-1.8-1.8-4.2-2.9-6.8-2.9h-0.1c-2.5,0-4.9,1-6.7,2.7
			c-1.8,1.8-2.9,4.2-2.9,6.8c0,2.6,0.9,5,2.7,6.9c1.8,1.8,4.2,2.9,6.8,2.9C-312.4-32.2-308-36.4-308-41.8z M-317.6-34.5h-0.1
			c-4.1-0.1-7.4-3.4-7.4-7.6c0.1-4.1,3.4-7.4,7.6-7.4c2,0,3.9,0.8,5.2,2.3c1.3,1.5,2.1,3.3,2.1,5.3s-0.8,3.9-2.3,5.2
			C-313.8-35.2-315.7-34.5-317.6-34.5z"/>
		<path class="st15" d="M-312.7-61.8c-14.3,0-26,11.7-26,26s11.7,26,26,26c14.3,0,26-11.7,26-26S-298.3-61.8-312.7-61.8z
			 M-297.5-21.1c-0.5,0.5-1.2,0.7-1.9,0.7c-1,0-2-0.4-2.8-1.3l-9.8-10.1c-1.7,1-3.6,1.5-5.6,1.5c-0.1,0-0.1,0-0.2,0
			c-3.1,0-6-1.3-8.2-3.5s-3.3-5.2-3.3-8.3c0-3.1,1.3-6,3.5-8.2c2.2-2.2,5.2-3.3,8.3-3.3s6,1.3,8.2,3.5c2.2,2.2,3.3,5.2,3.3,8.3
			c0,2.1-0.6,4.2-1.7,5.9l9.8,10.1C-296.5-24.3-296.3-22.2-297.5-21.1z"/>
	</g>
	<g>
		<path class="st15" d="M-264.1-21h26.4v-29.9h-26.4V-21z M-239.1-28.8c0.3,0.4,0.3,1.1-0.2,1.4l-6,4.7c-0.2,0.1-0.4,0.2-0.6,0.2
			c-0.1,0-0.1,0-0.2,0c-0.3-0.1-0.5-0.3-0.7-0.5l-1.3-2.6c-0.2-0.5,0-1.1,0.4-1.3c0.5-0.2,1.1,0,1.3,0.4l0.7,1.5l5.1-4
			C-240.1-29.3-239.5-29.2-239.1-28.8z M-260-46.5h18.1c0.6,0,1,0.4,1,1s-0.4,1-1,1H-260c-0.6,0-1-0.4-1-1S-260.5-46.5-260-46.5z
			 M-260.4-42.1h18.5c0.6,0,1,0.4,1,1s-0.4,1-1,1h-18.5c-0.6,0-1-0.4-1-1S-260.9-42.1-260.4-42.1z M-260.4-37.4h18.5
			c0.6,0,1,0.4,1,1s-0.4,1-1,1h-18.5c-0.6,0-1-0.4-1-1S-260.9-37.4-260.4-37.4z M-260.4-32.7h18.5c0.6,0,1,0.4,1,1s-0.4,1-1,1h-18.5
			c-0.6,0-1-0.4-1-1S-260.9-32.7-260.4-32.7z M-260.4-27.9h9.9c0.6,0,1,0.4,1,1s-0.4,1-1,1h-9.9c-0.6,0-1-0.4-1-1
			S-260.9-27.9-260.4-27.9z"/>
		<path class="st15" d="M-250.6-61.8c-14.3,0-26,11.7-26,26s11.7,26,26,26c14.3,0,26-11.7,26-26S-236.2-61.8-250.6-61.8z M-235.6-20
			c0,0.6-0.4,1-1,1h-28.5c-0.6,0-1-0.4-1-1v-31.9c0-0.6,0.4-1,1-1h28.4c0.6,0,1,0.4,1,1L-235.6-20L-235.6-20z"/>
	</g>
	<g>
		<path class="st25" d="M-374.8-61.8c-14.3,0-26,11.7-26,26s11.7,26,26,26c14.3,0,26-11.7,26-26S-360.4-61.8-374.8-61.8z
			 M-381.9-19.7c-0.2,0.2-0.4,0.3-0.7,0.3c-0.3,0-0.5-0.1-0.7-0.3l-12.1-12.6c-0.4-0.4-0.4-1,0-1.4l4.1-4.1c0.2-0.2,0.5-0.3,0.7-0.3
			c0.3,0,0.5,0.1,0.7,0.3l7.7,7.8l21.4-19.2c0.2-0.2,0.5-0.3,0.7-0.3c0.3,0,0.5,0.2,0.7,0.4l3.5,4.2c0.3,0.4,0.3,1-0.1,1.4
			L-381.9-19.7z"/>
		<path class="st15" d="M-374.8-61.8c-14.3,0-26,11.7-26,26s11.7,26,26,26c14.3,0,26-11.7,26-26S-360.4-61.8-374.8-61.8z
			 M-381.9-19.7c-0.2,0.2-0.4,0.3-0.7,0.3c-0.3,0-0.5-0.1-0.7-0.3l-12.1-12.6c-0.4-0.4-0.4-1,0-1.4l4.1-4.1c0.2-0.2,0.5-0.3,0.7-0.3
			c0.3,0,0.5,0.1,0.7,0.3l7.7,7.8l21.4-19.2c0.2-0.2,0.5-0.3,0.7-0.3c0.3,0,0.5,0.2,0.7,0.4l3.5,4.2c0.3,0.4,0.3,1-0.1,1.4
			L-381.9-19.7z"/>
		<path class="st15" d="M-381.6-27.9c-0.4,0.4-1,0.3-1.4,0l-7.6-7.8l-2.7,2.7l10.8,11.2l24.5-22.6l-2.2-2.7L-381.6-27.9z"/>
	</g>
	<path class="st17" d="M-392.9-54.7c-10.1,10.1-10.1,26.6,0,36.8s26.6,10.1,36.8,0"/>
	<g>
		<path class="st15" d="M-120.8-34c-0.1,0-0.3,0.1-0.3,0.2l-0.7,1.2c-0.5,0.8-1.3,1.2-2.2,1.1l3.4,10.5l1-1.2
			c0.3-0.3,0.7-0.4,1.1-0.3l1.2,0.5L-120.8-34L-120.8-34z"/>
		<path class="st15" d="M-128.9-31.6c-0.8,0-1.6-0.4-2-1.1l-0.7-1.1l-3.7,11.5l1.3-0.4c0.4-0.1,0.9,0,1.1,0.4l0.8,1.1l3.6-10.4
			C-128.6-31.6-128.7-31.6-128.9-31.6z"/>
		<path class="st15" d="M-116.7-41l-0.6-1.2c-0.4-0.7-0.4-1.5,0-2.2l0.6-1.2c0.1-0.2,0-0.4-0.1-0.5l-1.2-0.7
			c-0.7-0.4-1.1-1.1-1.1-1.9l-0.1-1.4c0-0.2-0.2-0.4-0.4-0.4l-1.4-0.1c-0.8,0-1.5-0.5-1.9-1.1l-0.7-1.2c-0.1-0.2-0.3-0.2-0.5-0.1
			l-1.2,0.6c-0.7,0.4-1.5,0.4-2.2,0l-1.2-0.6c-0.1,0-0.1,0-0.2,0c-0.1,0-0.3,0.1-0.3,0.2l-0.7,1.2c-0.4,0.6-1.1,1.1-1.9,1.1
			l-1.4,0.1c-0.2,0-0.4,0.2-0.4,0.4l-0.1,1.4c0,0.8-0.4,1.5-1.1,1.9L-136-46c-0.2,0.1-0.2,0.3-0.1,0.5l0.6,1.2
			c0.4,0.7,0.4,1.5,0,2.2l-0.6,1.2c-0.1,0.2,0,0.4,0.1,0.5l1.2,0.7c0.6,0.4,1.1,1.1,1.1,1.9l0.1,1.4c0,0.2,0.2,0.4,0.4,0.4l1.4,0.1
			c0.8,0,1.5,0.4,1.9,1.1l0.7,1.2c0.1,0.2,0.3,0.2,0.5,0.1l1.2-0.6c0.1,0,0.2-0.1,0.3-0.1s0.1,0,0.2-0.1c0.1,0,0.1,0,0.2-0.1h0.1
			c0.3-0.1,0.6-0.1,1,0c0.4,0,0.7,0.1,0.9,0.4l0.9,0.4c0.2,0.1,0.4,0,0.5-0.1l0.7-1.2c0.4-0.6,1.1-1.1,1.9-1.1l1.4-0.1
			c0.2,0,0.4-0.2,0.4-0.4l0.1-1.4c0-0.8,0.5-1.5,1.1-1.9l1.2-0.7C-116.6-40.6-116.6-40.8-116.7-41z"/>
		<path class="st15" d="M-126.4-61.8c-14.3,0-26,11.7-26,26s11.7,26,26,26s26-11.7,26-26S-112.1-61.8-126.4-61.8z M-114.8-20.8
			c0.1,0.4,0,0.8-0.3,1c-0.3,0.3-0.7,0.3-1,0.2l-2.4-0.9l-1.7,2c-0.2,0.2-0.5,0.4-0.8,0.4c-0.1,0-0.1,0-0.2,0
			c-0.4-0.1-0.6-0.3-0.8-0.7l-4.3-13.1l-4.5,13.1c-0.1,0.4-0.4,0.6-0.8,0.7c-0.1,0-0.1,0-0.2,0c-0.3,0-0.6-0.1-0.8-0.4l-1.5-2.1
			l-2.5,0.8c-0.4,0.1-0.7,0-1-0.2c-0.3-0.3-0.4-0.7-0.2-1l4.2-13.1c-1.1-0.2-1.9-1.1-2-2.2l-0.1-1.4c0-0.1-0.1-0.3-0.2-0.3l-1.2-0.7
			c-1-0.7-1.4-2-0.8-3.1l0.6-1.2c0.1-0.1,0.1-0.3,0-0.4l-0.6-1.2c-0.6-1.1-0.2-2.4,0.8-3.1l1.2-0.7c0.1-0.1,0.2-0.2,0.2-0.3l0.1-1.4
			c0.1-1.2,1-2.2,2.3-2.3l1.4-0.1c0.1,0,0.3-0.1,0.3-0.2l0.7-1.2c0.7-1,2-1.4,3.1-0.8l1.2,0.6c0.1,0.1,0.3,0.1,0.4,0l1.2-0.6
			c1.1-0.6,2.4-0.2,3.1,0.8l0.7,1.2c0.1,0.1,0.2,0.2,0.3,0.2l1.4,0.1c1.2,0.1,2.2,1,2.3,2.3l0.1,1.4c0,0.1,0.1,0.3,0.2,0.3l1.2,0.7
			c1,0.7,1.4,2,0.8,3.1l-0.6,1.2c-0.1,0.1-0.1,0.3,0,0.4l0.6,1.2c0.6,1.1,0.2,2.4-0.8,3.1l-1.2,0.7c-0.1,0.1-0.2,0.2-0.2,0.3
			l-0.1,1.4c-0.1,1-0.7,1.8-1.6,2.1L-114.8-20.8z"/>
	</g>
	<path class="st17" d="M-389.8-123.2c0,14.3,11.7,26,26,26c14.3,0,26-11.7,26-26"/>
	<g>
		<g>
			<path class="st9" d="M-374.8-61.8c14.3,0,26,11.7,26,26s-11.7,26-26,26c-14.3,0-26-11.7-26-26S-389.1-61.8-374.8-61.8
				 M-382.2-30.1l-7.7-7.8c-0.2-0.2-0.4-0.3-0.7-0.3c0,0,0,0-0.1,0c-0.2,0-0.5,0.1-0.7,0.3l-4.1,4.1c-0.4,0.4-0.4,1,0,1.4l12.1,12.6
				c0.2,0.2,0.5,0.3,0.7,0.3c0.2,0,0.5-0.1,0.7-0.3l25.9-23.9c0.4-0.4,0.4-1,0.1-1.4l-3.5-4.2c-0.2-0.2-0.4-0.3-0.7-0.4h-0.1
				c-0.2,0-0.5,0.1-0.7,0.3L-382.2-30.1 M-374.8-63.8c-15.4,0-28,12.6-28,28s12.6,28,28,28c15.4,0,28-12.6,28-28
				S-359.3-63.8-374.8-63.8L-374.8-63.8z M-382.3-27.3l1.4-1.3l20.7-18.5l2.2,2.7l-24.5,22.6L-393.3-33l2.7-2.7l7,7.1L-382.3-27.3
				L-382.3-27.3z"/>
		</g>
		<g>
			<path class="st9" d="M-374.8-61.8c14.3,0,26,11.7,26,26s-11.7,26-26,26c-14.3,0-26-11.7-26-26S-389.1-61.8-374.8-61.8
				 M-382.2-30.1l-7.7-7.8c-0.2-0.2-0.4-0.3-0.7-0.3c0,0,0,0-0.1,0c-0.2,0-0.5,0.1-0.7,0.3l-4.1,4.1c-0.4,0.4-0.4,1,0,1.4l12.1,12.6
				c0.2,0.2,0.5,0.3,0.7,0.3c0.2,0,0.5-0.1,0.7-0.3l25.9-23.9c0.4-0.4,0.4-1,0.1-1.4l-3.5-4.2c-0.2-0.2-0.4-0.3-0.7-0.4h-0.1
				c-0.2,0-0.5,0.1-0.7,0.3L-382.2-30.1 M-374.8-63.8c-15.4,0-28,12.6-28,28s12.6,28,28,28c15.4,0,28-12.6,28-28
				S-359.3-63.8-374.8-63.8L-374.8-63.8z M-382.3-27.3l1.4-1.3l20.7-18.5l2.2,2.7l-24.5,22.6L-393.3-33l2.7-2.7l7,7.1L-382.3-27.3
				L-382.3-27.3z"/>
		</g>
		<g>
			<path class="st9" d="M-360.2-47.1l2.2,2.7l-24.5,22.6L-393.3-33l2.7-2.7l7.6,7.8c0.2,0.2,0.5,0.3,0.7,0.3c0.2,0,0.5-0.1,0.7-0.3
				L-360.2-47.1 M-360-50l-1.6,1.4l-20.7,18.5l-7-7.1l-1.4-1.5l-1.4,1.4l-2.7,2.7l-1.4,1.4l1.4,1.4l10.8,11.2l1.4,1.4l1.4-1.3
				l24.5-22.6l1.4-1.3l-1.2-1.5l-2.2-2.7L-360-50L-360-50z"/>
		</g>
	</g>
</g>
</svg>
