<?xml version="1.0" encoding="utf-8"?>
<!-- Generator: Adobe Illustrator 17.1.0, SVG Export Plug-In . SVG Version: 6.00 Build 0)  -->
<!DOCTYPE svg PUBLIC "-//W3C//DTD SVG 1.1//EN" "http://www.w3.org/Graphics/SVG/1.1/DTD/svg11.dtd">
<svg version="1.1" id="Layer_1" xmlns="http://www.w3.org/2000/svg"  x="0px" y="0px"
	 viewBox="0 0 504 360" enable-background="new 0 0 504 360" xml:space="preserve">
<g>
	<path fill="#FFFFFF" d="M11.3,149.9c0-23.9,23.2-36.4,46.1-36.4c16.3,0,32.7,6.2,40.4,18.7l-4,2.9C87,123.9,71.7,117.9,57,117.9
		c-20.3,0-41,10.6-41,32v61c0,21.4,20.7,31.7,41,31.7c14.6,0,29.8-5.4,36.8-16.3l4,2.1c-7.7,12.4-24.4,18.9-41,18.9
		c-22.6,0-45.5-12.3-45.5-36.4C11.3,210.9,11.3,149.9,11.3,149.9z"/>
	<path fill="#FFFFFF" d="M121.3,245.3V115.3h4.6v125.4h65v4.6h-69.7V245.3z"/>
	<path fill="#FFFFFF" d="M216.4,245.3h-4.6V115.3h4.6V245.3z"/>
</g>
<g>
	<path fill="#FFFFFF" d="M474.1,180c14.3,6.1,18.7,20.6,18.5,32.1c-0.6,26.8-17.8,34.6-40.4,34.6h-47.3V116.8h47.6
		c19,0,33.9,11,33.9,31.6c0,11-4,21-13.1,26.2l-5.7,3.2L474.1,180z M452.5,175.7c17.1,0,29.5-8.4,29.5-27.2
		c0-18.2-13.1-27.6-29.5-27.6h-42.9v54.7h42.9V175.7z M452.5,242.3c20.7,0.4,35.6-7.9,35.6-30.5c0-22.8-13.8-32-35.6-31.7h-42.9
		v62.2H452.5z"/>
</g>
<g>
	<polygon fill="#87779D" points="293.6,113.3 319.8,179.8 346,246.2 293.6,246.2 241.2,246.2 267.4,179.8 	"/>
	<polygon fill="#87779D" points="335.4,113.3 361.5,179.8 387.7,246.2 335.4,246.2 282.9,246.2 309.1,179.8 	"/>
	<polygon fill="#473960" points="314,167.3 329.5,206.8 345.1,246.2 314,246.2 282.9,246.2 298.5,206.8 	"/>
</g>
</svg>
