<?xml version="1.0" encoding="utf-8"?>
<!-- Generator: Adobe Illustrator 19.1.0, SVG Export Plug-In . SVG Version: 6.00 Build 0)  -->
<!DOCTYPE svg PUBLIC "-//W3C//DTD SVG 1.1//EN" "http://www.w3.org/Graphics/SVG/1.1/DTD/svg11.dtd">
<svg version="1.1" id="Layer_1" xmlns="http://www.w3.org/2000/svg" xmlns:xlink="http://www.w3.org/1999/xlink" x="0px" y="0px"
	 viewBox="-49 316.2 511.8 164" enable-background="new -49 316.2 511.8 164" xml:space="preserve">
<rect x="-49" y="316.2" fill="#001F5B" width="126.8" height="161.8"/>
<polygon fill="#E2231A" points="-49,365.6 -49,426.7 -22.6,426.7 -22.6,477.9 77.8,395.5 -22.6,316.2 -22.6,365.7 "/>
<g>
	<path fill="#001F5B" d="M123.4,392.2v30.1h29.7v-30.1h27.3V478h-27.3v-34.6h-29.7V478H96.3v-85.8H123.4z"/>
	<path fill="#001F5B" d="M222.3,435.3c0-16.5,6-24.6,18.4-24.6c4.8,0,8.7,1.3,11.7,3.9c4.7,4.1,6.6,10.2,6.6,20.7
		c0,16.3-6,24.2-18.4,24.2C228.4,459.7,222.3,451.5,222.3,435.3z M195,435.2c0,13.9,3.9,24.3,11.9,32.3c8.2,8.3,18.7,11.9,33.6,11.9
		c14.6,0,24.9-3.4,32.9-10.8c8.7-8,12.7-18.8,12.7-34.1c0-27.8-16.6-43.7-45.3-43.7C211.7,390.8,195,406.9,195,435.2z"/>
	<path fill="#001F5B" d="M328.1,428.7v-19h7.7c8.8,0,13.1,3.1,13.1,9.6c0,6.3-4.8,9.5-14.2,9.5h-6.6V428.7z M300.9,392.2V478h27.3
		v-31.9H343c7.6,0,10-0.2,14.9-1.9c11.7-3.8,17.6-12.5,17.6-25.6c0-17.4-10.1-26.4-29.3-26.4H300.9L300.9,392.2z"/>
	<path fill="#001F5B" d="M462.8,392.2v18.3h-46v13.7h42v17.5h-42v16.9h46V478h-73.3v-85.8H462.8z"/>
</g>
<g>
	<g>
		<path fill="#001F5B" d="M96.1,338.9c0-7.4,1.9-13.2,5.8-17.3c3.9-4.1,9.3-6.2,16.2-6.2c7.1,0,12.5,2,16.4,6.1
			c3.8,4.1,5.7,9.7,5.7,17c0,5.3-0.8,9.6-2.5,13c-1.7,3.4-4.1,6-7.3,7.9c-3.2,1.9-7.1,2.8-11.8,2.8c-4.8,0-8.8-0.8-11.9-2.4
			c-3.1-1.6-5.7-4.2-7.6-7.7C97,348.7,96.1,344.2,96.1,338.9z M109.2,339c0,4.6,0.8,7.9,2.4,9.9c1.6,2,3.8,3,6.5,3
			c2.8,0,5-1,6.6-2.9c1.5-2,2.3-5.5,2.3-10.6c0-4.3-0.8-7.4-2.4-9.4c-1.6-2-3.8-3-6.6-3c-2.7,0-4.8,1-6.4,3
			C110,331.1,109.2,334.4,109.2,339z"/>
		<path fill="#001F5B" d="M145.2,316.2H167c4.8,0,8.3,1.2,10.7,3.6s3.6,5.8,3.6,10.3c0,4.6-1.3,8.2-3.9,10.7
			c-2.6,2.6-6.5,3.9-11.8,3.9h-7.2v16.8h-13.2L145.2,316.2L145.2,316.2z M158.4,335.6h3.2c2.5,0,4.3-0.5,5.3-1.4s1.5-2.1,1.5-3.6
			c0-1.4-0.4-2.6-1.3-3.6c-0.9-1-2.6-1.5-5-1.5h-3.7V335.6z"/>
		<path fill="#001F5B" d="M186.3,316.2h35.2v9.7h-22.1v7.2h20.5v9.3h-20.5v8.9h22.7v10.3h-35.9L186.3,316.2L186.3,316.2z"/>
		<path fill="#001F5B" d="M227.9,361.6v-45.4h21.9c4.1,0,7.2,0.4,9.3,1.1c2.1,0.7,3.9,2.1,5.2,4.1c1.3,2,2,4.5,2,7.3
			c0,2.5-0.5,4.7-1.5,6.5s-2.4,3.3-4.2,4.4c-1.1,0.7-2.7,1.3-4.6,1.8c1.6,0.6,2.7,1.1,3.4,1.7c0.5,0.4,1.2,1.2,2.1,2.4
			c0.9,1.2,1.5,2.2,1.8,2.8l6.4,13.1h-14.9l-7-13.9c-0.9-1.8-1.7-3-2.4-3.5c-0.9-0.7-2-1.1-3.2-1.1H241v18.4h-13.1V361.6z
			 M241.1,334.6h5.5c0.6,0,1.8-0.2,3.5-0.6c0.9-0.2,1.6-0.7,2.1-1.4c0.6-0.8,0.8-1.6,0.8-2.6c0-1.5-0.4-2.6-1.3-3.4
			c-0.9-0.8-2.5-1.2-4.9-1.2H241L241.1,334.6L241.1,334.6z"/>
		<path fill="#001F5B" d="M299,354.1h-14.9l-2.1,7.5h-13.4l16-45.4H299l16,45.4h-13.8L299,354.1z M296.3,344.3l-4.7-16.3l-4.6,16.3
			H296.3z"/>
		<path fill="#001F5B" d="M308.3,316.2h40v11.2h-13.4v34.2h-13.1v-34.2h-13.4v-11.2H308.3z"/>
		<path fill="#001F5B" d="M353.5,316.2h13.2v45.4h-13.2V316.2z"/>
		<path fill="#001F5B" d="M372.7,338.9c0-7.4,1.9-13.2,5.8-17.3s9.3-6.2,16.2-6.2c7.1,0,12.5,2,16.4,6.1c3.8,4.1,5.7,9.7,5.7,17
			c0,5.3-0.8,9.6-2.5,13c-1.7,3.4-4.1,6-7.3,7.9c-3.2,1.9-7.1,2.8-11.8,2.8c-4.8,0-8.8-0.8-11.9-2.4s-5.7-4.2-7.6-7.7
			C373.7,348.7,372.7,344.2,372.7,338.9z M385.8,339c0,4.6,0.8,7.9,2.4,9.9s3.8,3,6.5,3c2.8,0,5-1,6.6-2.9c1.5-2,2.3-5.5,2.3-10.6
			c0-4.3-0.8-7.4-2.4-9.4s-3.8-3-6.6-3c-2.7,0-4.8,1-6.4,3C386.6,331.1,385.8,334.4,385.8,339z"/>
		<path fill="#001F5B" d="M422.1,316.2h12.3l16,25.1v-25.1h12.4v45.4h-12.4l-15.9-24.9v24.9h-12.4V316.2z"/>
	</g>
</g>
</svg>
