<?xml version="1.0" encoding="utf-8"?>
<!-- Generator: Adobe Illustrator 19.1.0, SVG Export Plug-In . SVG Version: 6.00 Build 0)  -->
<!DOCTYPE svg PUBLIC "-//W3C//DTD SVG 1.1//EN" "http://www.w3.org/Graphics/SVG/1.1/DTD/svg11.dtd">
<svg version="1.1" id="Layer_1" xmlns="http://www.w3.org/2000/svg" xmlns:xlink="http://www.w3.org/1999/xlink" x="0px" y="0px"
	 viewBox="71 -32.2 134.7 118.2" enable-background="new 71 -32.2 134.7 118.2" xml:space="preserve">
<g id="copy_and_background">
</g>
<g id="logos">
	<g>
		<path fill="#FFFFFF" d="M149.8,0.7c-1.4-1.2-1.5-1-1.7-1c-0.3,0-7.6,0.5-15.1,0.5c-3.2,0-5.7-0.3-7.3,0.4
			c-4.2,1.8-4.8,7.3-1.4,7.2c3.6-0.1,5.5-1.9,6.8-3.9c0.4-0.6,0.2-0.8-0.2-0.4c-0.9,1.1-2.4,2.4-4.1,3c-3.9,1.4-2.5-4.4,0.2-5.2
			c2.2-0.6,5.8,0.4,9.2,1c0,0-0.3,0.2-0.4,0.3c-0.3,0.2-1.7,1.5-4.2,3.8c-1.5,1.4-4.4,4.2-4.4,5.2c0,0.4,1.1,2.3,1.8,2.3
			c0.2,0,0.1-0.5,1.3-2.1c2.1-2.7,5.4-5.9,6.6-7.2c1.1-1.1,2.6-2.3,3.1-2.3c0.4,0,1,0,1.6,0c-2.6,2.3-6.8,6.2-8.8,9.1
			c-0.1,0.1-0.1,0.3-0.1,0.4c0,0.6,1.1,1.4,1.4,1.4c0.2,0,0.5-0.6,0.6-0.8c2.2-2.7,3.7-3.9,4.9-4.5c-1.1,1.1-2.3,2.3-2.3,3.3
			c0,0.8,0.5,1.9,1.4,1.9c0.8,0,2.4-1.2,3.4-2.1c0.1,0.7,1.5,2.2,2.2,2.2c1.6,0,3.2-1.1,4.3-2.2c0.7-0.6,1.3-1.3,1.3-1.5
			c0-0.1,0-0.2-0.1-0.2c-0.1,0-1.7,1.4-4.6,2.5c-0.2,0.1-0.5,0.2-0.8,0.2c-0.5,0-0.6-0.3-0.6-0.6s0.2-0.7,0.5-1.2
			c0.4,0.4,0.8,0.6,1.2,0.6c1.2,0,3.9-2.2,3.9-3.7c0-0.2,0-0.5-0.6-1c-0.4-0.5-0.9-0.8-1.2-0.8c-0.6,0-1.6,0.5-2.9,1.7
			c-0.7,0.6-1.3,1.2-1.7,1.9c-0.2,0.3-0.7,1-1.3,1.5c-0.9,0.7-1.9,1.4-2.3,1.4c-0.1,0-0.2-0.1-0.2-0.2c0-0.8,2.5-2.7,3.2-3.4
			c0.3-0.2,0.3-0.3,0.3-0.5c0-0.7-0.9-1.2-1.4-1.2c-0.8,0-1.4,0.4-2.5,0.9c0.4-0.5,1.9-1.6,4.1-3.7c0.7-0.6,1.5-1.3,2.6-1.6
			c1.5-0.1,2.9-0.2,4.1-0.4c0.4,0,1.1-0.2,1.1-0.4C150.6,1.2,150,0.9,149.8,0.7z M147.4,7.3c0.1,0,0.2-0.1,0.3-0.1
			c0.1,0,0.2,0,0.2,0.2c0,0.5-2.1,2.8-3,2.8c-0.1,0-0.3,0-0.4-0.2C145.3,9,146.3,8,147.4,7.3z"/>
		<path fill="#FFFFFF" d="M143.9,45.5h-1.6v-2.3h2.5l3.3,5.6h4.6h1.7h8.3c2.1,0,3.3-0.3,4.1-1.2c1-1,1.5-2.5,1.5-6.2
			s-0.5-5.2-1.5-6.2c-0.9-0.9-2-1.2-4.1-1.2h-10v3.3h1.6v8.2h-1.5h-1.4l-2.4-3.8c1.7-0.3,2.4-1,2.4-3.6c0-1.8-0.2-2.7-0.9-3.3
			c-0.6-0.6-1.4-0.8-2.7-0.8h-11.4v3.3h1.6v8.2h-1h-0.6h-0.6L131.9,34h-6.6l-3.9,11.5h-1.7v3.3h7.3v-3.2h-1.3l0.3-1.3h4.8l0.4,1.3
			h-1.3v3.2h6.6h0.5h6.9V45.5z M161.9,37.3c1,0,1.3,0.1,1.5,0.3c0.2,0.2,0.3,0.8,0.3,3.8c0,2.9-0.1,3.6-0.3,3.8
			c-0.2,0.2-0.6,0.3-1.5,0.3h-3.4v-8.2L161.9,37.3L161.9,37.3z M126.8,41.2l1.1-3.4h1l1.1,3.4H126.8z M142.3,37.2h3.3
			c0.6,0,0.8,0,1,0.2s0.2,0.5,0.2,1.3s0,1.1-0.2,1.3c-0.1,0.1-0.4,0.2-1,0.2h-3.3V37.2z"/>
		<path fill="#FFFFFF" d="M147.2,16.9h-5.5c-1.5,0-2.2,0.2-2.7,0.8c-0.9,0.8-1.3,2.5-1.3,6.6c0,4.1,0.5,5.7,1.3,6.6
			c0.6,0.6,1.2,0.8,2.7,0.8h5.5c1.5,0,2.2-0.2,2.7-0.8c0.9-0.8,1.3-2.5,1.3-6.6s-0.5-5.7-1.3-6.6C149.3,17.1,148.7,16.9,147.2,16.9z
			 M146.4,28.1c-0.1,0.1-0.3,0.2-1,0.2h-2.1c-0.6,0-0.8,0-1-0.2c-0.1-0.1-0.3-0.6-0.3-3.8c0-3.2,0.1-3.7,0.3-3.8
			c0.1-0.1,0.3-0.2,1-0.2h2.1c0.6,0,0.8,0,1,0.2c0.1,0.1,0.3,0.6,0.3,3.8C146.7,27.5,146.6,27.9,146.4,28.1z"/>
		<polygon fill="#FFFFFF" points="121.3,37.3 122.8,37.3 122.8,34 115.4,34 115.4,37.2 116.7,37.2 115,39.8 114.9,39.8 113.3,37.2 
			114.6,37.2 114.6,34 106.9,34 106.9,37.3 108.4,37.3 112.6,43.2 112.6,45.5 111,45.5 111,48.7 118.6,48.7 118.6,45.5 117,45.5 
			117,43.1 		"/>
		<polygon fill="#FFFFFF" points="119.7,28.3 115.7,28.3 115.7,20.1 119.7,20.1 119.7,16.9 106.9,16.9 106.9,20.1 110.9,20.1 
			110.9,28.3 106.9,28.3 106.9,31.6 119.7,31.6 		"/>
		<polygon fill="#FFFFFF" points="162.2,20.1 163.7,20.1 163.7,24.4 158.8,16.9 152.1,16.9 152.1,20.1 153.6,20.1 153.6,28.3 
			152.1,28.3 152.1,31.6 159.1,31.6 159.1,28.3 157.5,28.3 157.5,23.2 162.7,31.6 167.6,31.6 167.6,20.1 169.1,20.1 169.1,20.1 
			169.1,16.9 162.2,16.9 		"/>
		<path fill="#FFFFFF" d="M129.2,26l3.3,5.6h4.5v-3.3h-1.4l-2.2-3.8c1.7-0.3,2.4-1,2.4-3.6c0-1.8-0.2-2.7-0.9-3.3
			c-0.6-0.6-1.4-0.8-2.7-0.8h-11.3v3.3h1.6v8.2h-1.6v3.3h7.5v-3.3h-1.6V26C126.8,26,129.2,26,129.2,26z M126.8,20.1h3.2
			c0.6,0,0.8,0,1,0.2s0.2,0.5,0.2,1.3s0,1.1-0.2,1.3c-0.1,0.1-0.4,0.2-1,0.2h-3.3v-3H126.8z"/>
		<polygon fill="#263746" points="127.9,37.8 126.8,41.2 130,41.2 128.9,37.8 		"/>
		<path fill="#263746" d="M131,22.8c0.2-0.2,0.2-0.5,0.2-1.3s0-1.1-0.2-1.3c-0.1-0.1-0.4-0.2-1-0.2h-3.3v2.9h3.3
			C130.7,23,130.9,23,131,22.8z"/>
		<path fill="#263746" d="M144.9,10.1c0.9,0,3-2.3,3-2.8c0-0.1-0.1-0.2-0.2-0.2c-0.1,0-0.3,0.1-0.3,0.1c-1.1,0.7-2.2,1.7-2.9,2.6
			C144.7,10.1,144.8,10.1,144.9,10.1z"/>
		<path fill="#263746" d="M145.5,20.2h-2.1c-0.6,0-0.8,0-1,0.2c-0.1,0.1-0.3,0.6-0.3,3.8c0,3.2,0.1,3.7,0.3,3.8
			c0.1,0.1,0.3,0.2,1,0.2h2.1c0.6,0,0.8,0,1-0.2c0.1-0.1,0.3-0.6,0.3-3.8c0-3.2-0.1-3.7-0.3-3.8C146.3,20.3,146.1,20.2,145.5,20.2z"
			/>
		<path fill="#263746" d="M146.6,40c0.2-0.2,0.2-0.5,0.2-1.3s0-1.1-0.2-1.3c-0.1-0.1-0.4-0.2-1-0.2h-3.3v2.9h3.3
			C146.2,40.2,146.4,40.1,146.6,40z"/>
		<path fill="#263746" d="M161.9,45.5c1,0,1.3-0.1,1.5-0.3c0.2-0.2,0.3-0.9,0.3-3.8c0-3-0.1-3.6-0.3-3.8c-0.2-0.2-0.6-0.3-1.5-0.3
			h-3.5v8.2L161.9,45.5L161.9,45.5z"/>
		<path fill="#263746" d="M183.8,9.8l-43.6-24.6c-1.2-0.7-3.1-0.7-4.3,0L92.2,9.8C91,10.5,90,12.2,90,13.6v36c0,1.4,1.1,2.9,2.4,3.3
			l43.1,15.7c1.3,0.4,3.5,0.4,4.8,0l43.1-15.7c1.3-0.4,2.4-1.9,2.4-3.3v-36C185.9,12.2,185,10.5,183.8,9.8z M136.4,48.7h-6.6v-3.2
			h1.3l-0.4-1.3H126l-0.3,1.3h1.3v3.2h-7.3v-3.3h1.7l3.9-11.5h6.6l3.9,11.5h0.6h0.6h1v-8.2h-1.6v-3.3h11.4c1.3,0,2.1,0.2,2.7,0.8
			c0.7,0.7,0.9,1.5,0.9,3.3c0,2.6-0.7,3.2-2.4,3.6l2.2,3.8h1.4h1.5v-8.2h-1.6v-3.3h10c2.1,0,3.3,0.3,4.1,1.2c1,1,1.5,2.5,1.5,6.2
			s-0.5,5.2-1.5,6.2c-0.9,0.9-2,1.2-4.1,1.2h-8.3h-1.7H148l-3.3-5.6h-2.5v2.3h1.6v3.3H137H136.4z M149.5,1.9
			c-1.2,0.1-2.7,0.3-4.1,0.4c-1.1,0.3-2,1-2.6,1.6c-2.2,2.1-3.7,3.2-4.1,3.7c1-0.5,1.7-0.9,2.5-0.9c0.5,0,1.4,0.5,1.4,1.2
			c0,0.2-0.1,0.3-0.3,0.5c-0.8,0.7-3.2,2.6-3.2,3.4c0,0.2,0.1,0.2,0.2,0.2c0.3,0,1.3-0.7,2.3-1.4c0.5-0.4,1.1-1.2,1.3-1.5
			c0.5-0.7,1.1-1.3,1.7-1.9c1.3-1.2,2.3-1.7,2.9-1.7c0.3,0,0.8,0.3,1.2,0.8c0.6,0.5,0.6,0.8,0.6,1c0,1.5-2.7,3.7-3.9,3.7
			c-0.3,0-0.8-0.2-1.2-0.6c-0.3,0.5-0.5,0.9-0.5,1.2s0.1,0.6,0.6,0.6c0.3,0,0.6-0.1,0.8-0.2c2.9-1.1,4.5-2.5,4.6-2.5
			c0.1,0,0.1,0.1,0.1,0.2c0,0.2-0.6,0.9-1.3,1.5c-1.2,1.1-2.8,2.2-4.3,2.2c-0.7,0-2.1-1.6-2.2-2.2c-1,0.9-2.6,2.1-3.4,2.1
			c-0.9,0-1.4-1.1-1.4-1.9c0-1,1.2-2.2,2.3-3.3c-1.3,0.5-2.7,1.7-4.9,4.5c-0.1,0.1-0.4,0.8-0.6,0.8c-0.3,0-1.4-0.9-1.4-1.4
			c0-0.1,0-0.2,0.1-0.4c2-2.9,6.2-6.8,8.8-9.1c-0.7,0-1.2,0-1.6,0c-0.5,0-2,1.2-3.1,2.3c-1.3,1.3-4.5,4.4-6.6,7.2
			c-1.3,1.6-1.1,2.1-1.3,2.1c-0.6,0-1.8-1.9-1.8-2.3c0-1,2.9-3.8,4.4-5.2c2.5-2.4,3.9-3.6,4.2-3.8c0.1-0.1,0.4-0.3,0.4-0.3
			c-3.4-0.6-7-1.6-9.2-1c-2.7,0.8-4.2,6.6-0.2,5.2c1.7-0.6,3.2-1.9,4.1-3c0.4-0.4,0.6-0.2,0.2,0.4c-1.2,1.9-3.1,3.7-6.8,3.9
			c-3.5,0.1-2.8-5.4,1.4-7.2c1.7-0.7,4.2-0.4,7.3-0.4c7.5,0,14.8-0.5,15.1-0.5c0.2,0,0.3-0.2,1.7,1c0.2,0.2,0.8,0.5,0.8,0.8
			C150.6,1.7,149.9,1.8,149.5,1.9z M151.2,24.2c0,4.1-0.5,5.7-1.3,6.6c-0.6,0.6-1.2,0.8-2.7,0.8h-5.5c-1.5,0-2.2-0.2-2.7-0.8
			c-0.9-0.8-1.3-2.5-1.3-6.6s0.5-5.7,1.3-6.6c0.6-0.6,1.2-0.8,2.7-0.8h5.5c1.5,0,2.2,0.2,2.7,0.8C150.8,18.5,151.2,20.2,151.2,24.2z
			 M128.3,28.3v3.3h-7.5v-3.3h1.6v-8.2h-1.6v-3.3h11.4c1.3,0,2.1,0.2,2.7,0.8c0.7,0.7,0.9,1.5,0.9,3.3c0,2.6-0.7,3.2-2.4,3.6
			l2.2,3.8h1.4v3.3h-4.6l-3.3-5.6h-2.5v2.3L128.3,28.3L128.3,28.3z M118.6,45.5v3.3H111v-3.3h1.7v-2.3l-4.3-5.9h-1.5V34h7.7v3.2
			h-1.3l1.6,2.5h0.1l1.7-2.5h-1.3V34h7.4v3.3h-1.5l-4.3,5.8v2.4C117,45.5,118.6,45.5,118.6,45.5z M106.9,28.3h4v-8.2h-4v-3.3h12.8
			v3.3h-4v8.2h4v3.3h-12.8V28.3z M169.1,20.1L169.1,20.1h-1.5v11.5h-4.8l-5.2-8.4v5.1h1.6v3.3h-7v-3.3h1.6v-8.2h-1.6v-3.3h6.7
			l4.9,7.5V20h-1.5v-3.3h6.9L169.1,20.1L169.1,20.1z"/>
	</g>
</g>
</svg>
