<?xml version="1.0" encoding="utf-8"?>
<!-- Generator: Adobe Illustrator 19.1.0, SVG Export Plug-In . SVG Version: 6.00 Build 0)  -->
<!DOCTYPE svg PUBLIC "-//W3C//DTD SVG 1.1//EN" "http://www.w3.org/Graphics/SVG/1.1/DTD/svg11.dtd">
<svg version="1.1" id="Layer_1" xmlns="http://www.w3.org/2000/svg" xmlns:xlink="http://www.w3.org/1999/xlink" x="0px" y="0px"
	 viewBox="210 7.9 489.3 57.1" style="enable-background:new 210 7.9 489.3 57.1;" xml:space="preserve">
<style type="text/css">
	.st0{fill:#2D366F;}
</style>
<g>
	<g>
		<g>
			<path class="st0" d="M368,18.8h6.7c0.7,0,1.3,0.2,1.7,0.5c0.5,0.3,0.8,0.7,0.9,1.2l4.7,17.8c0.2,0.6,0.3,1.2,0.5,1.9
				c0.2,0.7,0.3,1.3,0.4,2.1c0.2-0.7,0.3-1.4,0.5-2.1c0.2-0.6,0.4-1.3,0.5-1.8l5.5-17.8c0.1-0.4,0.4-0.8,0.9-1.2s1-0.5,1.7-0.5h2.3
				c0.7,0,1.3,0.2,1.7,0.5s0.8,0.7,0.9,1.3l5.5,17.8c0.2,0.5,0.4,1.1,0.5,1.7c0.2,0.6,0.4,1.3,0.5,2c0.1-0.7,0.3-1.3,0.4-2
				c0.1-0.6,0.3-1.2,0.4-1.8l4.7-17.8c0.1-0.5,0.4-0.9,0.9-1.2s1-0.5,1.7-0.5h6.2L407.2,53H400l-6.4-21.2c-0.1-0.3-0.2-0.7-0.3-1.1
				s-0.2-0.8-0.3-1.2c-0.1,0.4-0.2,0.9-0.3,1.2c-0.1,0.4-0.2,0.8-0.3,1.1L385.9,53h-7.2L368,18.8z"/>
			<path class="st0" d="M442.9,18.8v6.1h-14v8h10.7v5.9h-10.7v8.1h14V53h-22V18.8H442.9z"/>
			<path class="st0" d="M479.5,44.1c0.2,0,0.4,0,0.6,0.1c0.2,0.1,0.4,0.2,0.5,0.4l3.1,3.3c-1.4,1.8-3.1,3.2-5.2,4.1
				s-4.5,1.4-7.4,1.4c-2.6,0-4.9-0.4-7-1.3s-3.8-2.1-5.2-3.7s-2.5-3.4-3.3-5.5c-0.8-2.1-1.2-4.5-1.2-7s0.4-4.9,1.3-7
				c0.9-2.1,2.1-4,3.7-5.5s3.5-2.8,5.6-3.6c2.2-0.9,4.6-1.3,7.2-1.3c1.3,0,2.5,0.1,3.6,0.3c1.1,0.2,2.2,0.5,3.2,0.9s1.9,0.9,2.7,1.4
				c0.8,0.6,1.6,1.2,2.2,1.8l-2.7,3.6c-0.2,0.2-0.4,0.4-0.6,0.6c-0.2,0.2-0.6,0.3-1,0.3c-0.3,0-0.5-0.1-0.8-0.2
				c-0.2-0.1-0.5-0.3-0.8-0.5c-0.3-0.2-0.6-0.4-0.9-0.6c-0.3-0.2-0.7-0.4-1.2-0.6s-1-0.3-1.6-0.5c-0.6-0.1-1.3-0.2-2.2-0.2
				c-1.4,0-2.8,0.3-3.9,0.8c-1.2,0.5-2.2,1.2-3.1,2.2c-0.9,0.9-1.5,2.1-2,3.4s-0.7,2.9-0.7,4.5c0,1.8,0.2,3.3,0.7,4.7
				c0.5,1.4,1.1,2.5,1.9,3.4c0.8,0.9,1.8,1.6,2.9,2.1s2.3,0.7,3.5,0.7c0.7,0,1.4,0,2-0.1s1.1-0.2,1.7-0.4c0.5-0.2,1-0.4,1.5-0.7
				c0.5-0.3,0.9-0.6,1.4-1c0.2-0.2,0.4-0.3,0.6-0.4C479,44.2,479.3,44.1,479.5,44.1z"/>
			<path class="st0" d="M521.1,35.9c0,2.5-0.4,4.8-1.3,6.9s-2.1,4-3.6,5.5c-1.5,1.6-3.4,2.8-5.6,3.7c-2.2,0.9-4.6,1.3-7.3,1.3
				s-5.1-0.4-7.3-1.3c-2.2-0.9-4.1-2.1-5.6-3.7c-1.6-1.6-2.8-3.4-3.6-5.5c-0.9-2.1-1.3-4.4-1.3-6.9s0.4-4.8,1.3-6.9
				c0.9-2.1,2.1-4,3.6-5.5c1.6-1.6,3.4-2.8,5.6-3.7c2.2-0.9,4.6-1.3,7.3-1.3s5.1,0.4,7.3,1.3s4,2.1,5.6,3.7c1.5,1.6,2.7,3.4,3.6,5.5
				S521.1,33.4,521.1,35.9z M513,35.9c0-1.7-0.2-3.2-0.7-4.6c-0.4-1.4-1.1-2.5-1.9-3.4c-0.8-0.9-1.8-1.7-3-2.2
				c-1.2-0.5-2.5-0.8-4.1-0.8c-1.5,0-2.9,0.2-4.1,0.8c-1.2,0.5-2.2,1.2-3,2.2c-0.8,0.9-1.4,2.1-1.9,3.4c-0.4,1.4-0.7,2.9-0.7,4.6
				s0.2,3.2,0.7,4.6c0.4,1.4,1.1,2.5,1.9,3.4c0.8,0.9,1.8,1.7,3,2.1c1.2,0.5,2.6,0.7,4.1,0.7s2.9-0.2,4.1-0.7c1.2-0.5,2.2-1.2,3-2.1
				c0.8-0.9,1.4-2.1,1.9-3.4C512.8,39.1,513,37.6,513,35.9z"/>
			<path class="st0" d="M556,35.9c0,2.5-0.4,4.7-1.3,6.8c-0.9,2.1-2.1,3.9-3.6,5.4s-3.4,2.7-5.6,3.6s-4.6,1.3-7.3,1.3h-13.3V18.8
				h13.3c2.7,0,5.1,0.4,7.3,1.3s4,2,5.6,3.6c1.5,1.5,2.7,3.3,3.6,5.4C555.5,31.1,556,33.4,556,35.9z M547.9,35.9
				c0-1.7-0.2-3.2-0.7-4.6c-0.4-1.4-1.1-2.5-1.9-3.5c-0.8-0.9-1.8-1.7-3-2.2s-2.5-0.8-4.1-0.8h-5.3v22h5.3c1.5,0,2.9-0.3,4.1-0.8
				s2.2-1.2,3-2.2c0.8-0.9,1.5-2.1,1.9-3.5C547.6,39.1,547.9,37.6,547.9,35.9z"/>
			<path class="st0" d="M581.8,18.8v6.1h-14v8h10.7v5.9h-10.7v8.1h14V53h-22V18.8H581.8z"/>
		</g>
	</g>
</g>
<g>
	<path class="st0" d="M210,7.9v56.4h148.1V7.9H210z M256.3,31.3c0,0.5-0.4,1-1,1h-6.1V40h6.2c0.5,0,1,0.4,1,1v4.3c0,0.5-0.4,1-1,1
		h-6.2v6.2c0,0.5-0.4,1-1,1h-4.3c-0.5,0-1-0.4-1-1v-6.2h-7.7v6.2c0,0.5-0.4,1-1,1h-4.3c-0.5,0-1-0.4-1-1v-6.2h-6.2c-0.5,0-1-0.4-1-1
		V41c0-0.5,0.4-1,1-1h6.2v-7.7h-6.2c-0.5,0-1-0.4-1-1V27c0-0.5,0.4-1,1-1h6.2v-6.2c0-0.5,0.4-1,1-1h4.3c0.5,0,1,0.4,1,1V26h7.7v-6.2
		c0-0.5,0.4-1,1-1h4.3c0.5,0,1,0.4,1,1V26h6.2c0.5,0,1,0.4,1,1L256.3,31.3L256.3,31.3z M285.6,40v13h-7.9V40l-12.4-21.2h7
		c0.7,0,1.2,0.2,1.6,0.5s0.7,0.7,1,1.2l4.8,9.9c0.4,0.8,0.8,1.5,1.1,2.2c0.3,0.7,0.6,1.3,0.9,2c0.2-0.7,0.5-1.3,0.8-2
		s0.7-1.4,1.1-2.2l4.8-9.9c0.1-0.2,0.2-0.4,0.4-0.6c0.2-0.2,0.4-0.4,0.6-0.6c0.2-0.2,0.5-0.3,0.7-0.4c0.3-0.1,0.6-0.2,0.9-0.2h7
		L285.6,40z M322.4,24.9h-14v8h10.7v5.9h-10.7v8.1h14V53h-22V18.8h22C322.4,18.8,322.4,24.9,322.4,24.9z M348.5,46.5
		c-0.5,1.4-1.3,2.6-2.4,3.6c-1,1-2.3,1.8-3.8,2.4s-3.3,0.9-5.2,0.9c-1.1,0-2.1-0.1-3.2-0.3c-1.1-0.2-2.2-0.5-3.2-0.9s-2-0.9-2.9-1.4
		s-1.7-1.2-2.4-1.8l2.3-3.7c0.2-0.3,0.4-0.5,0.7-0.7c0.3-0.2,0.6-0.3,1-0.3c0.5,0,0.9,0.1,1.4,0.4s1,0.6,1.6,1s1.3,0.7,2.1,1
		c0.8,0.3,1.7,0.4,2.8,0.4c1.4,0,2.6-0.3,3.4-0.9c0.8-0.6,1.2-1.6,1.2-3c0-0.8-0.2-1.4-0.7-1.9c-0.4-0.5-1-0.9-1.7-1.2
		c-0.7-0.3-1.5-0.6-2.4-0.9c-0.9-0.2-1.8-0.5-2.8-0.8s-1.9-0.7-2.8-1.1c-0.9-0.4-1.7-1-2.4-1.8c-0.7-0.7-1.3-1.6-1.7-2.7
		s-0.7-2.4-0.7-4c0-1.3,0.3-2.5,0.8-3.8s1.3-2.3,2.3-3.3s2.2-1.7,3.7-2.3s3.1-0.9,5-0.9c1,0,2.1,0.1,3.1,0.2c1,0.2,1.9,0.4,2.8,0.7
		c0.9,0.3,1.7,0.7,2.5,1.1c0.8,0.4,1.5,0.9,2.1,1.5l-2,3.7c-0.2,0.4-0.5,0.7-0.7,0.8c-0.3,0.2-0.6,0.3-1,0.3c-0.4,0-0.7-0.1-1.2-0.3
		c-0.4-0.2-0.9-0.5-1.4-0.8s-1.1-0.5-1.8-0.8c-0.7-0.2-1.4-0.3-2.3-0.3c-1.5,0-2.6,0.3-3.3,1c-0.7,0.6-1.1,1.5-1.1,2.6
		c0,0.7,0.2,1.3,0.7,1.7c0.4,0.5,1,0.8,1.7,1.2c0.7,0.3,1.5,0.6,2.4,0.9c0.9,0.3,1.8,0.6,2.8,0.9s1.9,0.7,2.8,1.2
		c0.9,0.5,1.7,1,2.4,1.7c0.7,0.7,1.3,1.6,1.7,2.6s0.7,2.2,0.7,3.6C349.3,43.6,349,45.1,348.5,46.5z"/>
	<polygon class="st0" points="239.1,28.7 237.1,33.8 231.8,34.1 235.9,37.5 234.6,42.7 239.1,39.8 243.6,42.7 242.3,37.5 
		246.4,34.1 241.1,33.8 	"/>
</g>
<g>
	<path class="st0" d="M601.3,55.8l3-25.2h-2.8l0.4-2.1l3.1-1.4l0.3-1.7c0.2-1.4,0.6-2.7,1.2-3.8c0.6-1.2,1.3-2.2,2.2-3.1
		c0.9-0.9,1.9-1.6,3-2.1c1.1-0.5,2.4-0.8,3.8-0.8c0.6,0,1.3,0,1.9,0.1c0.7,0.1,1.3,0.2,1.9,0.5l-1.3,3.9c-0.3-0.2-0.7-0.4-1.2-0.7
		c-0.5-0.3-1.1-0.4-1.8-0.4c-0.6,0-1,0.1-1.4,0.4c-0.4,0.2-0.7,0.6-0.9,1s-0.4,1-0.5,1.6c-0.1,0.6-0.2,1.3-0.3,2l-0.5,3h4.7
		l-0.6,3.6h-4.6l-2.3,19.5c-0.2,1.7-0.6,3.4-1.1,5.1s-1.2,3.1-2.1,4.4c-0.9,1.3-1.9,2.3-3.2,3.1c-1.2,0.8-2.6,1.2-4.2,1.2
		c-0.4,0-0.8,0-1.2-0.1c-0.4-0.1-0.8-0.1-1.2-0.1s-0.7-0.1-1-0.2s-0.5-0.1-0.7-0.2l1.3-4.1c0.1,0,0.2,0.1,0.5,0.2
		c0.3,0.1,0.6,0.2,0.9,0.4c0.3,0.1,0.7,0.2,1.1,0.3c0.4,0.1,0.7,0.1,1,0.1C600,60.3,600.9,58.8,601.3,55.8z"/>
	<path class="st0" d="M618.2,47.2c0-0.5,0-1.1,0.1-1.7c0.1-0.6,0.1-1.3,0.2-2s0.2-1.4,0.3-2.1c0.1-0.7,0.2-1.4,0.3-2.1l1.2-8.1
		l-2.7-1.7l0.4-2l8.1-0.8l1.1,0.5l-1.5,12.2c-0.1,0.6-0.2,1.3-0.3,1.9c-0.1,0.6-0.2,1.3-0.2,1.9c-0.1,0.6-0.1,1.1-0.2,1.6
		s-0.1,0.9-0.1,1.3c0,1.2,0.2,2,0.6,2.4c0.4,0.5,1,0.7,1.7,0.7c0.5,0,0.9-0.1,1.3-0.2s0.8-0.3,1.2-0.6c0.4-0.2,0.8-0.5,1.1-0.8
		c0.3-0.3,0.7-0.6,0.9-0.9l2.7-19.9h6.5l-2.8,20.7c-0.1,0.6,0,1,0.1,1.3s0.4,0.4,0.7,0.4c0.1,0,0.3,0,0.4,0c0.1,0,0.3-0.1,0.4-0.2
		c0.2-0.1,0.3-0.2,0.6-0.3c0.2-0.1,0.5-0.3,0.8-0.6l0.6,1.5c-0.1,0.2-0.3,0.4-0.7,0.8c-0.3,0.4-0.8,0.7-1.3,1.1s-1.1,0.7-1.8,0.9
		c-0.7,0.2-1.5,0.4-2.3,0.4c-1.4,0-2.5-0.3-3.1-1c-0.6-0.7-0.8-1.5-0.6-2.6l-0.1-0.1c-0.4,0.4-0.8,0.9-1.3,1.3s-1,0.8-1.7,1.2
		c-0.6,0.4-1.3,0.6-2.1,0.9c-0.8,0.2-1.6,0.3-2.6,0.3c-0.7,0-1.4-0.1-2.2-0.3c-0.7-0.2-1.4-0.5-2-1c-0.6-0.4-1.1-1-1.5-1.8
		C618.4,49.1,618.2,48.2,618.2,47.2z"/>
	<path class="st0" d="M645,52.4l2.9-21.3l-2.3-1.3l0.4-2l7.6-1.2l1.1,0.5l-0.4,4.6c0.5-0.8,1.1-1.4,1.7-2.1c0.6-0.6,1.3-1.2,2-1.6
		c0.7-0.5,1.5-0.8,2.3-1.1c0.8-0.3,1.6-0.4,2.5-0.4c0.8,0,1.6,0.1,2.3,0.3c0.7,0.2,1.3,0.6,1.8,1.1s0.9,1.2,1.2,2.1
		c0.3,0.8,0.4,1.9,0.4,3.1c0,0.4,0,0.9-0.1,1.5c-0.1,0.6-0.2,1.3-0.3,2.1c-0.1,0.7-0.2,1.5-0.4,2.2c-0.2,0.7-0.3,1.4-0.4,2.1
		c-0.1,0.6-0.2,1.1-0.3,1.7s-0.2,1.2-0.3,1.8c-0.1,0.6-0.2,1.1-0.2,1.7c-0.1,0.5-0.1,1-0.1,1.5s0.1,0.9,0.2,1.1
		c0.2,0.2,0.3,0.3,0.5,0.3s0.5-0.1,0.8-0.2s0.7-0.4,1.2-0.8l0.6,1.5c-0.1,0.2-0.3,0.4-0.6,0.8c-0.3,0.3-0.8,0.7-1.3,1
		s-1.2,0.7-1.9,0.9c-0.7,0.2-1.5,0.4-2.5,0.4c-0.9,0-1.6-0.1-2.1-0.3s-1-0.5-1.3-0.8s-0.5-0.7-0.6-1.2c-0.1-0.5-0.1-0.9-0.1-1.3
		s0-0.8,0.1-1.3c0.1-0.5,0.1-1.1,0.2-1.6c0.1-0.6,0.2-1.2,0.3-1.8s0.2-1.3,0.4-1.9c0.1-0.6,0.2-1.3,0.4-2c0.1-0.7,0.2-1.5,0.3-2.2
		c0.1-0.8,0.2-1.5,0.3-2.3c0.1-0.8,0.1-1.5,0.1-2.1s-0.1-1.2-0.1-1.6c-0.1-0.4-0.2-0.7-0.4-1c-0.2-0.2-0.4-0.4-0.6-0.5
		s-0.5-0.1-0.8-0.1c-0.5,0-0.9,0.1-1.5,0.4c-0.5,0.3-1,0.7-1.6,1.1c-0.5,0.5-1,1-1.5,1.7c-0.5,0.6-0.9,1.3-1.3,2l-2.2,16.3H645V52.4
		L645,52.4z"/>
	<path class="st0" d="M679.9,52.9c-1.3,0-2.5-0.2-3.5-0.7s-1.7-1.2-2.3-2s-1-1.8-1.3-3s-0.4-2.4-0.4-3.7c0-1.4,0.1-2.7,0.4-4.1
		s0.7-2.7,1.2-3.9c0.5-1.2,1.2-2.4,2-3.5s1.8-2,2.9-2.8c1.1-0.8,2.3-1.4,3.7-1.9c1.4-0.4,2.9-0.7,4.6-0.7c0.4,0,0.8,0,1.2,0.1
		c0.4,0,0.8,0.1,1.2,0.2l1.1-7.3l-3.3-1l0.4-1.8l8.7-0.9l1.2,0.6l-4.5,31c-0.1,0.5-0.1,1,0.1,1.3c0.1,0.3,0.3,0.5,0.7,0.5
		c0.2,0,0.5-0.1,0.8-0.2s0.7-0.4,1.3-0.8l0.6,1.5c-0.1,0.1-0.3,0.4-0.7,0.7c-0.3,0.3-0.7,0.7-1.2,1c-0.5,0.4-1.1,0.7-1.8,0.9
		c-0.7,0.3-1.4,0.4-2.3,0.4c-1.3,0-2.2-0.3-2.7-0.9c-0.6-0.6-0.9-1.5-0.9-2.7c-0.3,0.4-0.7,0.9-1.2,1.3s-1,0.8-1.6,1.2
		c-0.6,0.3-1.3,0.6-2,0.9C681.6,52.8,680.8,52.9,679.9,52.9z M686.7,46.5l2.4-16.3c-0.7-0.3-1.6-0.4-2.5-0.4c-0.9,0-1.8,0.2-2.5,0.6
		s-1.4,0.9-1.9,1.6s-1,1.5-1.4,2.4c-0.4,0.9-0.7,1.9-0.9,2.9c-0.2,1-0.4,2-0.5,3.1c-0.1,1-0.2,2-0.2,3c0,1.9,0.3,3.4,0.9,4.4
		c0.6,1,1.4,1.5,2.4,1.5c0.4,0,0.9-0.1,1.3-0.2c0.4-0.2,0.8-0.4,1.2-0.6c0.4-0.2,0.7-0.5,1-0.9C686.3,47.2,686.5,46.8,686.7,46.5z"
		/>
</g>
</svg>
