<?xml version="1.0" encoding="utf-8"?>
<!-- Generator: Adobe Illustrator 19.1.0, SVG Export Plug-In . SVG Version: 6.00 Build 0)  -->
<!DOCTYPE svg PUBLIC "-//W3C//DTD SVG 1.1//EN" "http://www.w3.org/Graphics/SVG/1.1/DTD/svg11.dtd">
<svg version="1.1" id="Layer_1" xmlns="http://www.w3.org/2000/svg" xmlns:xlink="http://www.w3.org/1999/xlink" x="0px" y="0px"
	 viewBox="0 0 489.3 57.1" enable-background="new 0 0 489.3 57.1" xml:space="preserve">
<g>
	<g>
		<g>
			<path fill="#FFFFFF" d="M158.8,11h6.7c0.7,0,1.3,0.2,1.7,0.5c0.5,0.3,0.8,0.7,0.9,1.2l4.7,17.8c0.2,0.6,0.3,1.2,0.5,1.9
				c0.2,0.7,0.3,1.3,0.4,2.1c0.2-0.7,0.3-1.4,0.5-2.1c0.2-0.6,0.4-1.3,0.5-1.8l5.5-17.8c0.1-0.4,0.4-0.8,0.9-1.2
				c0.5-0.4,1-0.5,1.7-0.5h2.3c0.7,0,1.3,0.2,1.7,0.5c0.4,0.3,0.8,0.7,0.9,1.3l5.5,17.8c0.2,0.5,0.4,1.1,0.5,1.7
				c0.2,0.6,0.4,1.3,0.5,2c0.1-0.7,0.3-1.3,0.4-2c0.1-0.6,0.3-1.2,0.4-1.8l4.7-17.8c0.1-0.5,0.4-0.9,0.9-1.2c0.5-0.3,1-0.5,1.7-0.5
				h6.2L198,45.2h-7.2L184.4,24c-0.1-0.3-0.2-0.7-0.3-1.1c-0.1-0.4-0.2-0.8-0.3-1.2c-0.1,0.4-0.2,0.9-0.3,1.2
				c-0.1,0.4-0.2,0.8-0.3,1.1l-6.5,21.2h-7.2L158.8,11z"/>
			<path fill="#FFFFFF" d="M233.7,11v6.1h-14v8h10.7v5.9h-10.7v8.1h14v6.1h-22V11H233.7z"/>
			<path fill="#FFFFFF" d="M270.3,36.3c0.2,0,0.4,0,0.6,0.1c0.2,0.1,0.4,0.2,0.5,0.4l3.1,3.3c-1.4,1.8-3.1,3.2-5.2,4.1
				c-2.1,0.9-4.5,1.4-7.4,1.4c-2.6,0-4.9-0.4-7-1.3c-2.1-0.9-3.8-2.1-5.2-3.7c-1.4-1.6-2.5-3.4-3.3-5.5c-0.8-2.1-1.2-4.5-1.2-7
				c0-2.5,0.4-4.9,1.3-7c0.9-2.1,2.1-4,3.7-5.5c1.6-1.5,3.5-2.8,5.6-3.6c2.2-0.9,4.6-1.3,7.2-1.3c1.3,0,2.5,0.1,3.6,0.3
				c1.1,0.2,2.2,0.5,3.2,0.9c1,0.4,1.9,0.9,2.7,1.4c0.8,0.6,1.6,1.2,2.2,1.8l-2.7,3.6c-0.2,0.2-0.4,0.4-0.6,0.6
				c-0.2,0.2-0.6,0.3-1,0.3c-0.3,0-0.5-0.1-0.8-0.2c-0.2-0.1-0.5-0.3-0.8-0.5c-0.3-0.2-0.6-0.4-0.9-0.6c-0.3-0.2-0.7-0.4-1.2-0.6
				c-0.5-0.2-1-0.3-1.6-0.5c-0.6-0.1-1.3-0.2-2.2-0.2c-1.4,0-2.8,0.3-3.9,0.8c-1.2,0.5-2.2,1.2-3.1,2.2c-0.9,0.9-1.5,2.1-2,3.4
				c-0.5,1.3-0.7,2.9-0.7,4.5c0,1.8,0.2,3.3,0.7,4.7c0.5,1.4,1.1,2.5,1.9,3.4c0.8,0.9,1.8,1.6,2.9,2.1c1.1,0.5,2.3,0.7,3.5,0.7
				c0.7,0,1.4,0,2-0.1c0.6-0.1,1.1-0.2,1.7-0.4c0.5-0.2,1-0.4,1.5-0.7c0.5-0.3,0.9-0.6,1.4-1c0.2-0.2,0.4-0.3,0.6-0.4
				C269.8,36.4,270.1,36.3,270.3,36.3z"/>
			<path fill="#FFFFFF" d="M311.9,28.1c0,2.5-0.4,4.8-1.3,6.9c-0.9,2.1-2.1,4-3.6,5.5c-1.5,1.6-3.4,2.8-5.6,3.7
				c-2.2,0.9-4.6,1.3-7.3,1.3s-5.1-0.4-7.3-1.3c-2.2-0.9-4.1-2.1-5.6-3.7c-1.6-1.6-2.8-3.4-3.6-5.5c-0.9-2.1-1.3-4.4-1.3-6.9
				s0.4-4.8,1.3-6.9c0.9-2.1,2.1-4,3.6-5.5c1.6-1.6,3.4-2.8,5.6-3.7c2.2-0.9,4.6-1.3,7.3-1.3s5.1,0.4,7.3,1.3c2.2,0.9,4,2.1,5.6,3.7
				c1.5,1.6,2.7,3.4,3.6,5.5C311.5,23.3,311.9,25.6,311.9,28.1z M303.8,28.1c0-1.7-0.2-3.2-0.7-4.6c-0.4-1.4-1.1-2.5-1.9-3.4
				c-0.8-0.9-1.8-1.7-3-2.2c-1.2-0.5-2.5-0.8-4.1-0.8c-1.5,0-2.9,0.2-4.1,0.8c-1.2,0.5-2.2,1.2-3,2.2c-0.8,0.9-1.4,2.1-1.9,3.4
				c-0.4,1.4-0.7,2.9-0.7,4.6c0,1.7,0.2,3.2,0.7,4.6c0.4,1.4,1.1,2.5,1.9,3.4c0.8,0.9,1.8,1.7,3,2.1c1.2,0.5,2.6,0.7,4.1,0.7
				c1.5,0,2.9-0.2,4.1-0.7c1.2-0.5,2.2-1.2,3-2.1c0.8-0.9,1.4-2.1,1.9-3.4C303.6,31.3,303.8,29.8,303.8,28.1z"/>
			<path fill="#FFFFFF" d="M346.8,28.1c0,2.5-0.4,4.7-1.3,6.8c-0.9,2.1-2.1,3.9-3.6,5.4c-1.5,1.5-3.4,2.7-5.6,3.6
				c-2.2,0.9-4.6,1.3-7.3,1.3h-13.3V11H329c2.7,0,5.1,0.4,7.3,1.3c2.2,0.9,4,2,5.6,3.6c1.5,1.5,2.7,3.3,3.6,5.4
				C346.3,23.3,346.8,25.6,346.8,28.1z M338.7,28.1c0-1.7-0.2-3.2-0.7-4.6c-0.4-1.4-1.1-2.5-1.9-3.5c-0.8-0.9-1.8-1.7-3-2.2
				c-1.2-0.5-2.5-0.8-4.1-0.8h-5.3v22h5.3c1.5,0,2.9-0.3,4.1-0.8c1.2-0.5,2.2-1.2,3-2.2c0.8-0.9,1.5-2.1,1.9-3.5
				C338.4,31.3,338.7,29.8,338.7,28.1z"/>
			<path fill="#FFFFFF" d="M372.6,11v6.1h-14v8h10.7v5.9h-10.7v8.1h14v6.1h-22V11H372.6z"/>
		</g>
	</g>
</g>
<g>
	<path fill="#FFFFFF" d="M0.8,0.1v56.4h148.1V0.1H0.8z M47.1,23.5c0,0.5-0.4,1-1,1H40v7.7h6.2c0.5,0,1,0.4,1,1v4.3c0,0.5-0.4,1-1,1
		H40v6.2c0,0.5-0.4,1-1,1h-4.3c-0.5,0-1-0.4-1-1v-6.2h-7.7v6.2c0,0.5-0.4,1-1,1h-4.3c-0.5,0-1-0.4-1-1v-6.2h-6.2c-0.5,0-1-0.4-1-1
		v-4.3c0-0.5,0.4-1,1-1h6.2v-7.7h-6.2c-0.5,0-1-0.4-1-1v-4.3c0-0.5,0.4-1,1-1h6.2V12c0-0.5,0.4-1,1-1h4.3c0.5,0,1,0.4,1,1v6.2h7.7
		V12c0-0.5,0.4-1,1-1H39c0.5,0,1,0.4,1,1v6.2h6.2c0.5,0,1,0.4,1,1V23.5z M76.4,32.2v13h-7.9v-13L56.1,11h7c0.7,0,1.2,0.2,1.6,0.5
		c0.4,0.3,0.7,0.7,1,1.2l4.8,9.9c0.4,0.8,0.8,1.5,1.1,2.2c0.3,0.7,0.6,1.3,0.9,2c0.2-0.7,0.5-1.3,0.8-2c0.3-0.7,0.7-1.4,1.1-2.2
		l4.8-9.9c0.1-0.2,0.2-0.4,0.4-0.6c0.2-0.2,0.4-0.4,0.6-0.6c0.2-0.2,0.5-0.3,0.7-0.4c0.3-0.1,0.6-0.2,0.9-0.2h7L76.4,32.2z
		 M113.2,17.1h-14v8h10.7v5.9H99.2v8.1h14v6.1h-22V11h22V17.1z M139.3,38.7c-0.5,1.4-1.3,2.6-2.4,3.6c-1,1-2.3,1.8-3.8,2.4
		c-1.5,0.6-3.3,0.9-5.2,0.9c-1.1,0-2.1-0.1-3.2-0.3c-1.1-0.2-2.2-0.5-3.2-0.9c-1-0.4-2-0.9-2.9-1.4c-0.9-0.5-1.7-1.2-2.4-1.8
		l2.3-3.7c0.2-0.3,0.4-0.5,0.7-0.7c0.3-0.2,0.6-0.3,1-0.3c0.5,0,0.9,0.1,1.4,0.4c0.5,0.3,1,0.6,1.6,1c0.6,0.4,1.3,0.7,2.1,1
		c0.8,0.3,1.7,0.4,2.8,0.4c1.4,0,2.6-0.3,3.4-0.9c0.8-0.6,1.2-1.6,1.2-3c0-0.8-0.2-1.4-0.7-1.9c-0.4-0.5-1-0.9-1.7-1.2
		c-0.7-0.3-1.5-0.6-2.4-0.9c-0.9-0.2-1.8-0.5-2.8-0.8c-1-0.3-1.9-0.7-2.8-1.1c-0.9-0.4-1.7-1-2.4-1.8c-0.7-0.7-1.3-1.6-1.7-2.7
		c-0.4-1.1-0.7-2.4-0.7-4c0-1.3,0.3-2.5,0.8-3.8s1.3-2.3,2.3-3.3c1-1,2.2-1.7,3.7-2.3c1.5-0.6,3.1-0.9,5-0.9c1,0,2.1,0.1,3.1,0.2
		c1,0.2,1.9,0.4,2.8,0.7c0.9,0.3,1.7,0.7,2.5,1.1c0.8,0.4,1.5,0.9,2.1,1.5l-2,3.7c-0.2,0.4-0.5,0.7-0.7,0.8c-0.3,0.2-0.6,0.3-1,0.3
		c-0.4,0-0.7-0.1-1.2-0.3c-0.4-0.2-0.9-0.5-1.4-0.8c-0.5-0.3-1.1-0.5-1.8-0.8c-0.7-0.2-1.4-0.3-2.3-0.3c-1.5,0-2.6,0.3-3.3,1
		c-0.7,0.6-1.1,1.5-1.1,2.6c0,0.7,0.2,1.3,0.7,1.7c0.4,0.5,1,0.8,1.7,1.2c0.7,0.3,1.5,0.6,2.4,0.9c0.9,0.3,1.8,0.6,2.8,0.9
		c1,0.3,1.9,0.7,2.8,1.2c0.9,0.5,1.7,1,2.4,1.7c0.7,0.7,1.3,1.6,1.7,2.6c0.4,1,0.7,2.2,0.7,3.6C140.1,35.8,139.8,37.3,139.3,38.7z"
		/>
	<polygon fill="#FFFFFF" points="29.9,20.9 27.9,26 22.6,26.3 26.7,29.7 25.4,34.9 29.9,32 34.4,34.9 33.1,29.7 37.2,26.3 31.9,26 	
		"/>
</g>
<g>
	<path fill="#FFFFFF" d="M392.1,48l3-25.2h-2.8l0.4-2.1l3.1-1.4l0.3-1.7c0.2-1.4,0.6-2.7,1.2-3.8c0.6-1.2,1.3-2.2,2.2-3.1
		c0.9-0.9,1.9-1.6,3-2.1s2.4-0.8,3.8-0.8c0.6,0,1.3,0,1.9,0.1c0.7,0.1,1.3,0.2,1.9,0.5l-1.3,3.9c-0.3-0.2-0.7-0.4-1.2-0.7
		c-0.5-0.3-1.1-0.4-1.8-0.4c-0.6,0-1,0.1-1.4,0.4c-0.4,0.2-0.7,0.6-0.9,1c-0.2,0.4-0.4,1-0.5,1.6c-0.1,0.6-0.2,1.3-0.3,2l-0.5,3h4.7
		l-0.6,3.6h-4.6l-2.3,19.5c-0.2,1.7-0.6,3.4-1.1,5.1c-0.5,1.7-1.2,3.1-2.1,4.4c-0.9,1.3-1.9,2.3-3.2,3.1c-1.2,0.8-2.6,1.2-4.2,1.2
		c-0.4,0-0.8,0-1.2-0.1s-0.8-0.1-1.2-0.1c-0.4,0-0.7-0.1-1-0.2c-0.3-0.1-0.5-0.1-0.7-0.2l1.3-4.1c0.1,0,0.2,0.1,0.5,0.2
		c0.3,0.1,0.6,0.2,0.9,0.4c0.3,0.1,0.7,0.2,1.1,0.3s0.7,0.1,1,0.1C390.8,52.5,391.7,51,392.1,48z"/>
	<path fill="#FFFFFF" d="M409,39.4c0-0.5,0-1.1,0.1-1.7c0.1-0.6,0.1-1.3,0.2-2c0.1-0.7,0.2-1.4,0.3-2.1c0.1-0.7,0.2-1.4,0.3-2.1
		l1.2-8.1l-2.7-1.7l0.4-2l8.1-0.8l1.1,0.5l-1.5,12.2c-0.1,0.6-0.2,1.3-0.3,1.9c-0.1,0.6-0.2,1.3-0.2,1.9c-0.1,0.6-0.1,1.1-0.2,1.6
		s-0.1,0.9-0.1,1.3c0,1.2,0.2,2,0.6,2.4c0.4,0.5,1,0.7,1.7,0.7c0.5,0,0.9-0.1,1.3-0.2s0.8-0.3,1.2-0.6c0.4-0.2,0.8-0.5,1.1-0.8
		c0.3-0.3,0.7-0.6,0.9-0.9l2.7-19.9h6.5l-2.8,20.7c-0.1,0.6,0,1,0.1,1.3c0.1,0.3,0.4,0.4,0.7,0.4c0.1,0,0.3,0,0.4,0
		c0.1,0,0.3-0.1,0.4-0.2c0.2-0.1,0.3-0.2,0.6-0.3c0.2-0.1,0.5-0.3,0.8-0.6l0.6,1.5c-0.1,0.2-0.3,0.4-0.7,0.8
		c-0.3,0.4-0.8,0.7-1.3,1.1s-1.1,0.7-1.8,0.9s-1.5,0.4-2.3,0.4c-1.4,0-2.5-0.3-3.1-1c-0.6-0.7-0.8-1.5-0.6-2.6l-0.1-0.1
		c-0.4,0.4-0.8,0.9-1.3,1.3c-0.5,0.4-1,0.8-1.7,1.2c-0.6,0.4-1.3,0.6-2.1,0.9c-0.8,0.2-1.6,0.3-2.6,0.3c-0.7,0-1.4-0.1-2.2-0.3
		c-0.7-0.2-1.4-0.5-2-1c-0.6-0.4-1.1-1-1.5-1.8C409.2,41.3,409,40.4,409,39.4z"/>
	<path fill="#FFFFFF" d="M435.8,44.6l2.9-21.3l-2.3-1.3l0.4-2l7.6-1.2l1.1,0.5l-0.4,4.6c0.5-0.8,1.1-1.4,1.7-2.1
		c0.6-0.6,1.3-1.2,2-1.6c0.7-0.5,1.5-0.8,2.3-1.1c0.8-0.3,1.6-0.4,2.5-0.4c0.8,0,1.6,0.1,2.3,0.3s1.3,0.6,1.8,1.1
		c0.5,0.5,0.9,1.2,1.2,2.1c0.3,0.8,0.4,1.9,0.4,3.1c0,0.4,0,0.9-0.1,1.5c-0.1,0.6-0.2,1.3-0.3,2.1c-0.1,0.7-0.2,1.5-0.4,2.2
		s-0.3,1.4-0.4,2.1c-0.1,0.6-0.2,1.1-0.3,1.7c-0.1,0.6-0.2,1.2-0.3,1.8c-0.1,0.6-0.2,1.1-0.2,1.7c-0.1,0.5-0.1,1-0.1,1.5
		c0,0.5,0.1,0.9,0.2,1.1c0.2,0.2,0.3,0.3,0.5,0.3c0.2,0,0.5-0.1,0.8-0.2c0.3-0.1,0.7-0.4,1.2-0.8l0.6,1.5c-0.1,0.2-0.3,0.4-0.6,0.8
		c-0.3,0.3-0.8,0.7-1.3,1c-0.5,0.3-1.2,0.7-1.9,0.9s-1.5,0.4-2.5,0.4c-0.9,0-1.6-0.1-2.1-0.3c-0.5-0.2-1-0.5-1.3-0.8
		c-0.3-0.3-0.5-0.7-0.6-1.2s-0.1-0.9-0.1-1.3c0-0.4,0-0.8,0.1-1.3s0.1-1.1,0.2-1.6c0.1-0.6,0.2-1.2,0.3-1.8s0.2-1.3,0.4-1.9
		c0.1-0.6,0.2-1.3,0.4-2c0.1-0.7,0.2-1.5,0.3-2.2c0.1-0.8,0.2-1.5,0.3-2.3s0.1-1.5,0.1-2.1c0-0.6-0.1-1.2-0.1-1.6
		c-0.1-0.4-0.2-0.7-0.4-1c-0.2-0.2-0.4-0.4-0.6-0.5c-0.2-0.1-0.5-0.1-0.8-0.1c-0.5,0-0.9,0.1-1.5,0.4c-0.5,0.3-1,0.7-1.6,1.1
		c-0.5,0.5-1,1-1.5,1.7c-0.5,0.6-0.9,1.3-1.3,2l-2.2,16.3H435.8z"/>
	<path fill="#FFFFFF" d="M470.7,45.1c-1.3,0-2.5-0.2-3.5-0.7s-1.7-1.2-2.3-2s-1-1.8-1.3-3s-0.4-2.4-0.4-3.7c0-1.4,0.1-2.7,0.4-4.1
		c0.3-1.4,0.7-2.7,1.2-3.9c0.5-1.2,1.2-2.4,2-3.5c0.8-1.1,1.8-2,2.9-2.8s2.3-1.4,3.7-1.9c1.4-0.4,2.9-0.7,4.6-0.7
		c0.4,0,0.8,0,1.2,0.1c0.4,0,0.8,0.1,1.2,0.2l1.1-7.3l-3.3-1l0.4-1.8l8.7-0.9l1.2,0.6l-4.5,31c-0.1,0.5-0.1,1,0.1,1.3
		c0.1,0.3,0.3,0.5,0.7,0.5c0.2,0,0.5-0.1,0.8-0.2s0.7-0.4,1.3-0.8l0.6,1.5c-0.1,0.1-0.3,0.4-0.7,0.7c-0.3,0.3-0.7,0.7-1.2,1
		c-0.5,0.4-1.1,0.7-1.8,0.9c-0.7,0.3-1.4,0.4-2.3,0.4c-1.3,0-2.2-0.3-2.7-0.9c-0.6-0.6-0.9-1.5-0.9-2.7c-0.3,0.4-0.7,0.9-1.2,1.3
		c-0.5,0.4-1,0.8-1.6,1.2c-0.6,0.3-1.3,0.6-2,0.9C472.4,45,471.6,45.1,470.7,45.1z M477.5,38.7l2.4-16.3c-0.7-0.3-1.6-0.4-2.5-0.4
		c-0.9,0-1.8,0.2-2.5,0.6c-0.7,0.4-1.4,0.9-1.9,1.6s-1,1.5-1.4,2.4c-0.4,0.9-0.7,1.9-0.9,2.9c-0.2,1-0.4,2-0.5,3.1
		c-0.1,1-0.2,2-0.2,3c0,1.9,0.3,3.4,0.9,4.4c0.6,1,1.4,1.5,2.4,1.5c0.4,0,0.9-0.1,1.3-0.2c0.4-0.2,0.8-0.4,1.2-0.6
		c0.4-0.2,0.7-0.5,1-0.9S477.3,39,477.5,38.7z"/>
</g>
<g>
</g>
<g>
</g>
<g>
</g>
<g>
</g>
<g>
</g>
<g>
</g>
</svg>
